<!-- Generated by IcoMoon.io -->
<svg version="1.1" xmlns="http://www.w3.org/2000/svg" width="180" height="32" viewBox="0 0 180 32">
<title>Section</title>
<path fill="#8e8f99" d="M11.2 21.6l1.121 1.068-2.081-0.001v5.183h5.44v-1.982l1.12 1.067v-5.335h-5.6zM15.631 25.743l-3.179-3.029h3.179v3.029zM14.644 27.092h-3.543v-3.486h0.25v3.25h3.292v0.236zM11.807 28.81l-0.132-0.272h-0.109l0.191 0.359v0.209h0.099v-0.209l0.191-0.359h-0.109l-0.132 0.272zM12.294 28.538h0.023l0.215 0.569h-0.103l-0.046-0.133h-0.22l-0.046 0.133h-0.103l0.214-0.569h0.066zM12.19 28.896h0.166l-0.083-0.241-0.083 0.241zM12.877 28.802c-0.004-0.005-0.008-0.011-0.012-0.016-0.015-0.019-0.026-0.038-0.034-0.056s-0.012-0.037-0.012-0.056c0-0.030 0.006-0.055 0.018-0.077s0.030-0.038 0.052-0.049c0.022-0.012 0.049-0.017 0.079-0.017 0.029 0 0.054 0.006 0.075 0.017s0.037 0.027 0.048 0.046c0.011 0.019 0.017 0.040 0.017 0.063 0 0.018-0.003 0.034-0.010 0.049s-0.015 0.028-0.027 0.041c-0.011 0.012-0.025 0.024-0.040 0.035l-0.040 0.029 0.113 0.133c0.004-0.007 0.007-0.015 0.010-0.023 0.010-0.025 0.014-0.053 0.014-0.083h0.081c0 0.028-0.003 0.054-0.008 0.079s-0.014 0.048-0.025 0.069c-0.005 0.009-0.010 0.017-0.016 0.025l0.083 0.098h-0.109l-0.033-0.039c-0.018 0.014-0.037 0.024-0.058 0.032-0.028 0.010-0.057 0.015-0.088 0.015-0.038 0-0.070-0.007-0.098-0.021s-0.049-0.033-0.064-0.057c-0.015-0.024-0.022-0.052-0.022-0.083 0-0.023 0.005-0.044 0.014-0.061s0.023-0.034 0.039-0.049c0.015-0.014 0.033-0.028 0.053-0.042zM12.924 28.859l-0.012 0.008c-0.014 0.011-0.024 0.022-0.031 0.032s-0.011 0.020-0.013 0.028-0.003 0.016-0.003 0.023c0 0.017 0.004 0.032 0.011 0.045s0.018 0.024 0.032 0.032c0.014 0.008 0.031 0.012 0.051 0.012 0.022 0 0.043-0.005 0.063-0.015 0.010-0.005 0.020-0.011 0.029-0.018l-0.127-0.149zM12.946 28.755l0.035-0.024c0.016-0.011 0.028-0.022 0.035-0.032s0.011-0.024 0.011-0.040c0-0.014-0.005-0.026-0.016-0.038s-0.025-0.017-0.044-0.017c-0.013 0-0.024 0.003-0.034 0.009s-0.016 0.014-0.021 0.024c-0.004 0.010-0.007 0.021-0.007 0.033s0.003 0.024 0.009 0.036c0.006 0.012 0.014 0.025 0.025 0.039 0.002 0.003 0.004 0.005 0.007 0.008zM13.941 28.922h-0.098c-0.003 0.025-0.009 0.046-0.018 0.063s-0.022 0.030-0.039 0.039c-0.017 0.009-0.040 0.013-0.068 0.013-0.023 0-0.043-0.005-0.059-0.014s-0.030-0.022-0.041-0.039c-0.010-0.017-0.018-0.036-0.023-0.060s-0.007-0.049-0.007-0.078v-0.048c0-0.030 0.003-0.057 0.008-0.080s0.014-0.044 0.025-0.060 0.025-0.028 0.042-0.037c0.017-0.008 0.036-0.012 0.059-0.012 0.027 0 0.049 0.005 0.066 0.014s0.030 0.022 0.038 0.040c0.009 0.017 0.015 0.038 0.017 0.063h0.098c-0.004-0.038-0.015-0.072-0.032-0.101s-0.041-0.052-0.073-0.069-0.070-0.025-0.115-0.025c-0.036 0-0.068 0.006-0.097 0.019s-0.053 0.031-0.073 0.054c-0.020 0.024-0.036 0.052-0.047 0.085s-0.016 0.070-0.016 0.111v0.047c0 0.041 0.005 0.078 0.016 0.111s0.026 0.061 0.046 0.085c0.020 0.023 0.044 0.041 0.072 0.054s0.060 0.019 0.095 0.019c0.046 0 0.085-0.008 0.117-0.025s0.057-0.040 0.075-0.068c0.018-0.029 0.028-0.062 0.031-0.1zM14.484 28.838v-0.031c0-0.043-0.006-0.081-0.017-0.115s-0.027-0.063-0.048-0.087c-0.021-0.024-0.046-0.043-0.075-0.055s-0.061-0.019-0.096-0.019c-0.035 0-0.067 0.006-0.096 0.019s-0.054 0.031-0.075 0.055c-0.021 0.024-0.037 0.053-0.048 0.087s-0.017 0.072-0.017 0.115v0.031c0 0.043 0.006 0.082 0.017 0.116s0.028 0.063 0.049 0.087c0.021 0.024 0.046 0.042 0.075 0.055s0.061 0.019 0.096 0.019c0.035 0 0.067-0.006 0.096-0.019s0.054-0.031 0.074-0.055c0.021-0.024 0.037-0.053 0.048-0.087s0.017-0.073 0.017-0.116zM14.386 28.806v0.032c0 0.032-0.003 0.060-0.009 0.084s-0.015 0.045-0.027 0.062c-0.012 0.017-0.026 0.029-0.043 0.038s-0.036 0.012-0.058 0.012c-0.022 0-0.041-0.004-0.058-0.012s-0.032-0.021-0.044-0.038c-0.012-0.017-0.021-0.038-0.027-0.062s-0.009-0.053-0.009-0.084v-0.032c0-0.032 0.003-0.060 0.009-0.084s0.015-0.045 0.027-0.061c0.012-0.017 0.026-0.029 0.043-0.037s0.036-0.013 0.058-0.013 0.041 0.004 0.058 0.013c0.017 0.008 0.032 0.021 0.043 0.037s0.021 0.037 0.027 0.061c0.006 0.024 0.009 0.052 0.009 0.084z"></path>
<path fill="#8e8f99" d="M43.858 21.43h-0.022c-0.034-0.002-0.067-0.003-0.101-0.004v0h-0.073c-0.064 0-0.128 0.002-0.193 0.005-0.005-0-0.010-0-0.015 0-0.583 0.033-1.154 0.179-1.683 0.429l-0.069 0.033v3.543l0.162-0.055c0.142-0.049 0.293-0.093 0.45-0.133 0.423-0.109 0.858-0.166 1.295-0.172v0.465c-0.058 0-0.114 0.002-0.17 0.005h-0.013c-0.336 0.018-0.67 0.070-0.996 0.153-0.413 0.104-0.812 0.259-1.187 0.463v-4.544c0.389-0.227 0.808-0.398 1.245-0.507 0.384-0.099 0.778-0.15 1.174-0.151h0.068c0.082 0.002 0.162 0.006 0.236 0.011 0.197 0.014 0.393 0.045 0.585 0.093v0.458c-0.186-0.043-0.376-0.072-0.567-0.085-0.004-0-0.008-0.001-0.012-0.001-0.040-0.003-0.079-0.007-0.116-0.007zM44.664 21.898c0.102 0.008 0.207 0.012 0.313 0.012 0.416-0.002 0.831-0.055 1.234-0.158 0.413-0.104 0.812-0.259 1.187-0.463v4.462c-0.389 0.227-0.809 0.397-1.246 0.507-0.384 0.099-0.778 0.149-1.174 0.151-0.3 0.002-0.599-0.033-0.89-0.105v-4.491c0.069 0.016 0.14 0.031 0.212 0.043 0.118 0.020 0.243 0.035 0.364 0.044zM46.936 21.932l-0.162 0.054c-0.149 0.050-0.299 0.095-0.45 0.135-0.44 0.113-0.891 0.171-1.345 0.172-0.106 0-0.203-0.003-0.297-0.009l-0.129-0.008v3.644l0.111 0.010c0.103 0.009 0.209 0.013 0.316 0.013 0.357-0.002 0.713-0.048 1.059-0.137 0.285-0.072 0.562-0.171 0.828-0.297l0.069-0.033v-3.544z"></path>
<path fill="#8e8f99" d="M41.558 27.714c-0.023-0.024-0.051-0.043-0.082-0.056s-0.064-0.018-0.098-0.017c-0.036-0-0.071 0.006-0.104 0.020-0.030 0.012-0.058 0.030-0.081 0.053s-0.041 0.051-0.052 0.081c-0.013 0.032-0.019 0.066-0.019 0.1v0.607c-0.001 0.043 0.007 0.085 0.024 0.124 0.014 0.031 0.035 0.059 0.061 0.081 0.024 0.020 0.053 0.035 0.083 0.043s0.060 0.013 0.091 0.013c0.034 0 0.067-0.007 0.098-0.021s0.058-0.032 0.081-0.056c0.023-0.024 0.041-0.051 0.053-0.081s0.020-0.064 0.019-0.097v-0.068h-0.159v0.054c0 0.018-0.003 0.037-0.009 0.054-0.005 0.013-0.013 0.025-0.023 0.034-0.010 0.008-0.021 0.014-0.033 0.017-0.011 0.004-0.022 0.005-0.033 0.006-0.014 0.002-0.028-0.001-0.042-0.006s-0.024-0.015-0.033-0.026c-0.015-0.024-0.022-0.053-0.021-0.081v-0.566c-0.001-0.031 0.006-0.063 0.020-0.091 0.008-0.013 0.020-0.023 0.034-0.029s0.029-0.009 0.044-0.007c0.014-0 0.027 0.002 0.040 0.008s0.023 0.015 0.031 0.026c0.018 0.023 0.027 0.052 0.026 0.081v0.052h0.157v-0.062c0-0.036-0.006-0.072-0.019-0.106-0.012-0.032-0.030-0.061-0.053-0.085z"></path>
<path fill="#8e8f99" d="M42.501 27.707c-0.051-0.043-0.114-0.066-0.18-0.067-0.032 0-0.064 0.006-0.095 0.017s-0.059 0.028-0.084 0.050c-0.026 0.024-0.047 0.053-0.061 0.085-0.016 0.037-0.024 0.077-0.023 0.117v0.582c-0.001 0.041 0.007 0.082 0.023 0.119 0.014 0.031 0.035 0.059 0.061 0.081 0.024 0.023 0.053 0.040 0.084 0.051s0.062 0.017 0.095 0.017c0.032 0 0.064-0.006 0.095-0.017 0.032-0.011 0.061-0.029 0.086-0.051s0.046-0.050 0.060-0.081c0.016-0.037 0.024-0.078 0.023-0.119v-0.582c0.001-0.040-0.007-0.080-0.023-0.117-0.014-0.032-0.034-0.061-0.060-0.085zM42.427 28.492c0.001 0.016-0.001 0.031-0.006 0.046s-0.014 0.028-0.025 0.039c-0.021 0.018-0.047 0.027-0.075 0.027s-0.054-0.010-0.075-0.027c-0.011-0.011-0.020-0.024-0.025-0.039s-0.008-0.030-0.006-0.046v-0.582c-0.001-0.016 0.001-0.031 0.006-0.046s0.014-0.028 0.025-0.039c0.021-0.018 0.047-0.027 0.075-0.027s0.054 0.010 0.075 0.027c0.011 0.011 0.020 0.024 0.025 0.039s0.008 0.030 0.006 0.046v0.582z"></path>
<path fill="#8e8f99" d="M43.739 28.752v-1.102h-0.152l-0.2 0.583h-0.003l-0.202-0.583h-0.151v1.102h0.157v-0.67h0.003l0.154 0.474h0.079l0.156-0.474h0.003v0.67h0.157z"></path>
<path fill="#8e8f99" d="M44.633 27.727c-0.024-0.027-0.055-0.048-0.089-0.060-0.037-0.012-0.076-0.018-0.114-0.017h-0.234v1.102h0.157v-0.43h0.081c0.049 0.002 0.098-0.008 0.142-0.030 0.036-0.020 0.065-0.049 0.086-0.084 0.018-0.029 0.030-0.062 0.036-0.096 0.006-0.041 0.009-0.083 0.008-0.125 0.001-0.053-0.004-0.106-0.015-0.157-0.011-0.038-0.030-0.073-0.058-0.101zM44.552 28.063c-0.001 0.020-0.006 0.040-0.015 0.057s-0.023 0.030-0.040 0.039c-0.023 0.010-0.049 0.015-0.074 0.014h-0.072v-0.375h0.081c0.024-0.001 0.049 0.004 0.071 0.014 0.016 0.009 0.029 0.024 0.037 0.041 0.009 0.019 0.013 0.040 0.014 0.061 0 0.023 0 0.048 0 0.073s0.002 0.052 0 0.076h-0.002z"></path>
<path fill="#8e8f99" d="M45.377 27.65h-0.129l-0.243 1.102h0.157l0.046-0.237h0.214l0.046 0.237h0.157l-0.249-1.102zM45.232 28.365l0.077-0.4h0.003l0.077 0.4h-0.157z"></path>
<path fill="#8e8f99" d="M46.392 28.314h-0.003l-0.237-0.664h-0.151v1.102h0.157v-0.663h0.003l0.24 0.663h0.148v-1.102h-0.157v0.664z"></path>
<path fill="#8e8f99" d="M47.352 27.65l-0.126 0.438h-0.003l-0.126-0.438h-0.166l0.216 0.636v0.466h0.157v-0.466l0.216-0.636h-0.166z"></path>
<path fill="#8e8f99" d="M41.12 29.063h0.076v0.212h0.051v-0.212h0.075v-0.044h-0.202v0.044z"></path>
<path fill="#8e8f99" d="M41.756 29.020l-0.099 0.256h0.055l0.021-0.058h0.102l0.022 0.058h0.056l-0.102-0.256h-0.055zM41.748 29.174l0.035-0.095 0.035 0.095h-0.070z"></path>
<path fill="#8e8f99" d="M42.385 29.181h0.059v0.033c-0.017 0.014-0.039 0.021-0.061 0.022-0.010 0-0.021-0.001-0.030-0.006s-0.018-0.011-0.024-0.019c-0.014-0.019-0.020-0.043-0.019-0.067 0-0.057 0.025-0.085 0.074-0.085 0.013-0.001 0.026 0.002 0.036 0.010s0.018 0.019 0.021 0.031l0.051-0.010c-0.011-0.050-0.047-0.075-0.108-0.075-0.033-0.001-0.065 0.011-0.089 0.033-0.013 0.013-0.023 0.028-0.029 0.045s-0.009 0.035-0.008 0.053c-0.001 0.035 0.010 0.069 0.033 0.096 0.012 0.013 0.028 0.023 0.044 0.029s0.035 0.009 0.053 0.008c0.040 0.001 0.079-0.014 0.108-0.041v-0.101h-0.111v0.043z"></path>
<path fill="#8e8f99" d="M43.028 29.020h-0.052v0.256h0.179v-0.044h-0.127v-0.212z"></path>
<path fill="#8e8f99" d="M43.571 29.020h-0.052v0.256h0.052v-0.256z"></path>
<path fill="#8e8f99" d="M44.102 29.19l-0.105-0.171h-0.050v0.256h0.048v-0.167l0.103 0.167h0.051v-0.256h-0.047v0.171z"></path>
<path fill="#8e8f99" d="M44.582 29.163h0.128v-0.044h-0.128v-0.056h0.137v-0.044h-0.189v0.256h0.194v-0.044h-0.142v-0.069z"></path>
<path fill="#8e8f99" d="M45.746 29.12h-0.101v-0.101h-0.051v0.256h0.051v-0.112h0.101v0.112h0.052v-0.256h-0.052v0.101z"></path>
<path fill="#8e8f99" d="M46.229 29.163h0.128v-0.044h-0.128v-0.056h0.138v-0.044h-0.189v0.256h0.194v-0.044h-0.143v-0.069z"></path>
<path fill="#8e8f99" d="M46.884 29.163c0.045-0.007 0.067-0.031 0.067-0.071 0.001-0.011-0-0.022-0.005-0.032s-0.011-0.019-0.020-0.025c-0.023-0.012-0.049-0.017-0.075-0.015h-0.108v0.256h0.052v-0.107h0.010c0.011-0.001 0.022 0.001 0.032 0.006 0.008 0.005 0.014 0.011 0.018 0.019l0.056 0.081h0.061l-0.031-0.050c-0.014-0.025-0.033-0.046-0.057-0.061zM46.832 29.127h-0.038v-0.064h0.040c0.018-0.001 0.035 0.001 0.052 0.006 0.004 0.003 0.007 0.007 0.009 0.012s0.003 0.010 0.003 0.015c-0 0.005-0.002 0.010-0.004 0.014s-0.006 0.008-0.010 0.011c-0.017 0.005-0.035 0.007-0.052 0.006z"></path>
<path fill="#8e8f99" d="M47.378 29.163h0.127v-0.044h-0.127v-0.056h0.138v-0.044h-0.189v0.256h0.194v-0.044h-0.142v-0.069z"></path>
<path fill="#8e8f99" d="M72.45 28.356c0.003 0 0.005 0.001 0.007 0.001s0.004 0.002 0.006 0.004l0.035 0.033c-0.027 0.027-0.061 0.048-0.099 0.063-0.044 0.016-0.092 0.024-0.141 0.023-0.045 0.001-0.091-0.006-0.133-0.021-0.038-0.013-0.072-0.034-0.1-0.060s-0.050-0.058-0.064-0.092c-0.016-0.038-0.023-0.078-0.023-0.118-0.001-0.040 0.008-0.081 0.024-0.119 0.015-0.034 0.039-0.066 0.068-0.092s0.066-0.046 0.106-0.060c0.044-0.014 0.090-0.021 0.136-0.021 0.043-0.001 0.086 0.006 0.127 0.019 0.035 0.013 0.067 0.031 0.095 0.053l-0.030 0.036c-0.002 0.003-0.005 0.005-0.008 0.006s-0.008 0.003-0.012 0.003c-0.004-0-0.009-0.002-0.013-0.004l-0.016-0.009-0.022-0.012c-0.010-0.005-0.020-0.008-0.030-0.012-0.013-0.004-0.027-0.007-0.040-0.009-0.017-0.003-0.035-0.004-0.053-0.004-0.034-0-0.067 0.005-0.098 0.016-0.029 0.010-0.055 0.025-0.077 0.044-0.022 0.021-0.039 0.045-0.050 0.071-0.012 0.030-0.019 0.062-0.018 0.094s0.006 0.064 0.018 0.095c0.011 0.026 0.028 0.050 0.049 0.071 0.020 0.019 0.045 0.034 0.073 0.044s0.060 0.015 0.091 0.015c0.018 0 0.036-0.001 0.054-0.003 0.029-0.003 0.057-0.012 0.082-0.025 0.012-0.007 0.024-0.015 0.035-0.023 0.004-0.004 0.011-0.006 0.017-0.006z"></path>
<path fill="#8e8f99" d="M73.47 28.189c0.001 0.040-0.008 0.080-0.024 0.117-0.014 0.034-0.037 0.065-0.067 0.091s-0.065 0.046-0.104 0.060c-0.087 0.028-0.182 0.028-0.268 0-0.039-0.014-0.075-0.034-0.104-0.060s-0.052-0.058-0.067-0.092c-0.032-0.076-0.032-0.159 0-0.235 0.015-0.034 0.038-0.066 0.067-0.092 0.030-0.025 0.065-0.045 0.104-0.058 0.086-0.029 0.182-0.029 0.268 0 0.039 0.014 0.075 0.034 0.104 0.060s0.052 0.057 0.067 0.091c0.016 0.038 0.024 0.078 0.024 0.118zM73.377 28.189c0.001-0.032-0.005-0.064-0.017-0.094-0.010-0.026-0.026-0.050-0.047-0.071s-0.046-0.035-0.075-0.045c-0.063-0.021-0.132-0.021-0.195 0-0.028 0.010-0.054 0.025-0.075 0.045s-0.038 0.044-0.048 0.071c-0.022 0.061-0.022 0.127 0 0.189 0.010 0.026 0.026 0.050 0.048 0.071 0.021 0.019 0.046 0.034 0.075 0.044 0.063 0.020 0.132 0.020 0.195 0 0.028-0.010 0.054-0.025 0.075-0.044 0.021-0.020 0.037-0.044 0.047-0.071 0.012-0.030 0.017-0.062 0.017-0.094z"></path>
<path fill="#8e8f99" d="M74.166 28.288l0.009 0.021c0.004-0.008 0.007-0.014 0.010-0.021s0.007-0.014 0.012-0.021l0.226-0.351c0.004-0.006 0.008-0.010 0.013-0.011 0.006-0.002 0.012-0.002 0.019-0.002h0.067v0.57h-0.079v-0.419c0-0.005 0-0.011 0-0.018s-0-0.013 0-0.020l-0.227 0.355c-0.003 0.005-0.008 0.010-0.013 0.013s-0.012 0.005-0.019 0.005h-0.013c-0.007 0-0.014-0.002-0.020-0.005s-0.010-0.008-0.013-0.013l-0.234-0.358c0 0.007 0 0.014 0 0.020s0 0.013 0 0.018v0.419h-0.076v-0.569h0.067c0.006-0 0.012 0 0.019 0.002s0.010 0.006 0.012 0.011l0.231 0.351c0.004 0.007 0.008 0.013 0.011 0.020z"></path>
<path fill="#8e8f99" d="M75.015 28.26v0.213h-0.088v-0.569h0.197c0.037-0.001 0.074 0.004 0.11 0.012 0.029 0.007 0.055 0.019 0.078 0.035 0.020 0.016 0.035 0.035 0.044 0.056 0.010 0.023 0.016 0.048 0.015 0.073s-0.005 0.050-0.016 0.073c-0.011 0.022-0.027 0.041-0.048 0.057-0.023 0.017-0.049 0.030-0.078 0.038-0.034 0.009-0.070 0.014-0.106 0.013l-0.107-0.001zM75.015 28.198h0.107c0.023 0 0.046-0.003 0.068-0.009 0.018-0.005 0.035-0.014 0.049-0.024 0.013-0.010 0.024-0.023 0.030-0.038 0.007-0.015 0.011-0.032 0.011-0.048 0.001-0.016-0.002-0.032-0.009-0.046s-0.017-0.028-0.031-0.039c-0.034-0.023-0.076-0.033-0.119-0.031h-0.107v0.235z"></path>
<path fill="#8e8f99" d="M76.202 28.474h-0.070c-0.007 0-0.014-0.002-0.019-0.005s-0.009-0.008-0.012-0.013l-0.060-0.138h-0.302l-0.062 0.138c-0.002 0.005-0.006 0.009-0.011 0.013s-0.013 0.006-0.020 0.006h-0.070l0.265-0.57h0.092l0.268 0.57zM75.765 28.262h0.249l-0.105-0.232c-0.008-0.018-0.015-0.035-0.020-0.054l-0.010 0.030c-0.003 0.009-0.007 0.017-0.010 0.024l-0.104 0.232z"></path>
<path fill="#8e8f99" d="M76.584 27.906c0.005 0.003 0.010 0.006 0.013 0.010l0.387 0.43c0-0.007 0-0.014 0-0.020s0-0.013 0-0.019v-0.404h0.079v0.57h-0.044c-0.006 0-0.012-0.001-0.018-0.003s-0.010-0.006-0.014-0.011l-0.386-0.429c0 0.007 0 0.013 0 0.020s0 0.012 0 0.017v0.406h-0.079v-0.57h0.047c0.005-0 0.011 0.001 0.016 0.003z"></path>
<path fill="#8e8f99" d="M77.714 28.247v0.226h-0.088v-0.226l-0.244-0.343h0.079c0.007-0 0.014 0.001 0.019 0.005s0.009 0.008 0.012 0.013l0.153 0.222c0.006 0.009 0.012 0.018 0.016 0.026s0.008 0.016 0.011 0.024l0.011-0.024c0.004-0.009 0.009-0.018 0.015-0.026l0.151-0.223c0.003-0.004 0.007-0.008 0.011-0.012s0.012-0.006 0.019-0.006h0.080l-0.245 0.345z"></path>
<path fill="#8e8f99" d="M74.122 26.947c0.038 0.004 0.077 0.008 0.117 0.011 0.596-0.228 1.1-0.6 1.449-1.072s0.528-1.020 0.515-1.578l-0.657-0.561c0.133 0.594 0.071 1.208-0.18 1.773s-0.682 1.059-1.244 1.427z"></path>
<path fill="#8e8f99" d="M73.888 26.921l0.018 0.003c0.6-0.367 1.057-0.879 1.313-1.47s0.298-1.234 0.121-1.846l-0.935-0.799c0.378 0.657 0.531 1.392 0.439 2.12s-0.423 1.419-0.956 1.992z"></path>
<path fill="#8e8f99" d="M77.060 24.967c-0.159 0.613-0.545 1.165-1.101 1.576-0.162 0.12-0.337 0.228-0.523 0.321 0.452-0.114 0.868-0.315 1.216-0.587s0.617-0.61 0.787-0.986l-0.379-0.324z"></path>
<path fill="#8e8f99" d="M76.911 24.876l-0.54-0.461c-0.010 0.526-0.185 1.040-0.507 1.489s-0.778 0.816-1.322 1.063h0.003c0.121 0 0.242-0.006 0.363-0.018 0.508-0.177 0.957-0.459 1.307-0.821s0.589-0.792 0.697-1.251z"></path>
<path fill="#8e8f99" d="M73.966 22.471l-0.644-0.551c-0.576 0.19-1.072 0.524-1.421 0.959s-0.538 0.95-0.54 1.477v0c0.002 0.583 0.232 1.149 0.653 1.608s1.009 0.785 1.671 0.926c0.591-0.615 0.937-1.376 0.988-2.17s-0.196-1.583-0.706-2.249z"></path>
<path fill="#8e8f99" d="M78.4 24.792c-0.002-0.692-0.325-1.355-0.897-1.844s-1.348-0.765-2.158-0.767c-0.374-0-0.745 0.059-1.094 0.174l3.945 3.371c0.135-0.298 0.204-0.615 0.204-0.934z"></path>
<path fill="#8e8f99" d="M101.132 23.923h-0c-0.382 0-0.691 0.279-0.691 0.623v0c0 0.344 0.309 0.623 0.691 0.623h0c0.382 0 0.691-0.279 0.691-0.623v-0c0-0.344-0.309-0.623-0.691-0.623z"></path>
<path fill="#8e8f99" d="M106.234 23.724c-0.001-0.478-0.212-0.936-0.587-1.274s-0.883-0.528-1.413-0.529v0c-0.53 0.001-1.039 0.191-1.414 0.529s-0.586 0.796-0.587 1.274v2.636c0 0 4.001-0.402 4.001-2.635v-0z"></path>
<path fill="#8e8f99" d="M99.040 27.225c0.001 0.333 0.148 0.651 0.409 0.887s0.614 0.368 0.983 0.369c0.369-0.001 0.722-0.133 0.983-0.369s0.408-0.554 0.409-0.886v-1.834c0 0-2.784 0.28-2.784 1.834zM100.432 27.553c-0.072 0-0.143-0.019-0.203-0.055s-0.107-0.087-0.134-0.148c-0.028-0.060-0.035-0.126-0.021-0.19s0.049-0.122 0.1-0.168c0.051-0.046 0.116-0.077 0.187-0.090s0.144-0.006 0.211 0.019c0.067 0.025 0.124 0.067 0.164 0.121s0.061 0.118 0.061 0.183c0 0.043-0.009 0.086-0.027 0.126s-0.045 0.076-0.079 0.107c-0.034 0.031-0.074 0.055-0.118 0.072s-0.092 0.025-0.14 0.025v-0.001z"></path>
<path fill="#8e8f99" d="M102.977 26.962v0.683h-0.141v-0.683h0.141zM103.249 27.254v0.11h-0.31v-0.11h0.31zM103.282 26.962v0.11h-0.343v-0.11h0.343zM103.924 27.288v0.032c0 0.052-0.007 0.099-0.021 0.14s-0.034 0.076-0.060 0.106c-0.026 0.029-0.056 0.051-0.092 0.066s-0.075 0.023-0.118 0.023c-0.043 0-0.082-0.008-0.118-0.023s-0.066-0.037-0.092-0.066c-0.026-0.029-0.046-0.064-0.060-0.106s-0.021-0.088-0.021-0.14v-0.032c0-0.052 0.007-0.099 0.021-0.14s0.034-0.076 0.060-0.105c0.026-0.029 0.056-0.051 0.092-0.067s0.075-0.023 0.118-0.023c0.043 0 0.082 0.008 0.118 0.023s0.066 0.037 0.092 0.067c0.026 0.029 0.046 0.064 0.060 0.105s0.022 0.088 0.022 0.14zM103.782 27.32v-0.033c0-0.036-0.003-0.068-0.010-0.096s-0.016-0.051-0.029-0.069c-0.013-0.019-0.028-0.033-0.047-0.042s-0.040-0.014-0.063-0.014c-0.024 0-0.045 0.005-0.063 0.014s-0.034 0.024-0.046 0.042c-0.012 0.019-0.022 0.042-0.029 0.069s-0.010 0.059-0.010 0.096v0.033c0 0.036 0.003 0.068 0.010 0.096s0.016 0.051 0.029 0.070c0.013 0.019 0.028 0.033 0.047 0.043s0.040 0.015 0.063 0.015c0.024 0 0.045-0.005 0.063-0.015s0.034-0.024 0.046-0.043c0.012-0.019 0.022-0.042 0.029-0.070s0.010-0.060 0.010-0.096zM104.381 27.466c0-0.012-0.002-0.023-0.006-0.033s-0.010-0.019-0.020-0.027c-0.010-0.008-0.023-0.017-0.041-0.025s-0.040-0.016-0.068-0.025c-0.031-0.010-0.060-0.021-0.088-0.034s-0.052-0.027-0.073-0.044c-0.021-0.017-0.038-0.036-0.050-0.059s-0.018-0.048-0.018-0.077c0-0.028 0.006-0.054 0.019-0.077s0.030-0.044 0.052-0.060c0.023-0.017 0.049-0.030 0.080-0.039s0.065-0.014 0.102-0.014c0.050 0 0.094 0.009 0.132 0.027s0.067 0.043 0.087 0.075c0.021 0.032 0.031 0.068 0.031 0.108h-0.14c0-0.020-0.004-0.037-0.013-0.052s-0.021-0.027-0.037-0.036c-0.017-0.009-0.038-0.013-0.063-0.013s-0.045 0.004-0.061 0.011c-0.016 0.007-0.028 0.017-0.036 0.030s-0.012 0.026-0.012 0.041c0 0.012 0.003 0.022 0.008 0.031s0.015 0.018 0.026 0.026c0.012 0.008 0.026 0.016 0.043 0.023s0.036 0.014 0.059 0.021c0.037 0.011 0.070 0.024 0.098 0.038s0.052 0.030 0.071 0.047c0.019 0.017 0.033 0.037 0.043 0.060s0.015 0.047 0.015 0.076c0 0.030-0.006 0.056-0.017 0.080s-0.028 0.043-0.050 0.060c-0.022 0.016-0.048 0.028-0.078 0.037s-0.064 0.013-0.102 0.013c-0.034 0-0.067-0.004-0.1-0.013s-0.063-0.023-0.089-0.041c-0.027-0.018-0.048-0.041-0.064-0.069s-0.024-0.061-0.024-0.1h0.141c0 0.021 0.003 0.039 0.010 0.054s0.016 0.027 0.028 0.036c0.012 0.009 0.027 0.016 0.043 0.020s0.035 0.006 0.055 0.006c0.024 0 0.044-0.003 0.060-0.010s0.028-0.016 0.035-0.029c0.008-0.012 0.012-0.026 0.012-0.041zM104.922 26.962v0.683h-0.14v-0.683h0.14zM105.132 26.962v0.11h-0.557v-0.11h0.557zM105.67 27.535v0.11h-0.363v-0.11h0.363zM105.353 26.962v0.683h-0.141v-0.683h0.141zM105.623 27.24v0.107h-0.316v-0.107h0.316zM105.67 26.962v0.11h-0.363v-0.11h0.363zM105.752 26.962h0.254c0.052 0 0.097 0.008 0.135 0.023s0.067 0.039 0.087 0.069 0.031 0.068 0.031 0.113c0 0.037-0.006 0.068-0.019 0.094s-0.029 0.048-0.052 0.065c-0.022 0.017-0.048 0.031-0.078 0.041l-0.044 0.024h-0.221l-0.001-0.11h0.164c0.025 0 0.045-0.004 0.061-0.013s0.028-0.021 0.037-0.037c0.008-0.016 0.013-0.034 0.013-0.054 0-0.022-0.004-0.041-0.012-0.057s-0.020-0.028-0.037-0.036c-0.016-0.008-0.037-0.013-0.062-0.013h-0.114v0.572h-0.141v-0.683zM106.134 27.645l-0.156-0.304 0.148-0.001 0.158 0.299v0.007h-0.151zM106.872 27.402h-0.174v-0.11h0.174c0.027 0 0.049-0.004 0.066-0.013s0.029-0.022 0.037-0.038c0.008-0.016 0.012-0.034 0.012-0.054s-0.004-0.039-0.012-0.057c-0.008-0.018-0.020-0.032-0.037-0.042s-0.039-0.016-0.066-0.016h-0.125v0.572h-0.14v-0.683h0.266c0.053 0 0.099 0.010 0.137 0.029s0.068 0.045 0.088 0.079 0.030 0.072 0.030 0.116c0 0.044-0.010 0.082-0.030 0.114s-0.050 0.057-0.088 0.075c-0.038 0.017-0.084 0.026-0.137 0.026zM107.683 27.535v0.11h-0.363v-0.11h0.363zM107.366 26.962v0.683h-0.141v-0.683h0.141zM107.636 27.24v0.107h-0.316v-0.107h0.316zM107.683 26.962v0.11h-0.363v-0.11h0.363zM108.080 26.962v0.683h-0.14v-0.683h0.14zM108.29 26.962v0.11h-0.557v-0.11h0.557zM108.828 27.535v0.11h-0.363v-0.11h0.363zM108.511 26.962v0.683h-0.141v-0.683h0.141zM108.78 27.24v0.107h-0.316v-0.107h0.316zM108.827 26.962v0.11h-0.363v-0.11h0.363zM108.91 26.962h0.255c0.052 0 0.097 0.008 0.135 0.023s0.067 0.039 0.087 0.069 0.030 0.068 0.030 0.113c0 0.037-0.006 0.068-0.019 0.094s-0.030 0.048-0.052 0.065c-0.022 0.017-0.048 0.031-0.078 0.041l-0.044 0.024h-0.221l-0.001-0.11h0.165c0.025 0 0.045-0.004 0.061-0.013s0.028-0.021 0.037-0.037c0.008-0.016 0.013-0.034 0.013-0.054 0-0.022-0.004-0.041-0.012-0.057s-0.020-0.028-0.037-0.036c-0.016-0.008-0.037-0.013-0.062-0.013h-0.114v0.572h-0.141v-0.683zM109.292 27.645l-0.156-0.304 0.149-0.001 0.157 0.299v0.007h-0.15zM109.88 27.466c0-0.012-0.002-0.023-0.006-0.033s-0.010-0.019-0.020-0.027c-0.010-0.008-0.023-0.017-0.041-0.025s-0.040-0.016-0.068-0.025c-0.031-0.010-0.060-0.021-0.088-0.034s-0.052-0.027-0.073-0.044c-0.021-0.017-0.038-0.036-0.050-0.059s-0.018-0.048-0.018-0.077c0-0.028 0.006-0.054 0.019-0.077s0.030-0.044 0.052-0.060c0.023-0.017 0.049-0.030 0.080-0.039s0.065-0.014 0.102-0.014c0.050 0 0.094 0.009 0.132 0.027s0.067 0.043 0.087 0.075c0.021 0.032 0.031 0.068 0.031 0.108h-0.14c0-0.020-0.004-0.037-0.013-0.052s-0.021-0.027-0.037-0.036c-0.017-0.009-0.037-0.013-0.063-0.013-0.024 0-0.045 0.004-0.061 0.011s-0.028 0.017-0.036 0.030c-0.008 0.012-0.012 0.026-0.012 0.041 0 0.012 0.003 0.022 0.008 0.031s0.015 0.018 0.026 0.026c0.012 0.008 0.026 0.016 0.043 0.023s0.036 0.014 0.059 0.021c0.037 0.011 0.070 0.024 0.098 0.038s0.052 0.030 0.071 0.047c0.019 0.017 0.033 0.037 0.043 0.060s0.014 0.047 0.014 0.076c0 0.030-0.006 0.056-0.017 0.080s-0.028 0.043-0.050 0.060c-0.022 0.016-0.048 0.028-0.078 0.037s-0.064 0.013-0.102 0.013c-0.034 0-0.067-0.004-0.1-0.013s-0.063-0.023-0.089-0.041c-0.027-0.018-0.048-0.041-0.064-0.069s-0.024-0.061-0.024-0.1h0.141c0 0.021 0.003 0.039 0.010 0.054s0.016 0.027 0.028 0.036c0.012 0.009 0.027 0.016 0.043 0.020s0.035 0.006 0.055 0.006c0.024 0 0.044-0.003 0.060-0.010s0.028-0.016 0.035-0.029c0.008-0.012 0.012-0.026 0.012-0.041z"></path>
<path fill="#8e8f99" d="M132.287 27.58c0.039 0.044 0.060 0.099 0.059 0.155 0.002 0.037-0.005 0.073-0.021 0.107s-0.040 0.064-0.071 0.088c-0.076 0.052-0.171 0.077-0.266 0.071h-0.468v-0.981h0.458c0.091-0.005 0.18 0.018 0.254 0.065 0.030 0.022 0.053 0.051 0.068 0.082s0.023 0.067 0.020 0.101c0.003 0.054-0.016 0.107-0.053 0.15-0.036 0.039-0.085 0.066-0.139 0.077 0.062 0.010 0.118 0.040 0.158 0.084zM131.738 27.432h0.196c0.044 0.003 0.089-0.008 0.124-0.032 0.015-0.012 0.026-0.027 0.033-0.044s0.010-0.035 0.009-0.052c0.001-0.018-0.002-0.036-0.009-0.052s-0.018-0.032-0.033-0.044c-0.037-0.025-0.083-0.036-0.128-0.033h-0.193v0.257zM132.077 27.808c0.016-0.012 0.028-0.028 0.036-0.045s0.012-0.036 0.010-0.055c0.001-0.019-0.003-0.038-0.011-0.055s-0.021-0.033-0.037-0.045c-0.038-0.026-0.085-0.038-0.133-0.036h-0.206v0.27h0.208c0.047 0.002 0.093-0.010 0.132-0.034z"></path>
<path fill="#8e8f99" d="M133.224 28.001l-0.255-0.383h-0.096v0.383h-0.219v-0.981h0.415c0.105-0.007 0.208 0.023 0.289 0.083 0.058 0.053 0.093 0.124 0.099 0.198s-0.018 0.148-0.068 0.208c-0.051 0.053-0.121 0.088-0.198 0.1l0.272 0.392h-0.238zM132.873 27.484h0.179c0.125 0 0.187-0.050 0.187-0.149 0.001-0.020-0.002-0.040-0.010-0.059s-0.020-0.036-0.036-0.051c-0.039-0.029-0.090-0.044-0.141-0.040h-0.182l0.002 0.299z"></path>
<path fill="#8e8f99" d="M134.423 27.804h-0.437l-0.077 0.197h-0.23l0.402-0.97h0.249l0.4 0.97h-0.23l-0.076-0.197zM134.364 27.655l-0.16-0.414-0.16 0.414h0.32z"></path>
<path fill="#8e8f99" d="M135.924 28.001h-0.218l-0.488-0.667v0.667h-0.217v-0.981h0.217l0.488 0.671v-0.671h0.218v0.981z"></path>
<path fill="#8e8f99" d="M137.166 27.767c-0.045 0.074-0.114 0.134-0.197 0.173-0.095 0.043-0.2 0.064-0.306 0.062h-0.388v-0.981h0.388c0.106-0.003 0.211 0.018 0.306 0.060 0.083 0.038 0.152 0.098 0.197 0.171 0.045 0.080 0.068 0.168 0.068 0.257s-0.023 0.178-0.068 0.257zM136.917 27.743c0.062-0.065 0.096-0.148 0.096-0.234s-0.034-0.169-0.096-0.234c-0.075-0.059-0.173-0.089-0.273-0.084h-0.151v0.635h0.151c0.1 0.006 0.197-0.024 0.273-0.083z"></path>
<path fill="#8e8f99" d="M134.559 21.563c0 0 2.811 0.955 2.751 2.338v2.338c0 0-2.809-0.956-2.75-2.338l-0.001-2.338z"></path>
<path fill="#8e8f99" d="M139.814 25.691c0.531-0.329 1.145-0.532 1.786-0.592v-0.732c-0.739 0.256-1.365 0.721-1.786 1.324z"></path>
<path fill="#8e8f99" d="M139.495 25.912c0.434-0.788 1.188-1.395 2.105-1.698v-2.109c0 0-4.003 1.361-3.918 3.329v3.329c0 0 0.178-0.061 0.459-0.175 0-0.106 0-0.214 0.013-0.322 0.083-0.914 0.565-1.761 1.342-2.354z"></path>
<path fill="#8e8f99" d="M139.115 27.148c0.021-0.231 0.068-0.459 0.14-0.682-0.483 0.513-0.776 1.149-0.837 1.819-0.006 0.063-0.009 0.127-0.011 0.192 0.227-0.098 0.492-0.221 0.77-0.365-0.071-0.317-0.092-0.641-0.062-0.964z"></path>
<path fill="#8e8f99" d="M139.274 27.16c-0.027 0.292-0.010 0.585 0.050 0.873 1.094-0.589 2.322-1.499 2.275-2.599v-0.096c-0.781 0.079-1.512 0.386-2.081 0.875-0.133 0.303-0.215 0.622-0.244 0.947z"></path>
<path fill="#8e8f99" d="M167.285 24.871c-0.070-0.095-0.106-0.206-0.098-0.319v-0.462c0-0.142 0.032-0.249 0.098-0.323 0.064-0.074 0.174-0.11 0.331-0.11 0.147 0 0.251 0.031 0.312 0.094 0.067 0.080 0.101 0.178 0.093 0.276v0.109h-0.262v-0.11c0-0.036-0.002-0.072-0.008-0.108-0.003-0.024-0.018-0.047-0.037-0.064-0.027-0.018-0.062-0.027-0.096-0.025-0.037-0.002-0.072 0.007-0.101 0.026-0.022 0.019-0.038 0.044-0.043 0.071-0.008 0.038-0.011 0.076-0.010 0.114v0.561c-0.005 0.054 0.006 0.108 0.034 0.157 0.013 0.017 0.030 0.030 0.053 0.038 0.021 0.008 0.045 0.011 0.067 0.009 0.034 0.002 0.067-0.007 0.093-0.025 0.022-0.018 0.035-0.042 0.040-0.068 0.006-0.037 0.008-0.075 0.008-0.112v-0.114h0.262v0.104c0.008 0.103-0.024 0.205-0.091 0.291-0.059 0.069-0.163 0.103-0.314 0.103-0.152 0-0.267-0.037-0.331-0.113z"></path>
<path fill="#8e8f99" d="M168.381 24.876c-0.067-0.072-0.101-0.177-0.101-0.316v-0.486c0-0.137 0.034-0.241 0.101-0.312 0.066-0.070 0.178-0.106 0.333-0.105s0.266 0.035 0.331 0.105c0.067 0.071 0.101 0.174 0.101 0.312v0.486c0 0.137-0.034 0.243-0.101 0.315-0.069 0.072-0.178 0.108-0.331 0.108s-0.266-0.037-0.333-0.108zM168.837 24.759c0.022-0.045 0.034-0.094 0.030-0.144v-0.595c0.003-0.048-0.006-0.097-0.030-0.141-0.013-0.017-0.032-0.030-0.054-0.039-0.021-0.008-0.045-0.011-0.069-0.008-0.024-0.003-0.048 0-0.069 0.008-0.022 0.008-0.042 0.022-0.054 0.039-0.024 0.044-0.035 0.092-0.032 0.141v0.598c-0.003 0.049 0.008 0.099 0.032 0.144 0.014 0.015 0.034 0.027 0.054 0.036 0.022 0.008 0.045 0.013 0.069 0.013 0.022 0 0.046-0.004 0.067-0.013s0.040-0.020 0.056-0.036v-0.003z"></path>
<path fill="#8e8f99" d="M169.462 23.671h0.283l0.213 0.897 0.218-0.897h0.275l0.029 1.294h-0.205l-0.021-0.9-0.211 0.9h-0.163l-0.218-0.903-0.021 0.903h-0.205l0.026-1.294z"></path>
<path fill="#8e8f99" d="M170.797 23.671h0.442c0.254 0 0.381 0.123 0.381 0.368 0 0.235-0.133 0.352-0.402 0.352h-0.15v0.575h-0.272l0.002-1.294zM171.174 24.225c0.027 0.003 0.054 0.001 0.080-0.006s0.050-0.019 0.070-0.035c0.030-0.044 0.045-0.095 0.038-0.146 0.002-0.040-0.003-0.079-0.013-0.118-0.005-0.013-0.011-0.025-0.021-0.036s-0.021-0.019-0.034-0.026c-0.038-0.016-0.080-0.023-0.122-0.021h-0.106v0.387h0.106z"></path>
<path fill="#8e8f99" d="M172.013 23.671h0.293l0.299 1.294h-0.253l-0.059-0.298h-0.262l-0.061 0.298h-0.258l0.301-1.294zM172.262 24.517l-0.102-0.543-0.101 0.543h0.203z"></path>
<path fill="#8e8f99" d="M172.848 23.671h0.19l0.365 0.738v-0.738h0.226v1.294h-0.181l-0.366-0.771v0.771h-0.235l0.002-1.294z"></path>
<path fill="#8e8f99" d="M174.158 24.472l-0.302-0.799h0.254l0.186 0.513 0.174-0.513h0.25l-0.299 0.799v0.493h-0.262v-0.493z"></path>
<path fill="#8e8f99" d="M167.706 25.532v0.068h-0.222v0.526h-0.093v-0.526h-0.224v-0.068h0.539z"></path>
<path fill="#8e8f99" d="M168.402 26.125h-0.072c-0.006 0-0.014-0.002-0.019-0.006-0.006-0.003-0.010-0.008-0.013-0.014l-0.064-0.141h-0.309l-0.064 0.141c-0.002 0.006-0.005 0.011-0.010 0.016-0.006 0.004-0.013 0.006-0.021 0.006h-0.072l0.274-0.594h0.094l0.275 0.591zM167.95 25.905h0.258l-0.109-0.242c-0.008-0.018-0.014-0.037-0.021-0.056-0.003 0.011-0.006 0.022-0.010 0.032l-0.010 0.025-0.109 0.241z"></path>
<path fill="#8e8f99" d="M168.872 26.067c0.016 0.001 0.034 0.001 0.051 0 0.014-0.001 0.029-0.004 0.043-0.007 0.013-0.003 0.026-0.006 0.038-0.011s0.024-0.009 0.037-0.015v-0.133h-0.109c-0.002 0-0.005-0-0.008-0.001-0.002-0.001-0.005-0.002-0.006-0.004s-0.003-0.003-0.005-0.005c0-0.002 0-0.004 0-0.006v-0.046h0.211v0.228c-0.018 0.011-0.035 0.020-0.054 0.028s-0.040 0.015-0.061 0.020c-0.022 0.006-0.045 0.010-0.069 0.012-0.026 0.003-0.053 0.004-0.078 0.004-0.048 0-0.094-0.007-0.138-0.022-0.042-0.014-0.078-0.035-0.109-0.062s-0.054-0.059-0.070-0.094c-0.018-0.039-0.026-0.081-0.026-0.123s0.008-0.084 0.024-0.124c0.016-0.035 0.040-0.067 0.070-0.094 0.032-0.027 0.069-0.048 0.109-0.062 0.048-0.015 0.098-0.023 0.147-0.022 0.026 0 0.050 0.002 0.075 0.005 0.022 0.003 0.043 0.008 0.066 0.015 0.018 0.006 0.037 0.014 0.054 0.024 0.016 0.009 0.032 0.020 0.046 0.031l-0.026 0.037c-0.002 0.003-0.005 0.006-0.010 0.008-0.003 0.002-0.008 0.003-0.011 0.003-0.006-0-0.013-0.002-0.018-0.005-0.008-0.004-0.018-0.008-0.027-0.014-0.011-0.006-0.024-0.012-0.035-0.016-0.018-0.006-0.034-0.010-0.051-0.013-0.022-0.004-0.046-0.005-0.069-0.005-0.035-0-0.072 0.005-0.106 0.016-0.030 0.010-0.058 0.026-0.080 0.047s-0.040 0.047-0.050 0.074c-0.026 0.064-0.026 0.134 0 0.198 0.011 0.028 0.030 0.053 0.054 0.075 0.022 0.020 0.050 0.036 0.078 0.047 0.035 0.010 0.072 0.014 0.109 0.012z"></path>
<path fill="#8e8f99" d="M169.739 26.058h0.298v0.068h-0.387v-0.594h0.093l-0.003 0.526z"></path>
<path fill="#8e8f99" d="M170.347 26.125h-0.094v-0.594h0.094v0.594z"></path>
<path fill="#8e8f99" d="M170.693 25.535c0.006 0.003 0.011 0.006 0.014 0.011l0.398 0.448c0-0.007 0-0.014 0-0.021s0-0.013 0-0.019v-0.423h0.082v0.596h-0.048c-0.006 0.001-0.013-0.001-0.019-0.003s-0.011-0.007-0.014-0.011l-0.398-0.447c0 0.007 0 0.014 0 0.020s0 0.013 0 0.018v0.423h-0.078v-0.594h0.050c0.005 0 0.010 0.001 0.014 0.003z"></path>
<path fill="#8e8f99" d="M171.872 25.532v0.065h-0.33v0.196h0.267v0.063h-0.267v0.203h0.33v0.065h-0.426v-0.592h0.426z"></path>
<path fill="#8e8f99" d="M162.112 21.865l4.136 1.013v3.551l-4.136-1.013v-3.552zM161.846 21.563v4.027l4.666 1.144v-4.027l-4.666-1.144z"></path>
<path fill="#8e8f99" d="M164.347 28.603l-4.667-1.145v-4.027l4.667 1.144v4.027z"></path>
<path fill="#8e8f99" d="M161.923 21.82l4.083 1.001-1.738 1.499-4.082-1.001 1.736-1.498zM161.846 21.563l-2.166 1.869 4.667 1.144 2.165-1.869-4.666-1.144z"></path>
<path fill="#8e8f99" d="M164.61 28.376l1.902-1.642-1.902-0.467v2.109z"></path>
<path fill="#2e2f42" d="M78.471 3.762h0.841c-0.017 0.276-0.093 0.52-0.228 0.734-0.133 0.214-0.32 0.381-0.56 0.501-0.238 0.12-0.525 0.18-0.861 0.18-0.262 0-0.498-0.045-0.706-0.135-0.208-0.092-0.386-0.223-0.534-0.394-0.146-0.171-0.258-0.377-0.335-0.619s-0.115-0.513-0.115-0.813v-0.284c0-0.3 0.039-0.571 0.118-0.813 0.081-0.244 0.195-0.451 0.343-0.622 0.15-0.171 0.329-0.302 0.537-0.394s0.441-0.138 0.697-0.138c0.341 0 0.629 0.062 0.864 0.186 0.236 0.124 0.419 0.294 0.548 0.512 0.131 0.218 0.21 0.465 0.236 0.743h-0.844c-0.009-0.165-0.042-0.305-0.098-0.419-0.056-0.116-0.142-0.203-0.256-0.262-0.112-0.060-0.263-0.090-0.45-0.090-0.14 0-0.263 0.026-0.368 0.079s-0.193 0.132-0.264 0.239c-0.071 0.107-0.125 0.242-0.16 0.405-0.034 0.161-0.051 0.351-0.051 0.568v0.29c0 0.212 0.016 0.398 0.048 0.56 0.032 0.159 0.081 0.294 0.146 0.405 0.068 0.109 0.154 0.191 0.259 0.247 0.107 0.054 0.235 0.082 0.385 0.082 0.176 0 0.322-0.028 0.436-0.084s0.202-0.14 0.262-0.25c0.062-0.111 0.098-0.248 0.11-0.413zM81.731 4.392v-2.315h0.81v3.043h-0.762l-0.048-0.728zM81.821 3.767l0.239-0.006c0 0.203-0.023 0.391-0.070 0.565-0.047 0.173-0.117 0.322-0.211 0.45-0.094 0.126-0.212 0.224-0.354 0.295-0.143 0.069-0.31 0.104-0.504 0.104-0.148 0-0.285-0.021-0.411-0.062-0.124-0.043-0.231-0.11-0.321-0.2-0.088-0.092-0.158-0.209-0.208-0.352-0.049-0.144-0.073-0.318-0.073-0.52v-1.966h0.81v1.972c0 0.090 0.010 0.166 0.031 0.228 0.022 0.062 0.053 0.112 0.093 0.152s0.085 0.067 0.138 0.084c0.054 0.017 0.114 0.025 0.18 0.025 0.167 0 0.298-0.034 0.394-0.101 0.097-0.067 0.166-0.159 0.205-0.276 0.041-0.118 0.062-0.249 0.062-0.394zM84.92 4.279c0-0.058-0.017-0.111-0.051-0.157s-0.097-0.090-0.188-0.129c-0.090-0.041-0.22-0.079-0.391-0.112-0.154-0.034-0.297-0.076-0.43-0.127-0.131-0.053-0.246-0.115-0.343-0.188-0.096-0.073-0.171-0.159-0.225-0.259-0.054-0.101-0.082-0.217-0.082-0.346 0-0.127 0.027-0.248 0.082-0.36 0.056-0.112 0.136-0.212 0.239-0.298 0.105-0.088 0.232-0.157 0.382-0.205 0.152-0.051 0.323-0.076 0.512-0.076 0.264 0 0.491 0.042 0.681 0.127 0.191 0.084 0.337 0.201 0.439 0.349 0.103 0.146 0.155 0.313 0.155 0.501h-0.81c0-0.079-0.017-0.149-0.051-0.211-0.032-0.064-0.083-0.113-0.152-0.149-0.067-0.038-0.156-0.056-0.264-0.056-0.090 0-0.168 0.016-0.233 0.048-0.066 0.030-0.116 0.071-0.152 0.124-0.034 0.051-0.051 0.107-0.051 0.169 0 0.047 0.009 0.089 0.028 0.127 0.021 0.036 0.053 0.068 0.098 0.098s0.103 0.058 0.174 0.084c0.073 0.024 0.163 0.047 0.27 0.067 0.219 0.045 0.415 0.104 0.588 0.177 0.172 0.071 0.309 0.169 0.411 0.292 0.101 0.122 0.152 0.282 0.152 0.481 0 0.135-0.030 0.259-0.090 0.371s-0.146 0.211-0.259 0.295c-0.113 0.082-0.248 0.147-0.405 0.194-0.156 0.045-0.331 0.067-0.526 0.067-0.283 0-0.523-0.051-0.72-0.152-0.195-0.101-0.343-0.23-0.444-0.385-0.099-0.157-0.149-0.319-0.149-0.484h0.768c0.004 0.111 0.032 0.2 0.084 0.267 0.054 0.067 0.123 0.116 0.205 0.146 0.084 0.030 0.175 0.045 0.273 0.045 0.105 0 0.192-0.014 0.261-0.042 0.069-0.030 0.122-0.069 0.158-0.118 0.037-0.051 0.056-0.109 0.056-0.174zM87.84 2.077v0.574h-1.772v-0.574h1.772zM86.506 1.326h0.81v2.877c0 0.088 0.011 0.156 0.034 0.202 0.024 0.047 0.060 0.080 0.107 0.098 0.047 0.017 0.106 0.025 0.177 0.025 0.051 0 0.096-0.002 0.135-0.006 0.041-0.006 0.076-0.011 0.104-0.017l0.003 0.596c-0.069 0.022-0.144 0.040-0.225 0.053s-0.17 0.020-0.267 0.020c-0.178 0-0.334-0.029-0.467-0.087-0.131-0.060-0.232-0.156-0.304-0.287s-0.107-0.304-0.107-0.518v-2.959zM88.213 3.629v-0.059c0-0.223 0.032-0.428 0.096-0.616 0.064-0.189 0.156-0.353 0.278-0.492s0.272-0.247 0.45-0.323c0.178-0.079 0.383-0.118 0.613-0.118s0.436 0.039 0.616 0.118c0.18 0.077 0.331 0.185 0.453 0.323 0.124 0.139 0.217 0.303 0.281 0.492 0.064 0.188 0.096 0.393 0.096 0.616v0.059c0 0.221-0.032 0.427-0.096 0.616-0.064 0.188-0.157 0.352-0.281 0.492-0.122 0.139-0.272 0.247-0.45 0.323s-0.383 0.115-0.613 0.115c-0.231 0-0.436-0.038-0.616-0.115-0.178-0.077-0.329-0.185-0.453-0.323-0.122-0.141-0.215-0.305-0.278-0.492-0.064-0.189-0.096-0.395-0.096-0.616zM89.023 3.57v0.059c0 0.127 0.011 0.247 0.034 0.357s0.058 0.208 0.107 0.293c0.051 0.082 0.116 0.147 0.197 0.194s0.179 0.070 0.295 0.070c0.112 0 0.209-0.023 0.29-0.070s0.145-0.112 0.194-0.194c0.049-0.084 0.084-0.182 0.107-0.292 0.024-0.111 0.036-0.23 0.036-0.357v-0.059c0-0.124-0.012-0.24-0.036-0.349-0.023-0.111-0.059-0.208-0.11-0.292-0.049-0.086-0.113-0.154-0.194-0.203s-0.178-0.073-0.293-0.073c-0.114 0-0.212 0.024-0.292 0.073-0.079 0.049-0.143 0.116-0.194 0.203-0.049 0.084-0.084 0.182-0.107 0.292-0.022 0.109-0.034 0.225-0.034 0.349zM92.519 2.707v2.413h-0.813v-3.043h0.762l0.051 0.63zM92.407 3.492h-0.225c0-0.212 0.025-0.407 0.076-0.585 0.052-0.18 0.128-0.336 0.228-0.467 0.101-0.133 0.226-0.236 0.374-0.309s0.32-0.11 0.515-0.11c0.135 0 0.259 0.021 0.371 0.062 0.113 0.039 0.209 0.102 0.29 0.188 0.083 0.084 0.146 0.195 0.191 0.332 0.045 0.135 0.068 0.297 0.068 0.487v2.031h-0.81v-1.941c0-0.139-0.019-0.246-0.056-0.321s-0.091-0.127-0.16-0.158c-0.068-0.030-0.149-0.045-0.245-0.045-0.105 0-0.197 0.022-0.276 0.065-0.077 0.043-0.141 0.103-0.191 0.18-0.051 0.075-0.088 0.163-0.112 0.264s-0.037 0.21-0.037 0.326zM94.218 3.399l-0.29 0.037c0-0.199 0.024-0.383 0.073-0.554 0.051-0.171 0.125-0.321 0.222-0.45 0.099-0.129 0.222-0.23 0.368-0.301 0.146-0.073 0.315-0.11 0.506-0.11 0.146 0 0.279 0.022 0.399 0.065 0.12 0.041 0.222 0.108 0.307 0.2 0.086 0.090 0.152 0.208 0.197 0.354 0.047 0.146 0.070 0.325 0.070 0.537v1.943h-0.813v-1.943c0-0.141-0.019-0.248-0.056-0.321-0.036-0.075-0.088-0.127-0.157-0.155-0.068-0.030-0.148-0.045-0.242-0.045-0.098 0-0.183 0.020-0.256 0.059-0.073 0.038-0.134 0.090-0.183 0.158s-0.085 0.146-0.11 0.236c-0.024 0.088-0.036 0.185-0.036 0.29zM98.214 5.176c-0.236 0-0.448-0.037-0.636-0.112-0.188-0.077-0.347-0.183-0.478-0.318-0.129-0.135-0.229-0.292-0.298-0.47-0.069-0.18-0.104-0.371-0.104-0.574v-0.112c0-0.231 0.033-0.442 0.098-0.633s0.159-0.357 0.281-0.498c0.124-0.141 0.274-0.248 0.45-0.323 0.176-0.077 0.375-0.115 0.596-0.115 0.216 0 0.407 0.036 0.574 0.107s0.307 0.172 0.419 0.304c0.114 0.131 0.201 0.289 0.259 0.473 0.058 0.182 0.087 0.384 0.087 0.607v0.337h-2.419v-0.54h1.623v-0.062c0-0.112-0.020-0.213-0.062-0.301-0.039-0.090-0.099-0.161-0.18-0.214s-0.184-0.079-0.309-0.079c-0.107 0-0.199 0.023-0.276 0.070s-0.14 0.112-0.188 0.197c-0.047 0.084-0.083 0.184-0.107 0.298-0.023 0.112-0.034 0.236-0.034 0.371v0.112c0 0.122 0.017 0.234 0.051 0.338 0.036 0.103 0.085 0.192 0.149 0.267 0.066 0.075 0.144 0.133 0.236 0.174 0.094 0.041 0.2 0.062 0.318 0.062 0.146 0 0.282-0.028 0.408-0.084 0.128-0.058 0.237-0.145 0.329-0.262l0.394 0.428c-0.064 0.092-0.151 0.18-0.262 0.264-0.109 0.084-0.24 0.154-0.394 0.208-0.154 0.053-0.329 0.079-0.526 0.079zM100.85 2.741v2.379h-0.81v-3.043h0.762l0.048 0.664zM101.767 2.057l-0.014 0.751c-0.039-0.006-0.087-0.010-0.144-0.014-0.054-0.006-0.104-0.008-0.149-0.008-0.114 0-0.214 0.015-0.298 0.045-0.083 0.028-0.152 0.070-0.208 0.127-0.054 0.056-0.096 0.125-0.124 0.205-0.026 0.081-0.041 0.172-0.045 0.276l-0.163-0.051c0-0.197 0.020-0.378 0.059-0.543 0.039-0.167 0.096-0.312 0.172-0.436 0.077-0.124 0.171-0.219 0.281-0.287s0.237-0.101 0.38-0.101c0.045 0 0.091 0.004 0.138 0.011 0.047 0.006 0.085 0.014 0.115 0.025zM103.91 4.279c0-0.058-0.017-0.111-0.051-0.157s-0.096-0.090-0.188-0.129c-0.090-0.041-0.22-0.079-0.391-0.112-0.154-0.034-0.297-0.076-0.43-0.127-0.131-0.053-0.246-0.115-0.343-0.188-0.096-0.073-0.171-0.159-0.225-0.259-0.054-0.101-0.082-0.217-0.082-0.346 0-0.127 0.027-0.248 0.082-0.36 0.056-0.112 0.136-0.212 0.239-0.298 0.105-0.088 0.232-0.157 0.383-0.205 0.152-0.051 0.322-0.076 0.512-0.076 0.264 0 0.491 0.042 0.681 0.127 0.191 0.084 0.337 0.201 0.439 0.349 0.103 0.146 0.155 0.313 0.155 0.501h-0.81c0-0.079-0.017-0.149-0.051-0.211-0.032-0.064-0.083-0.113-0.152-0.149-0.068-0.038-0.156-0.056-0.264-0.056-0.090 0-0.168 0.016-0.233 0.048-0.066 0.030-0.116 0.071-0.152 0.124-0.034 0.051-0.051 0.107-0.051 0.169 0 0.047 0.009 0.089 0.028 0.127 0.020 0.036 0.053 0.068 0.098 0.098s0.103 0.058 0.174 0.084c0.073 0.024 0.163 0.047 0.27 0.067 0.219 0.045 0.415 0.104 0.588 0.177 0.172 0.071 0.309 0.169 0.411 0.292 0.101 0.122 0.152 0.282 0.152 0.481 0 0.135-0.030 0.259-0.090 0.371s-0.146 0.211-0.259 0.295c-0.112 0.082-0.248 0.147-0.405 0.194-0.156 0.045-0.331 0.067-0.526 0.067-0.283 0-0.523-0.051-0.72-0.152-0.195-0.101-0.343-0.23-0.444-0.385-0.099-0.157-0.149-0.319-0.149-0.484h0.768c0.004 0.111 0.032 0.2 0.084 0.267 0.054 0.067 0.123 0.116 0.205 0.146 0.084 0.030 0.175 0.045 0.273 0.045 0.105 0 0.192-0.014 0.262-0.042 0.069-0.030 0.122-0.069 0.157-0.118 0.038-0.051 0.056-0.109 0.056-0.174z"></path>
</svg>
