<svg xmlns="http://www.w3.org/2000/svg" width="1128" height="200" fill="none"><rect width="167" height="87" x=".5" y="112.5" stroke="#8E8F99" rx="3.5"/><path fill="#8E8F99" fill-rule="evenodd" d="m70 135 7.008 6.676L64 141.669v32.392h34v-12.385l7 6.669V135H70Zm27.692 25.892-19.87-18.93h19.87v18.93Zm-6.169 8.431H69.38v-21.786h1.565v20.311h20.578v1.475Zm-17.727 10.738-.825-1.697h-.681l1.196 2.246v1.309h.617v-1.309l1.197-2.246h-.679l-.825 1.697Zm3.042-1.697h.146l1.343 3.555h-.644l-.288-.832h-1.376l-.287.832h-.642l1.338-3.555H76.838Zm-.652 2.237h1.041l-.52-1.508-.52 1.508Zm4.296-.589-.077-.1a1.814 1.814 0 0 1-.213-.349.858.858 0 0 1-.075-.351c0-.186.038-.346.114-.479a.776.776 0 0 1 .325-.308c.14-.073.304-.109.49-.109a.94.94 0 0 1 .467.109.769.769 0 0 1 .35.984.886.886 0 0 1-.17.254 1.674 1.674 0 0 1-.248.217l-.247.18.704.831a1.43 1.43 0 0 0 .153-.664h.508c0 .173-.017.336-.051.491a1.534 1.534 0 0 1-.26.586l.52.615h-.68l-.207-.243a1.384 1.384 0 0 1-.365.199 1.619 1.619 0 0 1-.551.093c-.236 0-.44-.043-.613-.13a.97.97 0 0 1-.4-.356.974.974 0 0 1-.14-.52c0-.145.03-.272.09-.381.061-.111.143-.213.247-.307.096-.088.206-.175.33-.262Zm.292.357-.074.053a.917.917 0 0 0-.193.203.594.594 0 0 0-.034.601.514.514 0 0 0 .198.202.648.648 0 0 0 .32.074.911.911 0 0 0 .393-.091c.063-.031.124-.068.18-.112l-.79-.93Zm.14-.649.218-.147a.803.803 0 0 0 .22-.2.445.445 0 0 0 .066-.249.343.343 0 0 0-.098-.235.356.356 0 0 0-.276-.107.357.357 0 0 0-.34.21.502.502 0 0 0 .016.434c.037.077.088.157.154.242l.04.052Zm6.22 1.042h-.611a1.114 1.114 0 0 1-.112.393.556.556 0 0 1-.247.242.929.929 0 0 1-.422.083.748.748 0 0 1-.369-.086.702.702 0 0 1-.254-.242 1.186 1.186 0 0 1-.146-.373 2.365 2.365 0 0 1-.047-.488v-.301c0-.188.017-.356.052-.503.035-.148.088-.272.158-.373a.691.691 0 0 1 .261-.23.81.81 0 0 1 .367-.078c.17 0 .309.03.415.088.105.057.185.14.239.249.055.109.091.24.107.393h.61a1.531 1.531 0 0 0-.2-.632 1.126 1.126 0 0 0-.454-.432 1.511 1.511 0 0 0-.717-.156c-.223 0-.424.039-.603.117-.178.078-.33.191-.457.339a1.536 1.536 0 0 0-.293.53c-.067.207-.1.438-.1.693v.296c0 .255.033.486.098.693.066.207.162.383.288.53.125.145.276.257.451.337.176.078.374.117.594.117.286 0 .53-.052.73-.156.2-.105.355-.247.466-.428.11-.182.176-.389.195-.622Zm3.39-.523v-.195c0-.269-.035-.509-.107-.72a1.567 1.567 0 0 0-.3-.545 1.278 1.278 0 0 0-.467-.344c-.18-.08-.38-.119-.6-.119a1.46 1.46 0 0 0-.598.119c-.18.078-.335.193-.467.344-.13.15-.23.332-.302.545a2.235 2.235 0 0 0-.108.72v.195c0 .269.036.51.108.723.073.213.175.395.307.544.132.15.288.265.467.345.18.078.38.117.598.117.22 0 .42-.039.6-.117.18-.08.336-.195.464-.345.13-.149.23-.331.3-.544a2.31 2.31 0 0 0 .105-.723Zm-.612-.2v.2c0 .199-.02.375-.059.528a1.16 1.16 0 0 1-.166.388.735.735 0 0 1-.269.237.815.815 0 0 1-.363.078.808.808 0 0 1-.362-.078.777.777 0 0 1-.273-.237 1.168 1.168 0 0 1-.171-.388 2.147 2.147 0 0 1-.059-.528v-.2c0-.198.02-.373.059-.525.04-.153.095-.281.169-.383a.728.728 0 0 1 .27-.234.783.783 0 0 1 .362-.081c.135 0 .256.027.364.081.107.052.197.13.27.234.075.102.132.23.169.383.04.152.059.327.059.525Z" clip-rule="evenodd"/><rect width="167" height="87" x="192.5" y="112.5" stroke="#8E8F99" rx="3.5"/><path fill="#8E8F99" fill-rule="evenodd" d="M274.114 133.935h-.137c-.21-.013-.42-.018-.63-.023h-.455c-.397 0-.802.01-1.204.03a.69.69 0 0 0-.091 0 28.299 28.299 0 0 0-10.517 2.683l-.432.208v22.142l1.012-.344c.888-.305 1.834-.58 2.813-.834a34.34 34.34 0 0 1 8.095-1.075v2.909a23.25 23.25 0 0 0-1.065.03h-.084a32.4 32.4 0 0 0-6.228.956 31.617 31.617 0 0 0-7.419 2.892v-28.397a29.724 29.724 0 0 1 7.784-3.166 29.771 29.771 0 0 1 7.336-.946h.427c.511.013 1.01.036 1.478.071 1.233.087 2.456.282 3.655.583v2.863a22.655 22.655 0 0 0-3.542-.534l-.072-.006a8.775 8.775 0 0 0-.724-.042Zm5.039 2.926c.635.049 1.292.072 1.958.072a31.463 31.463 0 0 0 7.713-.99 31.753 31.753 0 0 0 7.417-2.893v27.89a29.833 29.833 0 0 1-7.786 3.166 29.927 29.927 0 0 1-7.337.944 22.4 22.4 0 0 1-5.565-.657v-28.071c.43.099.873.191 1.323.267.739.125 1.518.216 2.277.272Zm14.194.217-1.012.34a44.2 44.2 0 0 1-2.813.842 34.258 34.258 0 0 1-8.406 1.078c-.66 0-1.268-.018-1.854-.056l-.807-.053V162.006l.693.061c.642.056 1.305.084 1.973.084a26.941 26.941 0 0 0 6.62-.857 27.806 27.806 0 0 0 5.173-1.859l.433-.209v-22.148Z" clip-rule="evenodd"/><path fill="#8E8F99" d="M259.737 173.212a1.492 1.492 0 0 0-1.126-.455 1.687 1.687 0 0 0-.65.122 1.455 1.455 0 0 0-.832.842c-.079.2-.119.413-.116.628v3.794c-.009.267.042.533.149.778.089.195.219.368.379.509.152.127.33.22.521.269.185.052.376.079.567.079a1.42 1.42 0 0 0 .612-.132 1.586 1.586 0 0 0 .838-.86 1.53 1.53 0 0 0 .121-.605v-.424h-.992v.338a.87.87 0 0 1-.058.338.6.6 0 0 1-.144.214.732.732 0 0 1-.415.145.508.508 0 0 1-.465-.204.892.892 0 0 1-.132-.508v-3.538a1.209 1.209 0 0 1 .122-.567.502.502 0 0 1 .485-.229.53.53 0 0 1 .443.214.804.804 0 0 1 .164.509v.328h.982v-.387a1.796 1.796 0 0 0-.121-.664 1.578 1.578 0 0 0-.332-.534ZM265.629 173.169a1.767 1.767 0 0 0-1.128-.417 1.731 1.731 0 0 0-1.116.417 1.56 1.56 0 0 0-.384.532c-.1.231-.15.482-.145.734v3.639c-.006.256.043.511.145.745.089.196.221.37.384.509.152.141.33.25.524.32a1.689 1.689 0 0 0 1.184 0c.197-.071.379-.18.536-.32.158-.142.286-.315.374-.509.102-.234.151-.489.145-.745v-3.639a1.779 1.779 0 0 0-.145-.734 1.629 1.629 0 0 0-.374-.532Zm-.463 4.905a.663.663 0 0 1-.197.527.725.725 0 0 1-.934 0 .656.656 0 0 1-.197-.527v-3.639a.658.658 0 0 1 .197-.526.725.725 0 0 1 .934 0 .648.648 0 0 1 .197.526v3.639ZM273.367 179.699v-6.888h-.953l-1.253 3.646h-.017l-1.263-3.646h-.943v6.888h.984v-4.19h.018l.963 2.962h.491l.972-2.962h.017v4.19h.984ZM278.958 173.294c-.151-.17-.343-.3-.556-.377a2.166 2.166 0 0 0-.714-.106h-1.462v6.888h.981v-2.69h.506a1.8 1.8 0 0 0 .886-.188c.223-.124.409-.306.539-.527.113-.183.19-.387.225-.6.038-.259.056-.521.053-.783a3.965 3.965 0 0 0-.096-.984 1.466 1.466 0 0 0-.362-.633Zm-.506 2.1a.863.863 0 0 1-.091.359.552.552 0 0 1-.253.241 1.01 1.01 0 0 1-.463.087h-.448v-2.342h.506a.937.937 0 0 1 .443.086.55.55 0 0 1 .23.254 1 1 0 0 1 .086.384v.458c0 .16.01.326 0 .473h-.01ZM283.608 172.811h-.805l-1.518 6.888h.982l.288-1.48h1.339l.288 1.48h.981l-1.555-6.888Zm-.906 4.47.483-2.497h.018l.481 2.497h-.982ZM289.95 176.961h-.018l-1.482-4.15h-.944v6.888h.982v-4.142h.02l1.5 4.142h.923v-6.888h-.981v4.15ZM295.948 172.811l-.79 2.738h-.02l-.789-2.738h-1.04l1.348 3.977v2.911h.982v-2.911l1.348-3.977h-1.039ZM257 181.645h.473v1.327h.321v-1.327h.471v-.273H257v.273ZM260.977 181.372l-.62 1.6h.341l.132-.364h.637l.137.364h.349l-.635-1.6h-.341Zm-.051.967.218-.593.217.593h-.435ZM264.908 182.382h.369v.206a.61.61 0 0 1-.379.135.404.404 0 0 1-.339-.153.664.664 0 0 1-.119-.417c0-.356.154-.534.46-.534a.336.336 0 0 1 .362.255l.316-.061c-.068-.313-.293-.471-.678-.471a.808.808 0 0 0-.559.206.783.783 0 0 0-.23.615.876.876 0 0 0 .205.601.774.774 0 0 0 .607.234.966.966 0 0 0 .678-.255v-.63h-.693v.269ZM268.923 181.372h-.324v1.6h1.12v-.272h-.796v-1.328ZM272.317 181.372h-.323v1.6h.323v-1.6ZM275.636 182.44l-.655-1.068h-.313v1.6h.301v-1.045l.642 1.045h.321v-1.6h-.296v1.068ZM278.637 182.268h.797v-.273h-.797v-.35h.857v-.273h-1.181v1.6h1.214v-.272h-.89v-.432ZM285.912 182.003h-.63v-.631h-.321v1.6h.321v-.699h.63v.699h.322v-1.6h-.322v.631ZM288.93 182.268h.8v-.273h-.8v-.35h.86v-.273h-1.181v1.6h1.212v-.272h-.891v-.432ZM293.023 182.268c.279-.044.42-.191.42-.445a.382.382 0 0 0-.157-.356.892.892 0 0 0-.468-.094h-.678v1.599h.322v-.669h.063a.431.431 0 0 1 .2.036.336.336 0 0 1 .114.117l.349.508h.384l-.195-.312a1.105 1.105 0 0 0-.354-.384Zm-.324-.222h-.237v-.401h.253a.838.838 0 0 1 .326.038.203.203 0 0 1 .07.166.21.21 0 0 1-.085.159.882.882 0 0 1-.327.038ZM296.11 182.268h.796v-.273h-.796v-.35h.86v-.273h-1.184v1.6H297v-.272h-.89v-.432Z"/><rect width="167" height="87" x="384.5" y="112.5" stroke="#8E8F99" rx="3.5"/><path fill="#8E8F99" d="M452.81 177.223a.128.128 0 0 1 .085.033l.221.208a1.82 1.82 0 0 1-.621.394 2.44 2.44 0 0 1-.88.141 2.389 2.389 0 0 1-.829-.132 1.81 1.81 0 0 1-.623-.372 1.664 1.664 0 0 1-.403-.576 1.885 1.885 0 0 1-.141-.738 1.755 1.755 0 0 1 .152-.741 1.72 1.72 0 0 1 .428-.576c.188-.162.413-.29.662-.375a2.66 2.66 0 0 1 .853-.132c.271-.005.54.036.792.121.219.081.42.193.594.332l-.185.222a.181.181 0 0 1-.047.04.128.128 0 0 1-.075.017.186.186 0 0 1-.08-.024l-.099-.059-.138-.075a1.55 1.55 0 0 0-.436-.133 1.91 1.91 0 0 0-.329-.023 1.811 1.811 0 0 0-.613.099 1.414 1.414 0 0 0-.48.278c-.138.129-.244.28-.312.444a1.462 1.462 0 0 0-.113.585c-.003.202.035.403.113.594.068.163.172.313.307.441.126.12.283.214.458.274.18.064.373.096.568.094.113.002.226-.005.337-.019a1.35 1.35 0 0 0 .729-.304.175.175 0 0 1 .105-.038ZM459.186 176.18c.004.251-.047.499-.149.734-.09.213-.232.407-.416.569-.184.163-.406.29-.652.374a2.732 2.732 0 0 1-1.678 0 1.935 1.935 0 0 1-.649-.375 1.67 1.67 0 0 1-.42-.575 1.884 1.884 0 0 1 0-1.47c.094-.214.237-.41.42-.578.185-.157.406-.279.649-.36a2.675 2.675 0 0 1 1.678 0c.245.085.467.212.651.375a1.68 1.68 0 0 1 .566 1.306Zm-.58 0c.005-.2-.031-.399-.104-.589a1.213 1.213 0 0 0-.296-.441 1.306 1.306 0 0 0-.466-.279 1.971 1.971 0 0 0-1.22 0 1.31 1.31 0 0 0-.467.279 1.178 1.178 0 0 0-.298.441c-.14.384-.14.795 0 1.179.062.163.164.313.298.441.13.12.289.215.467.276.393.126.826.126 1.22 0 .177-.061.337-.156.466-.276.133-.128.233-.278.296-.441.074-.19.109-.389.104-.59ZM463.536 176.799l.058.132c.023-.047.042-.09.064-.132a1.1 1.1 0 0 1 .072-.13l1.41-2.191c.028-.038.053-.061.08-.068a.379.379 0 0 1 .116-.012h.417v3.563h-.494V175.23a.828.828 0 0 1 0-.122l-1.419 2.221a.197.197 0 0 1-.083.081.25.25 0 0 1-.121.03h-.08a.255.255 0 0 1-.122-.029.196.196 0 0 1-.082-.082l-1.461-2.235V177.954h-.477v-3.556h.417a.379.379 0 0 1 .116.012.152.152 0 0 1 .077.068l1.441 2.193a.768.768 0 0 1 .071.128ZM468.845 176.622v1.334h-.552v-3.558h1.231a2.64 2.64 0 0 1 .687.078c.179.043.344.119.486.221a.933.933 0 0 1 .276.349c.065.146.097.3.094.455.002.157-.033.311-.102.456a1.012 1.012 0 0 1-.298.356 1.442 1.442 0 0 1-.489.236c-.215.058-.44.086-.665.082l-.668-.009Zm0-.382h.668a1.58 1.58 0 0 0 .428-.055.931.931 0 0 0 .309-.153.623.623 0 0 0 .187-.236.67.67 0 0 0 .067-.299.597.597 0 0 0-.056-.29.691.691 0 0 0-.193-.243 1.198 1.198 0 0 0-.742-.191h-.668v1.467ZM476.264 177.961h-.436a.205.205 0 0 1-.193-.115l-.375-.861h-1.886l-.389.861a.205.205 0 0 1-.193.115h-.436l1.656-3.564h.574l1.678 3.564Zm-2.732-1.323h1.557l-.657-1.45a2.337 2.337 0 0 1-.125-.335l-.063.186a1.429 1.429 0 0 1-.061.151l-.651 1.448ZM478.65 174.414a.228.228 0 0 1 .082.064l2.416 2.686v-2.766h.494v3.563h-.276a.27.27 0 0 1-.113-.021.283.283 0 0 1-.089-.066l-2.412-2.684c.002.041.002.082 0 .123v2.648h-.494v-3.563h.292a.262.262 0 0 1 .1.016ZM485.71 176.544v1.415h-.552v-1.415l-1.526-2.146h.494a.195.195 0 0 1 .119.03.31.31 0 0 1 .074.08l.955 1.385a1.66 1.66 0 0 1 .169.316l.071-.153c.027-.056.059-.111.094-.163l.942-1.394a.363.363 0 0 1 .071-.076.19.19 0 0 1 .119-.035h.5l-1.53 2.156ZM463.263 168.417c.24.026.483.047.729.066 3.724-1.424 6.875-3.753 9.059-6.699 2.183-2.945 3.302-6.374 3.216-9.86l-4.104-3.507c.834 3.711.444 7.547-1.128 11.079-1.572 3.532-4.263 6.621-7.772 8.921Z"/><path fill="#8E8F99" d="m461.797 168.254.111.019c3.75-2.292 6.609-5.492 8.207-9.187 1.598-3.695 1.863-7.714.758-11.539l-5.846-4.995c2.365 4.106 3.317 8.701 2.745 13.251-.572 4.55-2.644 8.867-5.975 12.451ZM481.625 156.042c-.993 3.83-3.406 7.284-6.879 9.849a21.934 21.934 0 0 1-3.268 2.005c2.828-.71 5.428-1.966 7.598-3.67 2.17-1.705 3.854-3.812 4.92-6.16l-2.371-2.024Z"/><path fill="#8E8F99" d="m480.695 155.478-3.376-2.884c-.065 3.289-1.159 6.502-3.169 9.307-2.01 2.805-4.863 5.099-8.262 6.643h.017c.757 0 1.514-.039 2.266-.115 3.176-1.108 5.983-2.87 8.168-5.13 2.185-2.26 3.682-4.947 4.356-7.821ZM462.286 140.446 458.259 137c-3.601 1.189-6.697 3.278-8.884 5.996-2.188 2.717-3.364 5.935-3.375 9.233.013 3.643 1.449 7.18 4.079 10.048 2.631 2.868 6.305 4.905 10.443 5.789 3.694-3.845 5.857-8.597 6.174-13.564.317-4.967-1.228-9.891-4.41-14.056ZM490 154.948c-.015-4.324-2.031-8.466-5.609-11.523-3.578-3.057-8.427-4.78-13.487-4.793a21.79 21.79 0 0 0-6.837 1.087l24.658 21.068a14.096 14.096 0 0 0 1.275-5.839Z"/><rect width="167" height="87" x="576.5" y="112.5" stroke="#8E8F99" rx="3.5"/><path fill="#8E8F99" d="M632.078 149.518h-.003c-2.385 0-4.319 1.744-4.319 3.894v.003c0 2.151 1.934 3.894 4.319 3.894h.003c2.386 0 4.32-1.743 4.32-3.894v-.003c0-2.15-1.934-3.894-4.32-3.894ZM663.961 148.273c-.006-2.987-1.325-5.851-3.668-7.964-2.343-2.112-5.518-3.302-8.832-3.309-3.314.005-6.491 1.195-8.835 3.308-2.344 2.112-3.664 4.977-3.671 7.965v16.474s25.004-2.511 25.006-16.471v-.003ZM619 170.154c.006 2.079.924 4.071 2.554 5.541 1.63 1.47 3.839 2.299 6.145 2.305 2.305-.006 4.514-.834 6.144-2.304 1.63-1.469 2.548-3.461 2.555-5.539v-11.463S619 160.442 619 170.154Zm8.699 2.054c-.451 0-.891-.12-1.266-.346a2.122 2.122 0 0 1-.839-.922 1.867 1.867 0 0 1-.129-1.186c.088-.399.305-.765.623-1.052a2.368 2.368 0 0 1 1.167-.562 2.508 2.508 0 0 1 1.316.117c.416.155.772.419 1.022.756.25.338.384.735.384 1.141.001.271-.057.539-.171.789-.114.25-.282.477-.493.669a2.325 2.325 0 0 1-.74.447 2.49 2.49 0 0 1-.874.157v-.008ZM643.609 168.515v4.266h-.879v-4.266h.879Zm1.699 1.822v.686h-1.939v-.686h1.939Zm.205-1.822v.688h-2.144v-.688h2.144Zm4.014 2.033v.202c0 .325-.044.616-.132.873a1.93 1.93 0 0 1-.372.66c-.16.179-.352.317-.574.413a1.844 1.844 0 0 1-.736.143c-.267 0-.512-.048-.735-.143a1.656 1.656 0 0 1-.574-.413 1.94 1.94 0 0 1-.378-.66 2.687 2.687 0 0 1-.132-.873v-.202c0-.326.044-.617.132-.873.088-.258.212-.477.372-.659.162-.182.353-.32.574-.416a1.84 1.84 0 0 1 .736-.144c.269 0 .514.048.735.144.223.096.414.234.574.416.162.182.287.401.375.659.09.256.135.547.135.873Zm-.888.202v-.208c0-.226-.02-.425-.061-.597a1.297 1.297 0 0 0-.182-.434.791.791 0 0 0-.688-.354.844.844 0 0 0-.396.09.799.799 0 0 0-.29.264 1.337 1.337 0 0 0-.179.434 2.593 2.593 0 0 0-.061.597v.208c0 .225.02.424.061.598.041.172.102.317.182.437.08.117.178.206.293.266a.83.83 0 0 0 .395.091.782.782 0 0 0 .686-.357c.078-.12.138-.265.179-.437a2.62 2.62 0 0 0 .061-.598Zm3.741.914a.555.555 0 0 0-.035-.205.384.384 0 0 0-.123-.17 1.1 1.1 0 0 0-.255-.155 3.59 3.59 0 0 0-.425-.158 5.561 5.561 0 0 1-.55-.211 2.254 2.254 0 0 1-.457-.272 1.23 1.23 0 0 1-.311-.367 1.007 1.007 0 0 1-.111-.483c0-.178.039-.339.117-.483.078-.147.187-.272.328-.375.141-.106.307-.187.498-.244a2.28 2.28 0 0 1 .636-.085c.314 0 .589.057.823.17.235.114.416.269.545.466.131.197.196.423.196.677h-.873a.655.655 0 0 0-.079-.328.539.539 0 0 0-.234-.226.848.848 0 0 0-.393-.082.926.926 0 0 0-.381.07.513.513 0 0 0-.228.185.452.452 0 0 0-.076.258c0 .072.017.138.052.196a.607.607 0 0 0 .164.164c.073.051.162.099.267.144.106.045.228.089.366.132.233.07.437.149.613.237.177.088.326.186.445.296a1.086 1.086 0 0 1 .36.844 1.027 1.027 0 0 1-.422.87 1.477 1.477 0 0 1-.489.231 2.356 2.356 0 0 1-.636.079c-.211 0-.419-.027-.624-.082a1.86 1.86 0 0 1-.559-.255 1.284 1.284 0 0 1-.399-.433 1.253 1.253 0 0 1-.149-.624h.882c0 .133.02.245.061.337a.564.564 0 0 0 .173.222.727.727 0 0 0 .27.123c.105.026.22.038.345.038a.933.933 0 0 0 .375-.064.464.464 0 0 0 .293-.437Zm3.384-3.149v4.266h-.876v-4.266h.876Zm1.313 0v.688h-3.481v-.688h3.481Zm3.363 3.58v.686h-2.271v-.686h2.271Zm-1.983-3.58v4.266h-.879v-4.266h.879Zm1.687 1.737v.668h-1.975v-.668h1.975Zm.293-1.737v.688h-2.268v-.688h2.268Zm.516 0h1.59c.327 0 .607.049.841.146.237.098.418.243.545.434.127.191.191.427.191.706 0 .229-.039.425-.118.589a1.094 1.094 0 0 1-.325.407 1.66 1.66 0 0 1-.489.258l-.278.147h-1.383l-.006-.686h1.028a.797.797 0 0 0 .384-.082.538.538 0 0 0 .229-.229.707.707 0 0 0 .079-.339.784.784 0 0 0-.076-.355.507.507 0 0 0-.232-.228.848.848 0 0 0-.39-.08h-.711v3.578h-.879v-4.266Zm2.384 4.266-.972-1.902.928-.006.985 1.867v.041h-.941Zm4.615-1.521h-1.087v-.685h1.087a.9.9 0 0 0 .41-.082.53.53 0 0 0 .231-.235.854.854 0 0 0 0-.691.595.595 0 0 0-.231-.264.764.764 0 0 0-.41-.1h-.783v3.578h-.878v-4.266h1.661c.334 0 .62.061.858.182.24.119.424.284.551.495.127.211.19.452.19.723 0 .276-.063.514-.19.715a1.238 1.238 0 0 1-.551.466 2.049 2.049 0 0 1-.858.164Zm5.068.835v.686h-2.27v-.686h2.27Zm-1.983-3.58v4.266h-.879v-4.266h.879Zm1.687 1.737v.668h-1.974v-.668h1.974Zm.293-1.737v.688h-2.267v-.688h2.267Zm2.482 0v4.266h-.876v-4.266h.876Zm1.312 0v.688h-3.48v-.688h3.48Zm3.363 3.58v.686h-2.27v-.686h2.27Zm-1.983-3.58v4.266h-.879v-4.266h.879Zm1.687 1.737v.668h-1.974v-.668h1.974Zm.293-1.737v.688h-2.267v-.688h2.267Zm.516 0h1.591c.326 0 .606.049.841.146.236.098.418.243.545.434.127.191.19.427.19.706 0 .229-.039.425-.117.589a1.104 1.104 0 0 1-.325.407 1.665 1.665 0 0 1-.49.258l-.278.147h-1.383l-.006-.686h1.029a.796.796 0 0 0 .383-.082.538.538 0 0 0 .229-.229.696.696 0 0 0 .079-.339.771.771 0 0 0-.076-.355.507.507 0 0 0-.232-.228.847.847 0 0 0-.389-.08h-.712v3.578h-.879v-4.266Zm2.385 4.266-.973-1.902.929-.006.984 1.867v.041h-.94Zm3.679-1.117a.555.555 0 0 0-.035-.205.384.384 0 0 0-.123-.17 1.1 1.1 0 0 0-.255-.155 3.635 3.635 0 0 0-.424-.158 5.486 5.486 0 0 1-.551-.211 2.281 2.281 0 0 1-.457-.272 1.23 1.23 0 0 1-.311-.367 1.007 1.007 0 0 1-.111-.483c0-.178.039-.339.117-.483.078-.147.188-.272.328-.375.141-.106.307-.187.498-.244.194-.056.406-.085.636-.085.314 0 .589.057.823.17.235.114.416.269.545.466.131.197.196.423.196.677h-.873a.655.655 0 0 0-.079-.328.533.533 0 0 0-.234-.226.845.845 0 0 0-.393-.082.926.926 0 0 0-.381.07.513.513 0 0 0-.228.185.452.452 0 0 0-.076.258c0 .072.017.138.053.196a.58.58 0 0 0 .164.164c.072.051.161.099.266.144.106.045.228.089.366.132.233.07.437.149.613.237.177.088.326.186.445.296.119.109.209.233.27.372.06.139.09.296.09.472a1.027 1.027 0 0 1-.422.87 1.477 1.477 0 0 1-.489.231 2.356 2.356 0 0 1-.636.079c-.21 0-.418-.027-.624-.082a1.86 1.86 0 0 1-.559-.255 1.284 1.284 0 0 1-.399-.433 1.253 1.253 0 0 1-.149-.624h.882c0 .133.02.245.061.337a.564.564 0 0 0 .173.222.727.727 0 0 0 .27.123c.105.026.22.038.345.038a.933.933 0 0 0 .375-.064.464.464 0 0 0 .293-.437Z"/><rect width="167" height="87" x="768.5" y="112.5" stroke="#8E8F99" rx="3.5"/><path fill="#8E8F99" d="M826.792 172.373c.245.274.376.616.369.968.013.229-.032.458-.131.67-.099.211-.25.4-.441.552a2.678 2.678 0 0 1-1.664.446H822v-6.132h2.865a2.644 2.644 0 0 1 1.587.407c.185.14.332.316.428.515.097.199.141.416.128.633.017.338-.101.671-.333.937a1.588 1.588 0 0 1-.871.48c.388.064.738.249.988.524Zm-3.431-.926h1.225a1.25 1.25 0 0 0 .778-.203.724.724 0 0 0 .209-.272.662.662 0 0 0 .054-.328.676.676 0 0 0-.055-.325.766.766 0 0 0-.204-.274 1.282 1.282 0 0 0-.802-.206h-1.205v1.608Zm2.123 2.352a.773.773 0 0 0 .226-.281.699.699 0 0 0 .064-.342.717.717 0 0 0-.067-.346.772.772 0 0 0-.23-.283 1.36 1.36 0 0 0-.831-.222h-1.285v1.687h1.301c.293.015.583-.06.822-.213ZM832.649 175.009l-1.594-2.396h-.599v2.396h-1.371v-6.132h2.595a2.75 2.75 0 0 1 1.807.521c.363.333.582.772.617 1.237a1.82 1.82 0 0 1-.424 1.301c-.32.33-.757.55-1.238.623l1.697 2.45h-1.49Zm-2.193-3.232h1.121c.779 0 1.168-.31 1.168-.929a.83.83 0 0 0-.062-.371.921.921 0 0 0-.224-.318 1.314 1.314 0 0 0-.882-.249h-1.135l.014 1.867ZM840.143 173.775h-2.732l-.483 1.234h-1.438l2.51-6.063h1.554l2.499 6.063h-1.438l-.472-1.234Zm-.366-.929-.999-2.588-.998 2.588h1.997ZM849.523 175.009h-1.361l-3.051-4.17v4.17h-1.358v-6.132h1.358l3.051 4.194v-4.194h1.361v6.132ZM857.29 173.541a2.82 2.82 0 0 1-1.231 1.082 4.382 4.382 0 0 1-1.913.386h-2.423v-6.132h2.423a4.47 4.47 0 0 1 1.913.377c.521.237.95.61 1.231 1.07.28.499.426 1.05.426 1.609 0 .559-.146 1.11-.426 1.608Zm-1.557-.146c.388-.408.602-.927.602-1.464a2.12 2.12 0 0 0-.602-1.463 2.538 2.538 0 0 0-1.704-.522h-.945v3.97h.945a2.537 2.537 0 0 0 1.704-.521ZM840.995 134.767s17.566 5.97 17.194 14.61v14.614s-17.554-5.974-17.188-14.614l-.006-14.61ZM873.839 160.569c3.318-2.055 7.155-3.328 11.161-3.702v-4.575c-4.616 1.602-8.531 4.505-11.161 8.277Z"/><path fill="#8E8F99" d="M871.846 161.948c2.715-4.923 7.423-8.721 13.154-10.614v-13.182s-25.018 8.505-24.489 20.809v20.806s1.115-.381 2.869-1.094c0-.665 0-1.336.08-2.01.518-5.712 3.534-11.005 8.386-14.715Z"/><path fill="#8E8F99" d="M869.466 169.677c.132-1.443.425-2.87.876-4.26-3.021 3.204-4.851 7.18-5.232 11.369a18.03 18.03 0 0 0-.066 1.198 75.57 75.57 0 0 0 4.812-2.283 19.402 19.402 0 0 1-.39-6.024ZM870.461 169.752a18.578 18.578 0 0 0 .31 5.455c6.835-3.682 14.515-9.371 14.219-16.246v-.599c-4.883.492-9.452 2.414-13.005 5.47a18.84 18.84 0 0 0-1.524 5.92Z"/><rect width="167" height="87" x="960.5" y="112.5" stroke="#8E8F99" rx="3.5"/><path fill="#8E8F99" d="M1045.53 155.443c-.44-.591-.66-1.289-.61-1.992v-2.888c0-.885.2-1.558.61-2.018.4-.46 1.09-.69 2.07-.688.92 0 1.57.196 1.95.588.42.5.63 1.111.58 1.727v.679h-1.64v-.687a3.8 3.8 0 0 0-.05-.673.67.67 0 0 0-.23-.4.974.974 0 0 0-.6-.155c-.23-.015-.45.044-.63.164a.762.762 0 0 0-.27.441c-.05.236-.07.475-.06.714v3.505c-.03.338.04.676.21.984a.73.73 0 0 0 .33.239c.13.051.28.071.42.055.21.015.42-.042.58-.159a.707.707 0 0 0 .25-.426c.04-.232.05-.467.05-.702v-.711h1.64v.649c.05.643-.15 1.281-.57 1.816-.37.429-1.02.643-1.96.643-.95 0-1.67-.229-2.07-.705ZM1052.38 155.473c-.42-.45-.63-1.105-.63-1.972v-3.038c0-.858.21-1.507.63-1.948.41-.44 1.11-.66 2.08-.658.97 0 1.66.22 2.07.658.42.441.63 1.09.63 1.948v3.038c0 .858-.21 1.516-.63 1.969-.43.452-1.11.678-2.07.678-.96 0-1.66-.229-2.08-.675Zm2.85-.729c.14-.282.21-.59.19-.899v-3.72c.02-.303-.04-.605-.19-.881a.75.75 0 0 0-.34-.242.883.883 0 0 0-.43-.052.907.907 0 0 0-.43.052.75.75 0 0 0-.34.242c-.15.275-.22.578-.2.881v3.738c-.02.309.05.618.2.899.09.094.21.17.34.222a1.191 1.191 0 0 0 .85 0c.13-.052.25-.128.35-.222v-.018ZM1059.14 147.946h1.77l1.33 5.605 1.36-5.605h1.72l.18 8.09h-1.28l-.13-5.622-1.32 5.622h-1.02l-1.36-5.643-.13 5.643h-1.28l.16-8.09ZM1067.48 147.946h2.76c1.59 0 2.38.766 2.38 2.297 0 1.467-.83 2.2-2.51 2.198h-.94v3.595h-1.7l.01-8.09Zm2.36 3.458c.17.018.34.005.5-.039.16-.044.31-.118.44-.217.19-.273.28-.594.24-.913.01-.247-.02-.494-.08-.735a.675.675 0 0 0-.34-.385c-.24-.098-.5-.142-.76-.129h-.66v2.418h.66ZM1075.08 147.946h1.83l1.87 8.09h-1.58l-.37-1.865h-1.64l-.38 1.865h-1.61l1.88-8.09Zm1.56 5.288-.64-3.396-.63 3.396h1.27ZM1080.3 147.946h1.19l2.28 4.615v-4.615h1.41v8.09h-1.13l-2.29-4.817v4.817h-1.47l.01-8.09ZM1088.49 152.952l-1.89-4.995h1.59l1.16 3.208 1.09-3.208h1.56l-1.87 4.995v3.084h-1.64v-3.084ZM1048.16 159.574v.423h-1.39v3.287h-.58v-3.287h-1.4v-.423h3.37ZM1052.51 163.284h-.45a.181.181 0 0 1-.12-.035.198.198 0 0 1-.08-.085l-.4-.881h-1.93l-.4.881a.217.217 0 0 1-.06.1.223.223 0 0 1-.13.035h-.45l1.71-3.71h.59l1.72 3.695Zm-2.82-1.377h1.61l-.68-1.51a4.318 4.318 0 0 1-.13-.35c-.02.071-.04.138-.06.197l-.06.156-.68 1.507ZM1055.45 162.92c.1.005.21.005.32 0a2.389 2.389 0 0 0 .51-.111c.08-.027.15-.059.23-.092v-.834h-.68a.174.174 0 0 1-.05-.006c-.01-.005-.03-.013-.04-.023a.297.297 0 0 1-.03-.031V161.501h1.32v1.422a2.485 2.485 0 0 1-.72.303c-.14.035-.28.061-.43.076-.16.016-.33.024-.49.024-.3.002-.59-.045-.86-.138a2.013 2.013 0 0 1-.68-.388 1.781 1.781 0 0 1-.44-.588 1.876 1.876 0 0 1-.16-.77c0-.264.05-.527.15-.775.1-.22.25-.42.44-.588.2-.167.43-.298.68-.385.3-.095.61-.141.92-.138.16 0 .31.011.47.032.14.02.27.051.41.094.11.039.23.088.34.147.1.058.2.123.29.194l-.16.229a.107.107 0 0 1-.06.051.155.155 0 0 1-.07.02.22.22 0 0 1-.11-.03 1.753 1.753 0 0 1-.17-.088 1.945 1.945 0 0 0-.22-.1 2.506 2.506 0 0 0-.32-.082 2.594 2.594 0 0 0-.43-.032 2.06 2.06 0 0 0-.66.103 1.42 1.42 0 0 0-.5.293c-.14.134-.25.291-.31.462-.16.402-.16.835 0 1.237.07.174.19.333.34.467.14.127.31.227.49.294.22.064.45.089.68.073ZM1060.87 162.861h1.86v.423h-2.42v-3.71h.58l-.02 3.287ZM1064.67 163.284h-.59v-3.71h.59v3.71ZM1066.83 159.591c.04.017.07.04.09.068l2.49 2.797V159.559h.51v3.725h-.3a.254.254 0 0 1-.12-.02.228.228 0 0 1-.09-.071l-2.49-2.794V163.284h-.49v-3.71h.31c.03 0 .06.006.09.017ZM1074.2 159.574v.408h-2.06v1.225h1.67v.394h-1.67v1.266h2.06v.408h-2.66v-3.701h2.66ZM1013.2 136.659l25.85 6.334v22.195l-25.85-6.331v-22.198Zm-1.66-1.892v25.168l29.16 7.148v-25.166l-29.16-7.15Z"/><path fill="#8E8F99" d="M1027.17 178.767 998 171.613v-25.166l29.17 7.151v25.169Z"/><path fill="#8E8F99" d="m1012.02 136.374 25.52 6.254-10.86 9.366-25.51-6.257 10.85-9.363Zm-.48-1.607L998 146.447l29.17 7.151 13.53-11.681-29.16-7.15ZM1028.81 177.351l11.89-10.265-11.89-2.917v13.182Z"/><path fill="#2E2F42" d="M490.446 23.51h5.256c-.105 1.722-.58 3.252-1.424 4.588-.832 1.336-1.998 2.379-3.498 3.129-1.488.75-3.281 1.125-5.379 1.125-1.64 0-3.111-.282-4.412-.844a9.389 9.389 0 0 1-3.34-2.461c-.914-1.067-1.611-2.356-2.091-3.867-.481-1.512-.721-3.205-.721-5.08v-1.776c0-1.875.246-3.568.738-5.08.504-1.523 1.219-2.818 2.145-3.885a9.549 9.549 0 0 1 3.357-2.46c1.301-.575 2.754-.862 4.359-.862 2.133 0 3.932.387 5.397 1.16 1.476.774 2.619 1.84 3.428 3.2.82 1.359 1.312 2.906 1.476 4.64h-5.273c-.059-1.031-.264-1.904-.615-2.619a3.493 3.493 0 0 0-1.6-1.635c-.703-.375-1.641-.562-2.813-.562-.878 0-1.646.164-2.302.492-.657.328-1.207.826-1.653 1.494-.445.668-.779 1.512-1.002 2.531-.211 1.008-.316 2.192-.316 3.551v1.81c0 1.325.1 2.49.299 3.499.199.996.504 1.84.914 2.53.422.68.961 1.196 1.617 1.548.668.34 1.471.51 2.408.51 1.102 0 2.01-.176 2.725-.528a3.642 3.642 0 0 0 1.635-1.564c.386-.692.615-1.553.685-2.584Zm20.373 3.937V12.981h5.062V32h-4.764l-.298-4.553Zm.562-3.902 1.494-.035c0 1.265-.146 2.443-.439 3.533-.293 1.078-.733 2.016-1.319 2.813a6.163 6.163 0 0 1-2.214 1.845c-.891.434-1.94.65-3.147.65a8.177 8.177 0 0 1-2.566-.386 5.217 5.217 0 0 1-2.004-1.248c-.551-.574-.985-1.307-1.301-2.197-.305-.903-.457-1.987-.457-3.252V12.98h5.062v12.323c0 .562.065 1.037.194 1.424.14.386.334.703.58.949.246.246.533.422.861.527.34.106.715.158 1.125.158 1.043 0 1.863-.21 2.461-.633a3.34 3.34 0 0 0 1.283-1.722c.258-.738.387-1.559.387-2.461Zm19.37 3.2c0-.364-.105-.692-.316-.985-.211-.293-.604-.563-1.178-.809-.562-.258-1.377-.492-2.443-.703a19.058 19.058 0 0 1-2.69-.791 9.323 9.323 0 0 1-2.144-1.178 5.118 5.118 0 0 1-1.406-1.617c-.34-.633-.51-1.353-.51-2.162 0-.797.17-1.547.51-2.25a5.788 5.788 0 0 1 1.494-1.863c.656-.551 1.453-.979 2.39-1.284.95-.316 2.016-.474 3.2-.474 1.652 0 3.07.264 4.254.79 1.195.528 2.109 1.255 2.742 2.18.644.915.967 1.958.967 3.13h-5.063c0-.493-.105-.932-.316-1.319a2.093 2.093 0 0 0-.95-.931c-.421-.235-.972-.352-1.652-.352-.562 0-1.049.1-1.459.299a2.24 2.24 0 0 0-.949.773 1.86 1.86 0 0 0-.317 1.055c0 .293.059.556.176.79.129.224.334.429.615.616.282.188.645.363 1.09.527.457.153 1.02.293 1.688.422 1.371.282 2.596.65 3.674 1.108 1.078.445 1.933 1.055 2.566 1.828.633.762.949 1.764.949 3.006 0 .844-.187 1.617-.562 2.32-.375.703-.914 1.319-1.617 1.846-.704.515-1.547.92-2.532 1.213-.972.28-2.068.422-3.287.422-1.769 0-3.269-.317-4.5-.95-1.219-.633-2.144-1.435-2.777-2.408-.621-.984-.932-1.992-.932-3.023h4.799c.024.691.199 1.248.527 1.67.34.422.768.726 1.284.914a5.049 5.049 0 0 0 1.705.28c.656 0 1.201-.087 1.634-.263.434-.187.762-.433.985-.738.234-.316.351-.68.351-1.09Zm18.246-13.765v3.586h-11.074v-3.585h11.074Zm-8.332-4.693h5.062V26.27c0 .55.071.972.211 1.265.153.293.375.498.668.615.293.106.662.159 1.108.159.316 0 .597-.012.843-.036.258-.035.475-.07.651-.105l.017 3.727c-.433.14-.902.252-1.406.333-.504.082-1.06.124-1.67.124-1.113 0-2.086-.182-2.918-.545-.82-.375-1.453-.973-1.898-1.793-.446-.82-.668-1.899-.668-3.235V8.287Zm10.669 14.397v-.37c0-1.394.199-2.677.598-3.85.398-1.183.978-2.208 1.74-3.075a7.801 7.801 0 0 1 2.812-2.022c1.114-.492 2.391-.738 3.832-.738 1.442 0 2.725.246 3.85.738 1.125.48 2.068 1.154 2.83 2.022.774.867 1.359 1.892 1.758 3.076.398 1.172.598 2.455.598 3.85v.369c0 1.382-.2 2.666-.598 3.85a8.972 8.972 0 0 1-1.758 3.075 7.801 7.801 0 0 1-2.812 2.022c-1.114.48-2.391.72-3.832.72-1.442 0-2.725-.24-3.85-.72a7.965 7.965 0 0 1-2.83-2.022 9.114 9.114 0 0 1-1.74-3.076c-.399-1.183-.598-2.467-.598-3.85Zm5.062-.37v.37c0 .796.071 1.54.211 2.232.141.691.364 1.3.668 1.828.317.516.727.92 1.231 1.213.504.293 1.119.44 1.846.44.703 0 1.306-.147 1.81-.44a3.344 3.344 0 0 0 1.213-1.213 6.034 6.034 0 0 0 .668-1.828c.152-.691.228-1.436.228-2.232v-.37c0-.773-.076-1.5-.228-2.18a5.75 5.75 0 0 0-.686-1.827 3.404 3.404 0 0 0-1.212-1.266c-.504-.305-1.114-.457-1.829-.457-.714 0-1.324.152-1.828.457a3.604 3.604 0 0 0-1.213 1.266 6.062 6.062 0 0 0-.668 1.828c-.14.68-.211 1.406-.211 2.18Zm21.849-5.396V32h-5.08V12.98h4.764l.316 3.938Zm-.703 4.904h-1.406c0-1.324.158-2.543.475-3.656.328-1.125.802-2.098 1.423-2.918a6.547 6.547 0 0 1 2.338-1.933c.926-.458 1.998-.686 3.217-.686.844 0 1.617.129 2.32.387a4.453 4.453 0 0 1 1.811 1.177c.516.528.914 1.22 1.195 2.075.282.843.422 1.857.422 3.04V32h-5.062V19.871c0-.867-.117-1.535-.352-2.004-.234-.469-.568-.797-1.002-.984-.422-.188-.931-.281-1.529-.281-.656 0-1.231.134-1.723.404-.48.27-.879.644-1.195 1.125a5.03 5.03 0 0 0-.703 1.652 8.66 8.66 0 0 0-.229 2.04Zm11.321-.58-1.811.229c0-1.242.152-2.397.457-3.463.316-1.067.779-2.004 1.389-2.813a6.399 6.399 0 0 1 2.302-1.88c.915-.458 1.969-.686 3.165-.686.914 0 1.746.135 2.496.404.75.258 1.388.674 1.916 1.248.539.563.949 1.301 1.23 2.215.293.914.44 2.033.44 3.358V32h-5.081V19.854c0-.88-.117-1.547-.351-2.004-.223-.47-.551-.791-.984-.967-.422-.188-.926-.281-1.512-.281-.61 0-1.143.123-1.6.369a3.178 3.178 0 0 0-1.142.984 4.496 4.496 0 0 0-.686 1.477 6.792 6.792 0 0 0-.228 1.81Zm24.977 11.11c-1.476 0-2.8-.235-3.972-.704-1.172-.48-2.168-1.142-2.989-1.986a8.842 8.842 0 0 1-1.863-2.935 9.897 9.897 0 0 1-.65-3.586v-.703c0-1.442.205-2.76.615-3.956.41-1.195.996-2.232 1.758-3.11a7.721 7.721 0 0 1 2.812-2.022c1.102-.48 2.344-.721 3.727-.721 1.348 0 2.543.223 3.586.668a7.025 7.025 0 0 1 2.619 1.898c.715.82 1.254 1.805 1.617 2.953.363 1.137.545 2.403.545 3.797v2.11h-15.117V20.68h10.142v-.387c0-.703-.128-1.33-.386-1.88a2.984 2.984 0 0 0-1.125-1.337c-.504-.328-1.149-.492-1.934-.492-.668 0-1.242.146-1.722.44a3.39 3.39 0 0 0-1.178 1.23c-.293.527-.516 1.148-.668 1.863a11.824 11.824 0 0 0-.211 2.32v.704c0 .761.105 1.465.316 2.109.223.645.533 1.201.932 1.67.41.469.902.832 1.476 1.09.586.258 1.249.386 1.987.386.914 0 1.763-.175 2.549-.527a5.513 5.513 0 0 0 2.056-1.635l2.461 2.672c-.398.575-.943 1.125-1.635 1.653-.679.527-1.5.96-2.46 1.3-.961.328-2.057.493-3.288.493Zm16.47-15.223V32h-5.062V12.98h4.764l.298 4.149Zm5.731-4.272-.088 4.694a12.174 12.174 0 0 0-.897-.088 9.08 9.08 0 0 0-.931-.053c-.715 0-1.336.094-1.863.281-.516.176-.95.44-1.301.791-.34.352-.598.78-.774 1.284a6.33 6.33 0 0 0-.281 1.722l-1.019-.316c0-1.23.123-2.361.369-3.393.246-1.043.603-1.95 1.072-2.724.48-.774 1.066-1.371 1.758-1.793.691-.422 1.482-.633 2.373-.633.281 0 .568.023.861.07.293.035.533.088.721.158Zm13.394 13.887c0-.363-.106-.691-.317-.984-.211-.293-.603-.563-1.177-.809-.563-.258-1.377-.492-2.444-.703a19.044 19.044 0 0 1-2.689-.791 9.33 9.33 0 0 1-2.145-1.178 5.13 5.13 0 0 1-1.406-1.617c-.34-.633-.51-1.353-.51-2.162 0-.797.17-1.547.51-2.25a5.815 5.815 0 0 1 1.494-1.863c.656-.551 1.453-.979 2.391-1.284.949-.316 2.015-.474 3.199-.474 1.652 0 3.07.264 4.254.79 1.195.528 2.109 1.255 2.742 2.18.645.915.967 1.958.967 3.13h-5.063c0-.493-.105-.932-.316-1.319-.199-.398-.516-.709-.949-.931-.422-.235-.973-.352-1.653-.352-.562 0-1.048.1-1.459.299a2.24 2.24 0 0 0-.949.773 1.86 1.86 0 0 0-.316 1.055c0 .293.058.556.176.79.128.224.334.429.615.616.281.188.644.363 1.09.527.457.153 1.019.293 1.687.422 1.371.282 2.596.65 3.674 1.108 1.078.445 1.934 1.055 2.566 1.828.633.762.95 1.764.95 3.006 0 .844-.188 1.617-.563 2.32-.375.703-.914 1.319-1.617 1.846-.703.515-1.547.92-2.531 1.213-.973.28-2.069.422-3.287.422-1.77 0-3.27-.317-4.5-.95-1.219-.633-2.145-1.435-2.778-2.408-.621-.984-.931-1.992-.931-3.023h4.798c.024.691.2 1.248.528 1.67.34.422.767.726 1.283.914a5.053 5.053 0 0 0 1.705.28c.656 0 1.201-.087 1.635-.263.433-.187.761-.433.984-.738a1.78 1.78 0 0 0 .352-1.09Z"/></svg>