<svg xmlns="http://www.w3.org/2000/svg" aria-hidden="true" style="position:absolute;width:0;height:0;overflow:hidden">
  <defs>
    <symbol id="icon-antenna-1" viewBox="0 0 32 32">
      <path fill="#2e2f42" d="m30.773 22.098-8.443-8.505.937-4.615c.242.094.499.144.758.146h.006a2.159 2.159 0 1 0-2.008-1.435l-4.96.605L8.972.161a.534.534 0 0 0-.377-.16.532.532 0 0 0-.373.155L6.709 1.66a.534.534 0 0 0 0 .754l.814.826a14.943 14.943 0 0 0 2.519 17.663.513.513 0 0 0 .146.098c-.034.18-.051.364-.052.547v6.187h-6.4a2.67 2.67 0 0 0-2.667 2.667v1.067c0 .295.239.533.533.533h24.533a.533.533 0 0 0 .533-.533v-1.067a2.67 2.67 0 0 0-2.667-2.667h-6.4v-2.742a15.09 15.09 0 0 0 3.049.32 14.854 14.854 0 0 0 7.04-1.783l.818.823a.534.534 0 0 0 .377.16.532.532 0 0 0 .373-.155l1.513-1.504a.534.534 0 0 0 0-.754zM23.28 6.233a1.067 1.067 0 1 1 .753 1.822h-.003a1.067 1.067 0 0 1-.747-1.823h-.002zm-1.256 3.505-.598 2.946-1.175-1.182 1.774-1.763zm-.605-.902-1.92 1.909-1.485-1.493 3.405-.415zM24.004 28.8a1.6 1.6 0 0 1 1.6 1.6v.533H2.137V30.4a1.6 1.6 0 0 1 1.6-1.6h20.267zm-7.467-2.133v1.067h-5.333v-1.067h5.333zM11.204 25.6v-4.053c0-1.294 1.196-2.347 2.667-2.347s2.667 1.053 2.667 2.347V25.6h-5.333zm6.4-1.696v-2.357c0-1.882-1.675-3.413-3.733-3.413a3.8 3.8 0 0 0-3.281 1.786A13.87 13.87 0 0 1 8.311 4.033l18.602 18.708a13.818 13.818 0 0 1-9.309 1.163zm11.289-.684L7.836 2.039l.755-.752 7.935 7.98c.004 0 .006.007.01.01l13.115 13.191-.757.752z" style="fill:var(--color1, #2e2f42)"/>
      <path fill="#4d5ae5" d="M13.876 20.267h-.005a1.6 1.6 0 1 0-.004 3.2h.005a1.6 1.6 0 1 0 .004-3.2zm.373 1.978a.534.534 0 0 1-.752-.756.534.534 0 0 1 .373-.155.534.534 0 0 1 .374.911h.005z" style="fill:var(--color2, #4d5ae5)"/>
    </symbol>
    <symbol id="icon-astronaut-1" viewBox="0 0 32 32">
      <path fill="#4d5ae5" d="M31.974 4.524a.534.534 0 0 0-.43-.363l-1.91-.278-.855-1.731c-.179-.365-.777-.365-.956 0l-.855 1.731-1.91.278a.535.535 0 0 0-.296.91l1.383 1.348-.326 1.903c-.034.2.048.402.212.522a.53.53 0 0 0 .562.04l1.709-.899 1.709.899a.536.536 0 0 0 .775-.563l-.326-1.903 1.383-1.348a.536.536 0 0 0 .135-.547zm-2.463 1.327a.534.534 0 0 0-.153.472l.191 1.114-1-.526a.533.533 0 0 0-.498 0l-1.001.526.191-1.114a.534.534 0 0 0-.153-.472l-.81-.789 1.119-.163a.532.532 0 0 0 .402-.292l.5-1.013.5 1.013a.535.535 0 0 0 .402.292l1.119.163-.809.789zm-3.377 14.671h-1.067v1.067h1.067v-1.067zm0 2.134h-1.067v1.067h1.067v-1.067zm1.066-1.067h-1.067v1.067H27.2v-1.067zm-2.133 0H24v1.067h1.067v-1.067zm-2.667 4.8h-1.067v1.067H22.4v-1.067zm0 2.133h-1.067v1.067H22.4v-1.067zm1.067-1.066H22.4v1.067h1.067v-1.067zm-2.134 0h-1.067v1.067h1.067v-1.067zM16 24.256h-1.067v1.067H16v-1.067zm0 2.133h-1.067v1.067H16v-1.067zm1.067-1.067H16v1.067h1.067v-1.067zm-2.134 0h-1.067v1.067h1.067v-1.067zm-9.066-19.2H4.8v1.067h1.067V6.122zm0 2.133H4.8v1.067h1.067V8.255z" style="fill:var(--color2, #4d5ae5)"/>
      <path fill="#4d5ae5" d="M6.933 7.189H5.866v1.067h1.067V7.189zm-2.133 0H3.733v1.067H4.8V7.189z" style="fill:var(--color2, #4d5ae5)"/>
      <path fill="#2e2f42" d="M24.715 14.159a1.775 1.775 0 0 0-1.188-.705 1.778 1.778 0 0 0-1.34.352l-1.252.96-1.898 1.417-1.358-.541c2.421-1.086 4.114-3.508 4.114-6.32 0-3.823-3.123-6.933-6.961-6.933s-6.961 3.11-6.961 6.933a6.86 6.86 0 0 0 1.12 3.758l-2.764-.024h-.005c-.009 0-.015.004-.023.005a.515.515 0 0 0-.155.031l-.038.013c-.006.003-.013.003-.019.006l-3.233 1.596-.001.001-1.893.911a.397.397 0 0 0-.063.035 1.779 1.779 0 0 0-.598 2.295c.22.429.595.745 1.056.889a1.776 1.776 0 0 0 1.378-.128l1.388-.738 2.264-1.169 1.357-.008L2.2 22.211l-.002.001-1.339 1.333c-.316.315-.49.732-.49 1.178s.174.863.49 1.179c.325.323.752.485 1.179.485s.854-.162 1.18-.485l1.314-1.309 1.741-1.3.901.897-1.762 1.754-.002.001-1.339 1.333c-.316.315-.49.732-.49 1.178s.174.863.49 1.179c.325.323.753.485 1.18.485s.855-.162 1.18-.485l3.482-3.467.001-.002 1.01-1-.004-.004c.006-.006.015-.009.022-.015l5.166-5.658 3.471.494a.52.52 0 0 0 .262-.033c.018-.006.033-.015.05-.023.019-.01.039-.015.058-.027l3.213-2.133c.012-.008.018-.021.029-.029.013-.01.029-.014.041-.026l1.271-1.191c.662-.62.753-1.635.212-2.362zM2.13 17.77a.714.714 0 0 1-.558.052.717.717 0 0 1-.213-1.26l1.314-.632.449 1.313-.992.527zm3.498-1.828-1.548.8-.439-1.283 2.027-1.001-.04 1.484zm15.099-6.62a5.79 5.79 0 0 1-.599 2.559l-4.181-1.899a1.863 1.863 0 0 0-.788-1.388l1.464-4.86c2.378.756 4.105 2.974 4.105 5.588zm-11.789 0c0-3.235 2.644-5.867 5.894-5.867.253 0 .5.021.745.052l-1.432 4.754c-.019-.001-.037-.006-.057-.006-1.033 0-1.873.837-1.873 1.867s.84 1.867 1.873 1.867c.694 0 1.294-.383 1.618-.945l3.862 1.755a5.894 5.894 0 0 1-4.737 2.39c-3.25 0-5.894-2.632-5.894-5.867zm5.956.8c0 .441-.362.8-.806.8s-.806-.359-.806-.8c0-.441.362-.8.806-.8s.806.359.806.8zM2.465 25.146a.608.608 0 0 1-.854.001.592.592 0 0 1 0-.844l.962-.958.851.848-.959.955zm3.214 3.734a.608.608 0 0 1-.855.001.592.592 0 0 1 0-.844l.963-.959.852.848-.96.955zm3.481-3.469-.002.001-1.765 1.76-.852-.848 1.763-1.755.002-.001c.04-.04.065-.088.09-.135.007-.014.02-.026.026-.04.017-.041.019-.085.026-.129.003-.025.014-.047.014-.073 0-.036-.013-.07-.02-.106-.006-.032-.006-.065-.019-.095a.55.55 0 0 0-.091-.138c-.01-.012-.014-.027-.025-.038h-.001l-.001-.002-1.607-1.6c-.017-.017-.039-.024-.058-.038a.507.507 0 0 0-.087-.058.515.515 0 0 0-.093-.033.507.507 0 0 0-.103-.02.5.5 0 0 0-.095.005.53.53 0 0 0-.104.02.477.477 0 0 0-.094.045c-.02.011-.042.015-.061.029L4.23 23.486l-.901-.897 2.399-2.386 4.361 4.289-.928.919zm6.819-7.017c-.015-.002-.03.004-.045.003a.556.556 0 0 0-.3.075.492.492 0 0 0-.083.061c-.013.011-.028.017-.04.029l-4.698 5.146-4.328-4.257 2.833-2.818a.534.534 0 0 0-.379-.911v-.001l-2.219.013.028-1.607 3.104.027a6.947 6.947 0 0 0 4.981 2.101c.437 0 .864-.045 1.279-.123.04.032.079.065.13.085l2.41.96.152.758.178.885-3.003-.427zm4.041.178-.313-1.558 1.446-1.08.947 1.257-2.08 1.381zm3.754-2.831-.838.785-.931-1.236.831-.637a.735.735 0 0 1 .543-.143.718.718 0 0 1 .48.284.713.713 0 0 1-.085.947z" style="fill:var(--color1, #2e2f42)"/>
      <path fill="#2e2f42" d="m13.602 18.544-2.143-2.133a.534.534 0 0 0-.753 0l-2.142 2.133a.537.537 0 0 0 0 .756l2.142 2.133a.536.536 0 0 0 .753 0l2.143-2.133a.535.535 0 0 0 0-.756zm-2.519 1.759-1.387-1.381 1.387-1.381 1.387 1.381-1.387 1.381zm6.081-15.232-.258 1.036c.071.018 1.738.452 1.738 2.149h1.067c0-2.017-1.666-2.965-2.547-3.185zm2.547 4.251h-1.067v1.067h1.067V9.322z" style="fill:var(--color1, #2e2f42)"/>
    </symbol>
    <symbol id="icon-clock-1" viewBox="0 0 32 32">
      <path fill="#2e2f42" d="M31.297 15.301C31.295 6.849 24.442-.002 15.989 0S.686 6.855.688 15.308a15.304 15.304 0 0 0 10.649 14.576.662.662 0 0 0 .529-.065.637.637 0 0 0 .283-.356l3.865-12.25a1.912 1.912 0 1 0-.84-3.635l-5.106-5.107a.637.637 0 0 0-.902.902l5.103 5.109a1.876 1.876 0 0 0 .536 2.309l-3.683 11.673C3.844 25.783.118 17.71 2.799 10.432S13.553-.572 20.831 2.109c7.278 2.681 11.004 10.754 8.323 18.032a14.042 14.042 0 0 1-7.462 7.973l-.398-1.874a.637.637 0 0 0-1.049-.344l-3.837 3.426a.637.637 0 0 0 .231 1.084l4.899 1.564a.638.638 0 0 0 .819-.74l-.391-1.839a15.255 15.255 0 0 0 9.329-14.089zm-15.305-.637a.638.638 0 1 1 0 1.277.638.638 0 0 1 0-1.277zm2.101 14.864 2.184-1.948.603 2.84-2.787-.892z" style="fill:var(--color1, #2e2f42)"/>
      <path fill="#4d5ae5" d="M15.354 3.185V4.46a.638.638 0 1 0 1.276 0V3.185a.638.638 0 0 0-1.276 0zM3.876 14.664a.638.638 0 0 0 0 1.276h1.275a.638.638 0 1 0 0-1.276H3.876zm24.232 1.275a.638.638 0 1 0 0-1.276h-1.275a.638.638 0 0 0 0 1.276h1.275z" style="fill:var(--color2, #4d5ae5)"/>
    </symbol>
    <symbol id="icon-Customers-logo" viewBox="0 0 410 32">
      <path fill="#8e8f99" d="m25.455 8.364 2.548 2.428-4.73-.003v11.779h12.364v-4.504l2.545 2.425V8.364H25.455zm10.07 9.415L28.3 10.895h7.225v6.884zm-2.244 3.066h-8.052v-7.922h.569v7.386h7.483v.536zm-6.446 3.905-.3-.617h-.248l.435.817v.476h.225v-.476l.435-.817h-.247l-.3.617zm1.106-.618h.053l.488 1.293h-.234l-.105-.303h-.5l-.104.303h-.233l.486-1.293h.149zm-.237.814h.378l-.189-.548-.189.548zm1.562-.214-.028-.036c-.033-.044-.059-.086-.077-.127s-.028-.084-.028-.128c0-.067.014-.125.042-.174s.067-.086.118-.112a.374.374 0 0 1 .178-.04c.066 0 .122.013.17.04s.085.061.11.104a.27.27 0 0 1 .039.142c0 .041-.007.078-.022.112s-.035.064-.061.092a.594.594 0 0 1-.091.079l-.09.065.256.302.023-.052a.52.52 0 0 0 .033-.189h.185a.784.784 0 0 1-.019.178.583.583 0 0 1-.095.213l.189.224h-.248l-.075-.088a.49.49 0 0 1-.133.072.606.606 0 0 1-.201.034c-.086 0-.16-.016-.223-.047s-.111-.075-.146-.13a.352.352 0 0 1-.018-.328.427.427 0 0 1 .09-.112c.035-.032.075-.063.12-.095zm.106.129-.027.019c-.031.025-.055.05-.07.074s-.025.044-.029.064a.22.22 0 0 0 .017.155.19.19 0 0 0 .072.074.234.234 0 0 0 .116.027.329.329 0 0 0 .209-.074l-.288-.338zm.051-.236.079-.053c.037-.025.064-.049.08-.073s.024-.054.024-.091a.129.129 0 0 0-.136-.124c-.03 0-.056.007-.076.021s-.036.032-.047.055a.183.183 0 0 0-.015.075c0 .027.007.054.02.083a.442.442 0 0 0 .071.107zm2.262.379h-.222c-.006.056-.02.104-.041.143s-.05.068-.09.088a.337.337 0 0 1-.154.03c-.052 0-.097-.01-.134-.031s-.068-.05-.092-.088c-.024-.038-.041-.083-.053-.136s-.017-.112-.017-.178v-.109c0-.069.006-.13.019-.183s.032-.099.058-.136c.025-.037.057-.064.095-.083s.082-.028.133-.028c.062 0 .112.011.151.032s.067.051.087.091c.02.04.033.087.039.143h.222c-.009-.086-.033-.163-.073-.23s-.094-.119-.165-.157a.547.547 0 0 0-.261-.057c-.081 0-.154.014-.219.043s-.12.07-.166.123c-.046.053-.082.117-.107.193s-.036.159-.036.252v.107c0 .093.012.177.036.252s.059.139.105.193c.046.053.1.093.164.122s.136.043.216.043c.104 0 .193-.019.265-.057s.129-.09.17-.155a.514.514 0 0 0 .071-.226zm1.233-.19v-.071c0-.098-.013-.185-.039-.262s-.062-.144-.109-.198a.456.456 0 0 0-.17-.125.555.555 0 0 0-.436 0 .475.475 0 0 0-.17.125c-.047.054-.084.12-.11.198s-.039.164-.039.262v.071c0 .098.013.185.039.263s.064.144.112.198a.488.488 0 0 0 .388.168.484.484 0 0 0 .387-.168c.047-.054.084-.12.109-.198s.038-.165.038-.263zm-.223-.073v.073c0 .072-.007.136-.021.192s-.034.103-.06.141a.26.26 0 0 1-.23.114c-.049 0-.093-.009-.131-.028s-.072-.048-.099-.086c-.027-.038-.048-.086-.062-.141s-.021-.12-.021-.192v-.073c0-.072.007-.136.021-.191s.035-.102.061-.139c.027-.038.06-.066.099-.085s.082-.029.131-.029.093.01.132.029c.039.019.072.047.099.085s.048.084.061.139a.78.78 0 0 1 .021.191zM99.678 7.976h-.05c-.076-.005-.153-.006-.229-.008h-.165a9.211 9.211 0 0 0-.471.011 10.265 10.265 0 0 0-3.824.976l-.157.076v8.051l.368-.125c.323-.111.667-.211 1.023-.303a12.5 12.5 0 0 1 2.944-.391v1.058a9.775 9.775 0 0 0-.387.011h-.031c-.764.042-1.523.158-2.265.348a11.48 11.48 0 0 0-2.698 1.051V8.405a10.78 10.78 0 0 1 2.831-1.151 10.822 10.822 0 0 1 2.668-.344h.155c.186.005.367.013.537.026.448.032.893.102 1.329.212v1.041a8.124 8.124 0 0 0-1.288-.194l-.026-.002a3.048 3.048 0 0 0-.263-.015zm1.832 1.064c.231.018.47.026.712.026a11.398 11.398 0 0 0 2.805-.36c.939-.236 1.845-.59 2.697-1.052v10.142c-.885.516-1.839.903-2.831 1.151-.872.224-1.768.339-2.668.343a8.126 8.126 0 0 1-2.024-.239V8.843a8.518 8.518 0 0 0 1.309.196zm5.162.079-.368.124c-.339.114-.68.215-1.023.306-.999.257-2.026.388-3.057.392-.24 0-.461-.006-.674-.02l-.293-.019v8.283l.252.022c.233.02.475.03.717.03a9.727 9.727 0 0 0 2.407-.312 10.049 10.049 0 0 0 1.881-.676l.157-.076V9.119zM94.45 22.259a.537.537 0 0 0-.409-.165.614.614 0 0 0-.236.044.525.525 0 0 0-.303.306.595.595 0 0 0-.042.228v1.38a.655.655 0 0 0 .054.283.489.489 0 0 0 .327.283.8.8 0 0 0 .206.029.575.575 0 0 0 .528-.361.572.572 0 0 0 .044-.22v-.154h-.361v.123a.322.322 0 0 1-.021.123.227.227 0 0 1-.052.078.218.218 0 0 1-.075.04.275.275 0 0 1-.076.013.183.183 0 0 1-.17-.074.325.325 0 0 1-.048-.185v-1.286a.445.445 0 0 1 .044-.206.181.181 0 0 1 .176-.083c.031-.001.062.005.09.019s.052.034.071.059a.3.3 0 0 1 .06.185v.119h.357v-.141a.64.64 0 0 0-.165-.435zm2.142-.016a.643.643 0 0 0-.41-.152.606.606 0 0 0-.546.345.643.643 0 0 0-.053.267v1.323a.646.646 0 0 0 .053.271c.032.071.08.134.14.185a.57.57 0 0 0 .191.117c.069.025.142.038.215.039s.146-.013.215-.039a.566.566 0 0 0 .331-.302.646.646 0 0 0 .053-.271v-1.323a.643.643 0 0 0-.053-.267.583.583 0 0 0-.136-.193zm-.168 1.784a.245.245 0 0 1-.071.192.266.266 0 0 1-.34 0c-.025-.024-.045-.054-.057-.088s-.017-.069-.014-.104v-1.323a.245.245 0 0 1 .071-.192.266.266 0 0 1 .34 0c.025.024.045.054.057.088s.017.069.014.104v1.323zm2.982.591v-2.505h-.347l-.456 1.326h-.006l-.459-1.326h-.343v2.505h.358v-1.524h.007l.35 1.077h.179l.353-1.077h.006v1.524h.358zm2.033-2.329a.498.498 0 0 0-.202-.137.82.82 0 0 0-.26-.039h-.532v2.505h.357v-.978h.184a.652.652 0 0 0 .322-.068.52.52 0 0 0 .196-.191.614.614 0 0 0 .082-.218c.014-.094.02-.19.019-.285a1.436 1.436 0 0 0-.035-.358.526.526 0 0 0-.132-.23zm-.184.763a.309.309 0 0 1-.033.13.206.206 0 0 1-.092.088.362.362 0 0 1-.168.031h-.163v-.852h.184a.341.341 0 0 1 .161.031.208.208 0 0 1 .084.092c.02.044.03.091.031.14v.166c0 .058.004.118 0 .172h-.004zm1.875-.939h-.293l-.552 2.505h.357l.105-.538h.487l.105.538h.357l-.565-2.505zm-.329 1.626.176-.908h.007l.175.908h-.357zm2.635-.117h-.007l-.539-1.509h-.343v2.505h.357v-1.506h.007l.545 1.506h.336v-2.505h-.357v1.509zm2.181-1.509-.287.996h-.007l-.287-.996h-.378l.49 1.446v1.059h.357v-1.059l.49-1.446h-.378zm-14.162 3.212h.172v.483h.117v-.483h.171v-.099h-.46v.099zm1.446-.099-.225.582h.124l.048-.132h.232l.05.132h.127l-.231-.582h-.124zm-.019.352.079-.215.079.215h-.158zm1.448.015h.134v.075a.223.223 0 0 1-.138.049c-.024.001-.047-.003-.068-.013s-.04-.024-.055-.043a.241.241 0 0 1-.043-.152c0-.129.056-.194.167-.194a.123.123 0 0 1 .132.093l.115-.022c-.025-.114-.107-.171-.247-.171a.292.292 0 0 0-.203.075.28.28 0 0 0-.083.224.314.314 0 0 0 .075.218c.028.029.063.052.101.067s.079.021.12.018a.352.352 0 0 0 .247-.092v-.229h-.252v.098zm1.46-.367h-.118v.582h.407v-.099h-.289v-.483zm1.234 0h-.117v.582h.117v-.582zm1.207.389-.238-.388h-.114v.582h.109v-.38l.233.38h.117v-.582h-.108v.388zm1.092-.063h.29v-.099h-.29v-.128h.312v-.099h-.429v.582h.441v-.099h-.324v-.157zm2.645-.096h-.229v-.229h-.117v.582h.117v-.254h.229v.254h.117v-.582h-.117v.229zm1.097.096h.291v-.099h-.291v-.128h.313v-.099h-.429v.582h.441v-.099h-.324v-.157zm1.489 0c.101-.016.153-.069.153-.162a.14.14 0 0 0-.057-.13.333.333 0 0 0-.17-.034h-.247v.582h.117v-.243h.023a.153.153 0 0 1 .073.013.12.12 0 0 1 .041.043l.127.185h.14l-.071-.114a.402.402 0 0 0-.129-.14zm-.118-.081h-.086v-.146h.092c.04-.003.08.001.119.014.008.008.015.017.02.027s.007.022.006.033c0 .011-.004.022-.009.032s-.013.019-.022.025a.344.344 0 0 1-.119.014zm1.24.081h.289v-.099h-.289v-.128h.313v-.099h-.431v.582h.441v-.099h-.324v-.157zm56.982-1.834a.042.042 0 0 1 .031.012l.08.076a.65.65 0 0 1-.226.143.884.884 0 0 1-.32.051.871.871 0 0 1-.301-.048.667.667 0 0 1-.227-.136.608.608 0 0 1-.147-.209.69.69 0 0 1-.051-.268.616.616 0 0 1 .211-.478.722.722 0 0 1 .241-.136.953.953 0 0 1 .31-.048.748.748 0 0 1 .504.165l-.067.081a.08.08 0 0 1-.017.015c-.008.005-.017.007-.027.006s-.02-.004-.029-.009l-.036-.021-.05-.027a.78.78 0 0 0-.067-.027.706.706 0 0 0-.434.006.463.463 0 0 0-.288.262.539.539 0 0 0-.041.213.553.553 0 0 0 .041.216.474.474 0 0 0 .279.259.6.6 0 0 0 .207.034c.041 0 .082-.002.123-.007a.494.494 0 0 0 .265-.111.07.07 0 0 1 .038-.014zm2.319-.38a.654.654 0 0 1-.054.267c-.033.077-.084.148-.151.207s-.148.105-.237.136a.993.993 0 0 1-.61 0 .708.708 0 0 1-.236-.136.607.607 0 0 1-.153-.209.687.687 0 0 1 0-.534.62.62 0 0 1 .389-.341.978.978 0 0 1 .61 0c.089.031.17.077.237.136s.118.13.152.207a.643.643 0 0 1 .054.268zm-.211 0a.544.544 0 0 0-.038-.214.436.436 0 0 0-.108-.16.473.473 0 0 0-.169-.101.717.717 0 0 0-.444 0 .483.483 0 0 0-.17.101.424.424 0 0 0-.108.16.62.62 0 0 0 0 .429.449.449 0 0 0 .278.26c.143.046.3.046.444 0a.477.477 0 0 0 .169-.1.458.458 0 0 0 .108-.16.547.547 0 0 0 .038-.214zm1.793.225.021.048.023-.048c.008-.015.016-.032.026-.047l.513-.797c.01-.014.019-.022.029-.025a.12.12 0 0 1 .042-.004h.152v1.296h-.18v-.993a.338.338 0 0 1 0-.045l-.516.808c-.007.012-.017.022-.03.029s-.028.011-.044.011h-.029c-.016 0-.031-.004-.044-.011s-.024-.017-.03-.03l-.531-.813v1.04h-.173v-1.293h.152a.15.15 0 0 1 .042.004.057.057 0 0 1 .028.025l.524.798a.3.3 0 0 1 .026.046zm1.93-.064v.485h-.201V22.69h.448a.999.999 0 0 1 .25.028.502.502 0 0 1 .177.081.33.33 0 0 1 .1.127.383.383 0 0 1 .034.166.362.362 0 0 1-.145.296.526.526 0 0 1-.178.086.892.892 0 0 1-.242.03l-.243-.003zm0-.139h.243a.548.548 0 0 0 .156-.02.337.337 0 0 0 .112-.056.234.234 0 0 0 .068-.086.234.234 0 0 0 .024-.109c.002-.036-.005-.072-.02-.105s-.04-.064-.07-.088a.435.435 0 0 0-.27-.069h-.243v.533zm2.698.626h-.159a.083.083 0 0 1-.044-.012.083.083 0 0 1-.026-.03l-.136-.313h-.686l-.141.313a.076.076 0 0 1-.025.029.079.079 0 0 1-.045.013h-.159l.602-1.296h.209l.61 1.296zm-.994-.481h.566l-.239-.527a.778.778 0 0 1-.045-.122l-.023.068c-.007.021-.015.039-.022.055l-.237.527zm1.862-.809a.1.1 0 0 1 .03.023l.879.977V22.69h.18v1.296h-.1c-.014 0-.028-.002-.041-.008s-.024-.014-.032-.024l-.877-.976v1.008h-.18V22.69h.106c.012 0 .025.002.036.006zm2.567.774v.515h-.201v-.515l-.555-.78h.18a.07.07 0 0 1 .043.011c.011.008.02.018.027.029l.347.503a.68.68 0 0 1 .061.115l.026-.056a.5.5 0 0 1 .034-.059l.343-.507a.133.133 0 0 1 .026-.027.066.066 0 0 1 .043-.013h.182l-.556.784zm-8.163-2.955c.087.009.176.017.265.024 1.354-.518 2.5-1.365 3.294-2.436s1.201-2.318 1.169-3.585l-1.492-1.275c.303 1.349.161 2.744-.41 4.029s-1.55 2.408-2.826 3.244z" style="fill:var(--color3, #8e8f99)"/>
      <path fill="#8e8f99" d="m167.926 20.456.04.007c1.364-.833 2.403-1.997 2.984-3.341s.677-2.805.276-4.196L169.1 11.11c.86 1.493 1.206 3.164.998 4.818s-.961 3.225-2.173 4.528zm7.21-4.441c-.361 1.393-1.239 2.648-2.501 3.581a8.02 8.02 0 0 1-1.188.729c1.028-.258 1.974-.715 2.763-1.335s1.401-1.386 1.789-2.24l-.862-.736z" style="fill:var(--color3, #8e8f99)"/>
      <path fill="#8e8f99" d="m174.798 15.81-1.228-1.049c-.024 1.196-.421 2.364-1.152 3.384s-1.768 1.854-3.004 2.416h.006c.275 0 .551-.014.824-.042 1.155-.403 2.176-1.044 2.97-1.865s1.339-1.799 1.584-2.844zm-6.694-5.466-1.464-1.253c-1.309.432-2.435 1.192-3.231 2.18s-1.223 2.158-1.227 3.357c.005 1.325.527 2.611 1.483 3.654s2.293 1.784 3.797 2.105c1.343-1.398 2.13-3.126 2.245-4.932s-.447-3.597-1.604-5.111zm10.078 5.273c-.005-1.572-.739-3.079-2.04-4.19s-3.064-1.738-4.904-1.743a7.911 7.911 0 0 0-2.486.395l8.967 7.661a5.13 5.13 0 0 0 .464-2.123zm51.665-1.974h-.001c-.867 0-1.571.634-1.571 1.416v.001c0 .782.703 1.416 1.571 1.416h.001c.868 0 1.571-.634 1.571-1.416v-.001c0-.782-.703-1.416-1.571-1.416zm11.593-.453c-.002-1.086-.482-2.128-1.334-2.896s-2.007-1.201-3.212-1.203c-1.205.002-2.36.434-3.213 1.203s-1.332 1.81-1.335 2.896v5.991s9.092-.913 9.093-5.99v-.001zm-16.349 7.957c.002.756.336 1.48.929 2.015s1.396.836 2.235.838c.838-.002 1.641-.303 2.234-.838s.927-1.259.929-2.014V16.98s-6.327.636-6.327 4.167zm3.163.747c-.164 0-.324-.044-.46-.126s-.242-.199-.305-.335-.079-.287-.047-.432.111-.278.227-.382c.116-.104.264-.176.424-.204s.327-.014.479.043a.82.82 0 0 1 .372.275.696.696 0 0 1-.101.945c-.077.07-.168.125-.269.163s-.209.057-.318.057v-.003zm5.786-1.343v1.551h-.32v-1.551h.32zm.617.663v.249h-.705v-.249h.705zm.075-.663v.25h-.78v-.25h.78zm1.46.739v.074c0 .118-.016.224-.048.317s-.077.174-.135.24c-.058.065-.128.115-.209.15s-.169.052-.268.052c-.097 0-.186-.017-.267-.052s-.15-.085-.209-.15c-.059-.066-.105-.146-.137-.24s-.048-.2-.048-.317v-.074c0-.119.016-.224.048-.317s.077-.174.135-.24c.059-.066.128-.116.209-.151s.17-.052.268-.052.187.017.267.052.151.085.209.151c.059.066.104.146.136.24s.049.199.049.317zm-.323.074v-.076c0-.082-.007-.155-.022-.217s-.037-.115-.066-.158c-.029-.043-.065-.075-.107-.096s-.09-.033-.144-.033a.282.282 0 0 0-.249.129c-.028.043-.05.095-.065.158s-.022.135-.022.217v.076c0 .082.007.154.022.217s.037.115.066.159a.29.29 0 0 0 .251.13.278.278 0 0 0 .249-.13c.028-.043.05-.096.065-.159s.022-.136.022-.217zm1.36.332a.197.197 0 0 0-.013-.075c-.008-.023-.023-.043-.045-.062s-.053-.038-.093-.056a1.382 1.382 0 0 0-.155-.058c-.07-.023-.137-.048-.2-.077s-.118-.061-.166-.099c-.048-.038-.085-.083-.113-.133s-.04-.109-.04-.176c0-.065.014-.123.043-.176s.068-.099.119-.136a.565.565 0 0 1 .181-.088.807.807 0 0 1 .53.031.484.484 0 0 1 .198.169.433.433 0 0 1 .071.246h-.317c0-.045-.009-.085-.029-.119s-.047-.062-.085-.082a.303.303 0 0 0-.143-.03c-.055 0-.101.009-.139.026s-.064.039-.083.067a.162.162 0 0 0-.028.094c0 .026.006.05.019.071.014.021.033.041.06.06s.059.036.097.052c.039.016.083.032.133.048.085.026.159.054.223.086s.119.068.162.108.076.085.098.135c.022.05.033.108.033.172a.368.368 0 0 1-.153.316.524.524 0 0 1-.178.084.869.869 0 0 1-.458-.001.671.671 0 0 1-.203-.093c-.06-.041-.109-.094-.145-.158s-.054-.14-.054-.227h.321c0 .048.007.089.022.122s.036.06.063.081c.028.021.06.035.098.045a.494.494 0 0 0 .261-.009.17.17 0 0 0 .107-.159zm1.231-1.145v1.551h-.319v-1.551h.319zm.477 0v.25h-1.266v-.25h1.266zm1.223 1.302v.249h-.826v-.249h.826zm-.721-1.302v1.551h-.32v-1.551h.32zm.613.632v.243h-.718v-.243h.718zm.107-.632v.25h-.825v-.25h.825zm.188 0h.578c.119 0 .221.018.306.053.086.036.152.088.198.158s.069.155.069.257a.486.486 0 0 1-.043.214.406.406 0 0 1-.118.148.627.627 0 0 1-.178.094l-.101.053h-.503l-.002-.249h.374c.056 0 .103-.01.14-.03s.065-.048.083-.083a.258.258 0 0 0 .029-.124c0-.05-.009-.093-.028-.129s-.047-.064-.084-.083a.312.312 0 0 0-.142-.029h-.259v1.301h-.32v-1.551zm.866 1.551-.353-.691.337-.002.358.679v.015h-.342zm1.679-.553h-.395V21.3h.395c.061 0 .111-.01.149-.03s.066-.049.084-.085.027-.077.027-.122c0-.046-.009-.089-.027-.129s-.046-.072-.084-.096a.279.279 0 0 0-.149-.036h-.285v1.301h-.319v-1.551h.604c.121 0 .225.022.312.066a.474.474 0 0 1 .269.443c0 .1-.023.187-.069.26s-.113.13-.2.169a.742.742 0 0 1-.312.06zm1.843.304v.249h-.825v-.249h.825zm-.722-1.302v1.551h-.32v-1.551h.32zm.614.632v.243h-.718v-.243h.718zm.106-.632v.25h-.824v-.25h.824zm.903 0v1.551h-.319v-1.551h.319zm.477 0v.25h-1.265v-.25h1.265zm1.223 1.302v.249h-.825v-.249h.825zm-.721-1.302v1.551h-.32v-1.551h.32zm.613.632v.243h-.718v-.243h.718zm.107-.632v.25h-.824v-.25h.824zm.188 0h.579c.119 0 .22.018.306.053s.152.088.198.158.069.155.069.257c0 .083-.014.154-.043.214s-.067.108-.118.148a.64.64 0 0 1-.178.094l-.101.053h-.503l-.002-.249h.374c.056 0 .103-.01.139-.03s.065-.048.083-.083a.258.258 0 0 0 .029-.124c0-.05-.009-.093-.028-.129s-.047-.064-.084-.083a.31.31 0 0 0-.141-.029h-.259v1.301h-.32v-1.551zm.867 1.551-.354-.691.338-.002.358.679v.015h-.342zm1.338-.406a.197.197 0 0 0-.013-.075c-.008-.023-.023-.043-.045-.062s-.053-.038-.093-.056a1.434 1.434 0 0 0-.154-.058c-.071-.023-.137-.048-.2-.077s-.118-.061-.166-.099c-.048-.038-.085-.083-.113-.133s-.04-.109-.04-.176c0-.065.014-.123.043-.176s.068-.099.119-.136a.565.565 0 0 1 .181-.088.812.812 0 0 1 .53.031.484.484 0 0 1 .198.169.433.433 0 0 1 .071.246h-.317a.23.23 0 0 0-.029-.119c-.018-.035-.047-.062-.085-.082s-.085-.03-.143-.03c-.055 0-.101.009-.139.026s-.064.039-.083.067a.162.162 0 0 0-.028.094c0 .026.006.05.019.071s.033.041.06.06c.026.018.059.036.097.052s.083.032.133.048c.085.026.159.054.223.086s.119.068.162.108.076.085.098.135c.022.05.033.108.033.172a.368.368 0 0 1-.153.316.524.524 0 0 1-.178.084.869.869 0 0 1-.458-.001.671.671 0 0 1-.203-.093c-.06-.041-.109-.094-.145-.158s-.054-.14-.054-.227h.321c0 .048.007.089.022.122s.036.06.063.081c.028.021.06.035.098.045a.494.494 0 0 0 .261-.009.17.17 0 0 0 .107-.159zm50.924.258a.509.509 0 0 1 .134.352c.005.083-.012.167-.048.244s-.091.146-.16.201a.967.967 0 0 1-.605.162h-1.064v-2.23h1.042c.206-.012.41.04.577.148.067.051.121.115.156.187s.051.151.047.23a.484.484 0 0 1-.121.341.572.572 0 0 1-.317.174.62.62 0 0 1 .359.191zm-1.248-.337h.445a.459.459 0 0 0 .283-.074.256.256 0 0 0 .096-.218.258.258 0 0 0-.094-.218.465.465 0 0 0-.292-.075h-.438v.585zm.772.855c.036-.028.064-.063.082-.102s.026-.082.023-.124a.263.263 0 0 0-.108-.229.497.497 0 0 0-.302-.081h-.467v.613h.473a.508.508 0 0 0 .299-.077zm2.605.44-.58-.872h-.218v.872h-.499v-2.23h.944a.998.998 0 0 1 .657.19c.132.121.212.28.224.45s-.042.337-.154.473a.793.793 0 0 1-.45.227l.617.891h-.542zm-.797-1.175h.408c.283 0 .425-.113.425-.338.003-.046-.005-.092-.023-.135s-.046-.082-.081-.115a.475.475 0 0 0-.321-.09h-.413l.005.679zm3.523.727h-.993l-.176.449h-.523l.913-2.205h.565l.909 2.205h-.523l-.172-.449zm-.134-.338-.363-.941-.363.941h.726zm3.544.787h-.495l-1.109-1.516v1.516h-.494v-2.23h.494l1.109 1.525v-1.525h.495v2.23zm2.825-.534a1.024 1.024 0 0 1-.448.393 1.604 1.604 0 0 1-.696.141h-.881v-2.23h.881c.241-.006.48.041.696.137.189.086.345.222.448.389a1.19 1.19 0 0 1 0 1.17zm-.566-.054c.141-.148.219-.337.219-.532s-.078-.384-.219-.532a.928.928 0 0 0-.62-.19h-.344v1.443h.344a.919.919 0 0 0 .62-.19zm-5.36-14.046s6.388 2.171 6.252 5.313v5.314s-6.383-2.172-6.25-5.314l-.002-5.313zm11.944 9.383a9.378 9.378 0 0 1 4.059-1.346v-1.663c-1.679.582-3.102 1.638-4.059 3.01z" style="fill:var(--color3, #8e8f99)"/>
      <path fill="#8e8f99" d="M317.035 18.163c.987-1.79 2.699-3.171 4.783-3.86V9.51s-9.097 3.093-8.905 7.567v7.566s.405-.138 1.043-.398c0-.242 0-.486.029-.731.188-2.077 1.285-4.002 3.049-5.351z" style="fill:var(--color3, #8e8f99)"/>
      <path fill="#8e8f99" d="M316.169 20.973a7.108 7.108 0 0 1 .319-1.549c-1.099 1.165-1.764 2.611-1.903 4.134-.013.144-.02.288-.024.436a27.346 27.346 0 0 0 1.75-.83 7.081 7.081 0 0 1-.142-2.191zm.362.028c-.06.663-.023 1.33.113 1.984 2.485-1.339 5.278-3.408 5.171-5.908v-.218c-1.776.179-3.437.878-4.729 1.989a6.853 6.853 0 0 0-.554 2.153zm63.662-5.203a1.085 1.085 0 0 1-.222-.724v-1.05c0-.322.073-.567.222-.734.145-.167.396-.251.753-.25.335 0 .571.071.709.214a.866.866 0 0 1 .211.628v.247h-.596v-.25c0-.082-.004-.164-.018-.245a.238.238 0 0 0-.084-.145.354.354 0 0 0-.218-.057.367.367 0 0 0-.229.06.278.278 0 0 0-.098.16 1.084 1.084 0 0 0-.022.26v1.275a.628.628 0 0 0 .076.358.264.264 0 0 0 .12.087.318.318 0 0 0 .153.02.322.322 0 0 0 .211-.058.258.258 0 0 0 .091-.155c.015-.085.018-.17.018-.255v-.259h.596v.236a.948.948 0 0 1-.207.66c-.135.156-.371.234-.713.234-.345 0-.607-.083-.753-.256zm2.491.01c-.153-.163-.229-.402-.229-.717v-1.105c0-.312.076-.548.229-.708.149-.16.404-.24.756-.239s.604.08.753.239c.153.16.229.396.229.708v1.105c0 .312-.076.551-.229.716-.156.165-.404.247-.753.247s-.604-.083-.756-.246zm1.036-.265a.644.644 0 0 0 .069-.327v-1.353a.596.596 0 0 0-.069-.321.27.27 0 0 0-.124-.088.325.325 0 0 0-.156-.019.324.324 0 0 0-.156.019.27.27 0 0 0-.124.088c-.055.1-.08.21-.073.32v1.359a.609.609 0 0 0 .073.327.356.356 0 0 0 .124.081.44.44 0 0 0 .309 0 .4.4 0 0 0 .127-.081v-.006zm1.422-2.472h.644l.484 2.038.495-2.038h.625l.065 2.942h-.465l-.047-2.045-.48 2.045h-.371l-.495-2.052-.047 2.052h-.465l.058-2.942zm3.033 0h1.004c.578 0 .865.278.865.835 0 .533-.302.8-.913.799h-.342v1.308h-.618l.004-2.942zm.858 1.258a.482.482 0 0 0 .342-.093.475.475 0 0 0 .087-.332.924.924 0 0 0-.029-.267.245.245 0 0 0-.123-.14.636.636 0 0 0-.276-.047h-.24v.879h.24zm1.905-1.258h.665l.68 2.942h-.575l-.135-.678h-.596l-.138.678h-.585l.684-2.942zm.567 1.923-.233-1.235-.229 1.235h.462zm1.331-1.923h.433l.829 1.678v-1.678h.513v2.942h-.411l-.833-1.752v1.752h-.535l.004-2.942zm2.979 1.821-.687-1.816h.578l.422 1.167.396-1.167h.567l-.68 1.816v1.122h-.596v-1.122zm-14.666 2.407v.154h-.505v1.195h-.211v-1.195h-.509v-.154h1.225zm1.582 1.35h-.164a.067.067 0 0 1-.044-.013.072.072 0 0 1-.029-.031l-.145-.32h-.702l-.145.32a.08.08 0 0 1-.022.036.078.078 0 0 1-.047.013h-.164l.622-1.349h.215l.625 1.344zm-1.026-.501h.585l-.247-.549a1.492 1.492 0 0 1-.047-.127l-.022.072-.022.057-.247.548zm2.095.368a.667.667 0 0 0 .301-.041c.029-.01.055-.021.084-.033v-.303h-.247c-.004 0-.011 0-.018-.002l-.015-.008-.011-.011V18h.48v.517a.907.907 0 0 1-.262.11 1.13 1.13 0 0 1-.156.028c-.058.006-.12.009-.178.009a.93.93 0 0 1-.313-.05.715.715 0 0 1-.247-.141.636.636 0 0 1-.218-.494c0-.096.018-.192.055-.282a.636.636 0 0 1 .16-.214.794.794 0 0 1 .247-.14c.109-.034.222-.051.335-.05.058 0 .113.004.171.012a.889.889 0 0 1 .273.087.958.958 0 0 1 .105.07l-.058.083a.037.037 0 0 1-.022.018.047.047 0 0 1-.025.007.075.075 0 0 1-.04-.011c-.018-.009-.04-.019-.062-.032-.025-.014-.055-.026-.08-.036a.825.825 0 0 0-.512-.005.519.519 0 0 0-.182.107.442.442 0 0 0-.113.168.604.604 0 0 0 0 .45.46.46 0 0 0 .124.17.556.556 0 0 0 .178.107c.08.023.164.032.247.027zm1.971-.021h.676v.154h-.88V17.3h.211l-.007 1.195zm1.382.154h-.215V17.3h.215v1.349zm.785-1.343a.078.078 0 0 1 .033.025l.905 1.017v-1.054h.185v1.355h-.109c-.015.001-.029-.002-.044-.008s-.025-.015-.033-.026l-.905-1.016v1.05h-.178V17.3h.113c.011 0 .022.002.033.006zm2.68-.007v.148h-.749v.445h.607v.143h-.607v.46h.749v.148h-.967v-1.346h.967zm-22.182-8.332 9.4 2.303v8.071l-9.4-2.302V8.967zm-.603-.688v9.152l10.604 2.599v-9.151l-10.604-2.6z" style="fill:var(--color3, #8e8f99)"/>
      <path fill="#8e8f99" d="m373.516 24.279-10.607-2.601v-9.151l10.607 2.6v9.152zm-5.509-15.416 9.28 2.274-3.949 3.406-9.276-2.276 3.945-3.405zm-.174-.584-4.924 4.248 10.607 2.6 4.92-4.248-10.604-2.6zm6.28 15.485 4.324-3.733-4.324-1.061v4.793z" style="fill:var(--color3, #8e8f99)"/>
    </symbol>
    <symbol id="icon-diagram-1" viewBox="0 0 32 32">
      <path fill="#4d5ae5" d="M14.926 14.965h1.066v4.798h-1.066v-4.797zm4.264 2.132h1.066v2.665H19.19v-2.665zm-8.529 1.599h1.066v1.066h-1.066v-1.066zm-3.198-.533h1.066v1.599H7.463v-1.599z" style="fill:var(--color2, #4d5ae5)"/>
      <path fill="#2e2f42" d="M1.599 28.291h25.587a1.6 1.6 0 0 0 1.599-1.599V24.56a1.6 1.6 0 0 0-1.599-1.599h-.533V9.668L29.681 6.8a1.608 1.608 0 1 0-.746-.763L26.654 8.2V6.97a1.6 1.6 0 0 0-1.599-1.599H3.733A1.6 1.6 0 0 0 2.134 6.97v15.992h-.533a1.6 1.6 0 0 0-1.599 1.599v2.132a1.6 1.6 0 0 0 1.599 1.599zM30.384 4.837a.533.533 0 1 1 0 1.067.533.533 0 0 1 0-1.067zM3.198 6.969c0-.294.239-.533.533-.533h21.322c.294 0 .533.239.533.533v2.239l-1.066 1.013V8.035a.533.533 0 0 0-.533-.533H4.797a.533.533 0 0 0-.533.533v13.326c0 .294.239.533.533.533h19.19a.533.533 0 0 0 .533-.533v-9.674l1.066-1.01v12.284H3.198V6.969zm4.798 6.93a1.598 1.598 0 1 0 1.107 2.749l1.853.93a.532.532 0 0 0 .636-.123l3.939-4.431 3.872 2.901a.533.533 0 0 0 .686-.039l3.365-3.188v8.131H5.33V8.569h18.124v2.66l-3.771 3.572-3.904-2.927a.533.533 0 0 0-.718.072l-3.993 4.493-1.493-.746c.011-.064.018-.129.02-.193a1.6 1.6 0 0 0-1.599-1.599zm.533 1.599a.533.533 0 1 1-1.067 0 .533.533 0 0 1 1.067 0zm3.198 8.529h5.331v.533a.533.533 0 0 1-.533.533h-4.264a.533.533 0 0 1-.533-.533v-.533zm-10.661.533c0-.294.239-.533.533-.533h9.062v.533a1.6 1.6 0 0 0 1.599 1.599h4.264a1.6 1.6 0 0 0 1.599-1.599v-.533h9.062c.294 0 .533.239.533.533v2.132a.533.533 0 0 1-.533.533H1.598a.533.533 0 0 1-.533-.533V24.56z" style="fill:var(--color1, #2e2f42)"/>
    </symbol>
    <symbol id="icon-Social-Links" viewBox="0 0 166 32">
      <path fill="#4d5ae5" d="M32 16c0 4.418-1.791 8.418-4.686 11.314S20.419 32 16 32c-4.418 0-8.418-1.791-11.314-4.686S0 20.419 0 16c0-4.418 1.791-8.418 4.686-11.314S11.581 0 16 0c4.418 0 8.418 1.791 11.314 4.686S32 11.581 32 16z" style="fill:var(--color2, #4d5ae5)"/>
      <path fill="#f4f4fd" d="M25.581 12.045c-.045-1.02-.21-1.722-.446-2.329a4.693 4.693 0 0 0-1.11-1.703 4.714 4.714 0 0 0-1.699-1.106c-.611-.236-1.309-.401-2.329-.446-1.028-.049-1.354-.06-3.961-.06s-2.933.011-3.957.056c-1.02.045-1.722.21-2.329.446a4.693 4.693 0 0 0-1.703 1.11 4.723 4.723 0 0 0-1.106 1.699c-.236.611-.401 1.309-.446 2.329-.049 1.028-.06 1.354-.06 3.961s.011 2.933.056 3.957c.045 1.02.21 1.722.446 2.329a4.745 4.745 0 0 0 1.11 1.703c.48.488 1.061.866 1.699 1.106.611.236 1.309.401 2.329.446 1.024.045 1.35.056 3.957.056s2.933-.011 3.957-.056c1.02-.045 1.722-.21 2.329-.446a4.912 4.912 0 0 0 2.809-2.809c.236-.611.401-1.309.446-2.329.045-1.024.056-1.35.056-3.957s-.004-2.933-.049-3.957zm-1.729 7.839c-.041.938-.199 1.444-.33 1.782a3.187 3.187 0 0 1-1.823 1.823c-.338.131-.848.289-1.782.33-1.013.045-1.316.056-3.878.056s-2.869-.011-3.878-.056c-.938-.041-1.444-.199-1.782-.33a2.972 2.972 0 0 1-1.103-.716 2.964 2.964 0 0 1-.716-1.103c-.131-.338-.289-.848-.33-1.782-.045-1.013-.056-1.317-.056-3.878s.011-2.869.056-3.878c.041-.938.199-1.444.33-1.782.154-.416.398-.795.72-1.103a2.964 2.964 0 0 1 1.103-.716c.338-.131.848-.289 1.782-.33 1.013-.045 1.317-.056 3.878-.056 2.566 0 2.869.011 3.878.056.938.041 1.444.199 1.782.33a2.96 2.96 0 0 1 1.103.716c.319.311.563.686.716 1.103.131.338.289.848.33 1.782.045 1.013.056 1.316.056 3.878s-.011 2.862-.056 3.875z" style="fill:var(--color4, #f4f4fd)"/>
      <path fill="#f4f4fd" d="M16.036 11.07a4.933 4.933 0 0 0 0 9.864 4.933 4.933 0 0 0 0-9.864zm0 8.131a3.2 3.2 0 1 1 .002-6.4 3.2 3.2 0 0 1-.002 6.4zm6.278-8.326a1.151 1.151 0 1 1-2.303 0 1.151 1.151 0 0 1 2.303 0z" style="fill:var(--color4, #f4f4fd)"/>
      <path fill="#4d5ae5" d="M76.8 16c0 4.418-1.791 8.418-4.686 11.314S65.219 32 60.8 32c-4.418 0-8.418-1.791-11.314-4.686S44.8 20.419 44.8 16c0-4.418 1.791-8.418 4.686-11.314S56.381 0 60.8 0c4.418 0 8.418 1.791 11.314 4.686S76.8 11.581 76.8 16z" style="fill:var(--color2, #4d5ae5)"/>
      <path fill="#f4f4fd" d="M70.4 10.047a8.223 8.223 0 0 1-2.268.622 3.915 3.915 0 0 0 1.732-2.176 7.866 7.866 0 0 1-2.496.953 3.936 3.936 0 0 0-6.809 2.691c0 .312.026.612.091.898a11.143 11.143 0 0 1-8.113-4.117 3.96 3.96 0 0 0-.539 1.99c0 1.363.702 2.572 1.748 3.271a3.888 3.888 0 0 1-1.778-.485v.043a3.954 3.954 0 0 0 3.154 3.868c-.32.088-.67.13-1.032.13-.252 0-.506-.014-.745-.067.51 1.559 1.957 2.705 3.678 2.742a7.907 7.907 0 0 1-4.88 1.679c-.323 0-.632-.014-.942-.054a11.085 11.085 0 0 0 6.038 1.766c7.243 0 11.203-6 11.203-11.201 0-.174-.006-.342-.014-.509a7.845 7.845 0 0 0 1.973-2.044z" style="fill:var(--color4, #f4f4fd)"/>
      <path fill="#4d5ae5" d="M121.6 16c0 4.418-1.791 8.418-4.686 11.314S110.019 32 105.6 32c-4.418 0-8.418-1.791-11.314-4.686S89.6 20.419 89.6 16c0-4.418 1.791-8.418 4.686-11.314S101.181 0 105.6 0c4.418 0 8.418 1.791 11.314 4.686S121.6 11.581 121.6 16z" style="fill:var(--color2, #4d5ae5)"/>
      <path fill="#f4f4fd" d="M108.798 9.588h1.753V6.535a22.54 22.54 0 0 0-2.554-.135c-2.527 0-4.258 1.59-4.258 4.511V13.6h-2.789v3.413h2.789V25.6h3.419v-8.586h2.676l.425-3.413h-3.102V11.25c.001-.986.266-1.662 1.641-1.662z" style="fill:var(--color4, #f4f4fd)"/>
      <path fill="#4d5ae5" d="M166.4 16c0 4.418-1.791 8.418-4.686 11.314S154.819 32 150.4 32c-4.418 0-8.418-1.791-11.314-4.686S134.4 20.419 134.4 16c0-4.418 1.791-8.418 4.686-11.314S145.981 0 150.4 0c4.418 0 8.418 1.791 11.314 4.686S166.4 11.581 166.4 16z" style="fill:var(--color2, #4d5ae5)"/>
      <path fill="#f4f4fd" d="M159.995 25.6v-.001H160v-7.042c0-3.445-.742-6.098-4.769-6.098-1.936 0-3.235 1.062-3.766 2.07h-.056v-1.748h-3.818v12.818h3.976v-6.347c0-1.671.317-3.287 2.386-3.287 2.039 0 2.07 1.907 2.07 3.394V25.6h3.972zm-18.878-12.818h3.981V25.6h-3.981V12.782zm1.989-6.382c-1.273 0-2.306 1.033-2.306 2.306s1.033 2.327 2.306 2.327c1.273 0 2.306-1.054 2.306-2.327S144.378 6.4 143.106 6.4z" style="fill:var(--color4, #f4f4fd)"/>
    </symbol>
    <symbol id="icon-Traling-Icons" viewBox="0 0 186 32">
      <path fill="#4d5ae5" d="M32 16c0 4.418-1.791 8.418-4.686 11.314S20.419 32 16 32c-4.418 0-8.418-1.791-11.314-4.686S0 20.419 0 16c0-4.418 1.791-8.418 4.686-11.314S11.581 0 16 0c4.418 0 8.418 1.791 11.314 4.686S32 11.581 32 16z" style="fill:var(--color2, #4d5ae5)"/>
      <path fill="#f4f4fd" d="M22.387 13.363c-.03-.68-.14-1.148-.298-1.553a3.136 3.136 0 0 0-.74-1.135 3.153 3.153 0 0 0-1.133-.738c-.408-.158-.873-.268-1.553-.298-.685-.032-.903-.04-2.641-.04s-1.955.008-2.638.038c-.68.03-1.148.14-1.553.298-.43.162-.815.413-1.135.74-.325.32-.578.708-.738 1.133-.158.408-.268.873-.298 1.553-.032.685-.04.903-.04 2.641s.008 1.955.038 2.638c.03.68.14 1.148.298 1.553.162.43.415.815.74 1.135.32.325.708.578 1.133.738.408.158.873.268 1.553.298.683.03.9.038 2.638.038s1.955-.007 2.638-.038c.68-.03 1.148-.14 1.553-.298a3.278 3.278 0 0 0 1.873-1.873c.157-.408.268-.873.298-1.553.03-.683.038-.9.038-2.638s-.003-1.955-.033-2.638zm-1.152 5.226c-.028.625-.133.963-.22 1.188-.215.558-.658 1-1.215 1.215-.225.088-.565.193-1.188.22-.675.03-.878.037-2.585.037s-1.913-.007-2.586-.037c-.625-.027-.963-.132-1.188-.22a1.966 1.966 0 0 1-.735-.478 1.998 1.998 0 0 1-.478-.735c-.088-.225-.193-.565-.22-1.188-.03-.675-.038-.878-.038-2.586s.007-1.913.038-2.586c.027-.625.132-.963.22-1.188.103-.278.265-.53.48-.735a1.99 1.99 0 0 1 .735-.478c.225-.087.565-.192 1.188-.22.675-.03.878-.038 2.586-.038 1.71 0 1.913.008 2.586.038.625.028.963.133 1.188.22.277.102.53.265.735.478.212.208.375.458.478.735.088.225.192.565.22 1.188.03.675.038.878.038 2.586s-.008 1.908-.038 2.583z" style="fill:var(--color4, #f4f4fd)"/>
      <path fill="#f4f4fd" d="M16.024 12.713a3.29 3.29 0 0 0 0 6.576 3.29 3.29 0 0 0 0-6.576zm0 5.421a2.133 2.133 0 1 1 0-4.266 2.133 2.133 0 0 1 0 4.266zm4.186-5.551a.768.768 0 1 1-1.536 0 .768.768 0 0 1 1.536 0z" style="fill:var(--color4, #f4f4fd)"/>
      <path fill="#4d5ae5" d="M83.2 16c0 4.418-1.791 8.418-4.686 11.314S71.619 32 67.2 32s-8.418-1.791-11.314-4.686C52.991 24.419 51.2 20.419 51.2 16s1.791-8.418 4.686-11.314C58.781 1.791 62.781 0 67.2 0s8.418 1.791 11.314 4.686A15.95 15.95 0 0 1 83.2 16z" style="fill:var(--color2, #4d5ae5)"/>
      <path fill="#f4f4fd" d="M73.6 12.031a5.455 5.455 0 0 1-1.512.414 2.608 2.608 0 0 0 1.154-1.45 5.245 5.245 0 0 1-1.664.635 2.623 2.623 0 0 0-4.539 1.795c0 .208.018.408.061.598a7.426 7.426 0 0 1-5.409-2.745 2.628 2.628 0 0 0 .807 3.507 2.591 2.591 0 0 1-1.186-.323v.029c0 1.275.91 2.334 2.102 2.578a2.636 2.636 0 0 1-.688.086c-.168 0-.338-.01-.497-.045a2.65 2.65 0 0 0 2.452 1.828 5.275 5.275 0 0 1-3.882 1.083 7.384 7.384 0 0 0 4.026 1.178c4.829 0 7.469-4 7.469-7.467a6.24 6.24 0 0 0-.01-.339c.521-.37.958-.831 1.315-1.362z" style="fill:var(--color4, #f4f4fd)"/>
      <path fill="#4d5ae5" d="M134.4 16c0 4.418-1.791 8.418-4.686 11.314S122.819 32 118.4 32c-4.418 0-8.418-1.791-11.314-4.686S102.4 20.419 102.4 16c0-4.418 1.791-8.418 4.686-11.314S113.981 0 118.4 0c4.418 0 8.418 1.791 11.314 4.686S134.4 11.581 134.4 16z" style="fill:var(--color2, #4d5ae5)"/>
      <path fill="#f4f4fd" d="M120.532 11.725h1.168V9.69c-.202-.028-.894-.09-1.702-.09-1.685 0-2.838 1.06-2.838 3.007V14.4h-1.859v2.275h1.859V22.4h2.279v-5.724h1.784l.283-2.275h-2.068v-1.567c.001-.658.178-1.108 1.094-1.108z" style="fill:var(--color4, #f4f4fd)"/>
      <path fill="#4d5ae5" d="M185.6 16c0 4.418-1.791 8.418-4.686 11.314S174.019 32 169.6 32c-4.418 0-8.418-1.791-11.314-4.686S153.6 20.419 153.6 16c0-4.418 1.791-8.418 4.686-11.314S165.181 0 169.6 0c4.418 0 8.418 1.791 11.314 4.686S185.6 11.581 185.6 16z" style="fill:var(--color2, #4d5ae5)"/>
      <path fill="#f4f4fd" d="M175.997 22.4v-.001H176v-4.694c0-2.297-.494-4.066-3.179-4.066-1.29 0-2.157.708-2.51 1.38h-.038v-1.165h-2.546V22.4h2.651v-4.231c0-1.114.211-2.192 1.59-2.192 1.36 0 1.38 1.272 1.38 2.263v4.161h2.648zm-12.586-8.546h2.654V22.4h-2.654v-8.546zm1.326-4.254c-.848 0-1.537.688-1.537 1.537s.689 1.551 1.537 1.551c.849 0 1.538-.703 1.538-1.551s-.69-1.537-1.538-1.537z" style="fill:var(--color4, #f4f4fd)"/>
    </symbol>
  </defs>
</svg>
