<svg xmlns="http://www.w3.org/2000/svg" aria-hidden="true" style="position:absolute;width:0;height:0;overflow:hidden"><defs><symbol id="icon-Ellipse_3" viewBox="0 0 32 32"><path fill="#4d5ae5" d="M32 16c0 4.418-1.791 8.418-4.686 11.314S20.419 32 16 32c-4.418 0-8.418-1.791-11.314-4.686S0 20.419 0 16c0-4.418 1.791-8.418 4.686-11.314S11.581 0 16 0c4.418 0 8.418 1.791 11.314 4.686S32 11.581 32 16z" style="fill:var(--color1, #4d5ae5)"/><path fill="#f4f4fd" d="M22.397 22.4v-.001h.003v-4.694c0-2.297-.494-4.066-3.179-4.066-1.291 0-2.157.708-2.51 1.38h-.037v-1.165h-2.546V22.4h2.651v-4.231c0-1.114.211-2.192 1.591-2.192 1.36 0 1.38 1.272 1.38 2.263v4.161h2.648zM9.811 13.854h2.654V22.4H9.811v-8.546zM11.137 9.6c-.849 0-1.537.688-1.537 1.537s.688 1.551 1.537 1.551 1.537-.703 1.537-1.551S11.985 9.6 11.137 9.6z" style="fill:var(--color2, #f4f4fd)"/></symbol><symbol id="icon-twitter" viewBox="0 0 32 32"><path fill="#4d5ae5" d="M32 16c0 4.418-1.791 8.418-4.686 11.314S20.419 32 16 32c-4.418 0-8.418-1.791-11.314-4.686S0 20.419 0 16c0-4.418 1.791-8.418 4.686-11.314S11.581 0 16 0c4.418 0 8.418 1.791 11.314 4.686S32 11.581 32 16z" style="fill:var(--color1, #4d5ae5)"/><path fill="#f4f4fd" d="M22.4 12.031a5.455 5.455 0 0 1-1.512.414 2.608 2.608 0 0 0 1.154-1.45 5.245 5.245 0 0 1-1.664.635 2.623 2.623 0 0 0-4.539 1.795c0 .208.018.408.061.598a7.426 7.426 0 0 1-5.409-2.745 2.628 2.628 0 0 0 .807 3.507 2.591 2.591 0 0 1-1.186-.323v.029c0 1.275.91 2.334 2.102 2.578a2.636 2.636 0 0 1-.688.086c-.168 0-.338-.01-.497-.045a2.65 2.65 0 0 0 2.452 1.828 5.275 5.275 0 0 1-3.882 1.083 7.384 7.384 0 0 0 4.026 1.178c4.829 0 7.469-4 7.469-7.467a6.24 6.24 0 0 0-.01-.339c.521-.37.958-.831 1.315-1.362z" style="fill:var(--color2, #f4f4fd)"/></symbol><symbol id="icon-Section" viewBox="0 0 180 32"><path fill="#8e8f99" d="m11.2 21.6 1.121 1.068-2.081-.001v5.183h5.44v-1.982l1.12 1.067V21.6h-5.6zm4.431 4.143-3.179-3.029h3.179v3.029zm-.987 1.349h-3.543v-3.486h.25v3.25h3.292v.236zm-2.837 1.718-.132-.272h-.109l.191.359v.209h.099v-.209l.191-.359h-.109l-.132.272zm.487-.272h.023l.215.569h-.103l-.046-.133h-.22l-.046.133h-.103l.214-.569h.066zm-.104.358h.166l-.083-.241-.083.241zm.687-.094-.012-.016c-.015-.019-.026-.038-.034-.056s-.012-.037-.012-.056c0-.03.006-.055.018-.077s.03-.038.052-.049a.164.164 0 0 1 .079-.017c.029 0 .054.006.075.017s.037.027.048.046a.124.124 0 0 1 .007.112.153.153 0 0 1-.027.041.278.278 0 0 1-.04.035l-.04.029.113.133a.223.223 0 0 0 .024-.106h.081c0 .028-.003.054-.008.079a.258.258 0 0 1-.041.094l.083.098h-.109l-.033-.039a.22.22 0 0 1-.058.032.258.258 0 0 1-.186-.006.155.155 0 0 1-.064-.057.154.154 0 0 1-.008-.144.196.196 0 0 1 .039-.049.49.49 0 0 1 .053-.042zm.047.057-.012.008c-.014.011-.024.022-.031.032a.086.086 0 0 0-.016.051c0 .017.004.032.011.045s.018.024.032.032a.101.101 0 0 0 .051.012.14.14 0 0 0 .063-.015.175.175 0 0 0 .029-.018l-.127-.149zm.022-.104.035-.024c.016-.011.028-.022.035-.032s.011-.024.011-.04c0-.014-.005-.026-.016-.038s-.025-.017-.044-.017c-.013 0-.024.003-.034.009s-.016.014-.021.024a.08.08 0 0 0 .002.069.228.228 0 0 0 .025.039l.007.008zm.995.167h-.098c-.003.025-.009.046-.018.063s-.022.03-.039.039a.147.147 0 0 1-.068.013c-.023 0-.043-.005-.059-.014s-.03-.022-.041-.039c-.01-.017-.018-.036-.023-.06s-.007-.049-.007-.078v-.048c0-.03.003-.057.008-.08s.014-.044.025-.06.025-.028.042-.037a.135.135 0 0 1 .059-.012c.027 0 .049.005.066.014s.03.022.038.04a.161.161 0 0 1 .017.063h.098c-.004-.038-.015-.072-.032-.101s-.041-.052-.073-.069-.07-.025-.115-.025c-.036 0-.068.006-.097.019s-.053.031-.073.054c-.02.024-.036.052-.047.085s-.016.07-.016.111v.047c0 .041.005.078.016.111s.026.061.046.085a.213.213 0 0 0 .167.073c.046 0 .085-.008.117-.025s.057-.04.075-.068a.218.218 0 0 0 .031-.1zm.543-.084v-.031c0-.043-.006-.081-.017-.115s-.027-.063-.048-.087c-.021-.024-.046-.043-.075-.055a.249.249 0 0 0-.192 0 .215.215 0 0 0-.075.055c-.021.024-.037.053-.048.087s-.017.072-.017.115v.031c0 .043.006.082.017.116s.028.063.049.087a.215.215 0 0 0 .171.074c.035 0 .067-.006.096-.019s.054-.031.074-.055c.021-.024.037-.053.048-.087s.017-.073.017-.116zm-.098-.032v.032c0 .032-.003.06-.009.084s-.015.045-.027.062-.026.029-.043.038-.036.012-.058.012c-.022 0-.041-.004-.058-.012s-.032-.021-.044-.038c-.012-.017-.021-.038-.027-.062s-.009-.053-.009-.084v-.032c0-.032.003-.06.009-.084s.015-.045.027-.061c.012-.017.026-.029.043-.037s.036-.013.058-.013a.12.12 0 0 1 .101.05.19.19 0 0 1 .027.061.349.349 0 0 1 .009.084zM43.858 21.43h-.022a3.409 3.409 0 0 0-.101-.004h-.073a4.18 4.18 0 0 0-.193.005h-.015a4.539 4.539 0 0 0-1.683.429l-.069.033v3.543l.162-.055a5.698 5.698 0 0 1 1.745-.305v.465c-.058 0-.114.002-.17.005h-.013a5.16 5.16 0 0 0-.996.153 5.078 5.078 0 0 0-1.187.463v-4.544a4.752 4.752 0 0 1 1.245-.507c.384-.099.778-.15 1.174-.151h.068a3.41 3.41 0 0 1 .821.104v.458a3.609 3.609 0 0 0-.567-.085l-.012-.001c-.04-.003-.079-.007-.116-.007zm.806.468c.102.008.207.012.313.012a5.085 5.085 0 0 0 1.234-.158 5.078 5.078 0 0 0 1.187-.463v4.462a4.793 4.793 0 0 1-1.246.507 4.797 4.797 0 0 1-1.174.151c-.3.002-.599-.033-.89-.105v-4.491a3.454 3.454 0 0 0 .576.087zm2.272.034-.162.054a5.451 5.451 0 0 1-2.092.298l-.129-.008v3.644l.111.01c.103.009.209.013.316.013a4.517 4.517 0 0 0 1.887-.434l.069-.033v-3.544zM41.558 27.714a.233.233 0 0 0-.18-.073.264.264 0 0 0-.185.073.265.265 0 0 0-.071.181v.607a.292.292 0 0 0 .024.124.22.22 0 0 0 .144.124.35.35 0 0 0 .091.013.255.255 0 0 0 .251-.255v-.068h-.159v.054a.165.165 0 0 1-.009.054.09.09 0 0 1-.023.034.087.087 0 0 1-.033.017c-.011.004-.022.005-.033.006-.014.002-.028-.001-.042-.006s-.024-.015-.033-.026a.145.145 0 0 1-.021-.081v-.566a.192.192 0 0 1 .02-.091.084.084 0 0 1 .078-.036c.014 0 .027.002.04.008s.023.015.031.026a.125.125 0 0 1 .026.081v.052h.157v-.062a.296.296 0 0 0-.019-.106.25.25 0 0 0-.053-.085zM42.501 27.707a.284.284 0 0 0-.18-.067c-.032 0-.064.006-.095.017s-.059.028-.084.05a.256.256 0 0 0-.061.085.278.278 0 0 0-.023.117v.582a.284.284 0 0 0 .023.119.231.231 0 0 0 .061.081c.024.023.053.04.084.051a.28.28 0 0 0 .19 0 .258.258 0 0 0 .146-.132.284.284 0 0 0 .023-.119v-.582a.278.278 0 0 0-.023-.117.253.253 0 0 0-.06-.085zm-.074.785c.001.016-.001.031-.006.046s-.014.028-.025.039a.119.119 0 0 1-.15 0c-.011-.011-.02-.024-.025-.039s-.008-.03-.006-.046v-.582c-.001-.016.001-.031.006-.046s.014-.028.025-.039a.119.119 0 0 1 .15 0c.011.011.02.024.025.039s.008.03.006.046v.582zM43.739 28.752V27.65h-.152l-.2.583h-.003l-.202-.583h-.151v1.102h.157v-.67h.003l.154.474h.079l.156-.474h.003v.67h.157zM44.633 27.727a.216.216 0 0 0-.089-.06.343.343 0 0 0-.114-.017h-.234v1.102h.157v-.43h.081a.291.291 0 0 0 .142-.03.231.231 0 0 0 .086-.084.272.272 0 0 0 .036-.096.743.743 0 0 0 .008-.125.685.685 0 0 0-.015-.157.233.233 0 0 0-.058-.101zm-.081.336c-.001.02-.006.04-.015.057s-.023.03-.04.039a.171.171 0 0 1-.074.014h-.072v-.375h.081a.158.158 0 0 1 .071.014.092.092 0 0 1 .037.041.16.16 0 0 1 .014.061v.073c0 .025.002.052 0 .076h-.002zM45.377 27.65h-.129l-.243 1.102h.157l.046-.237h.214l.046.237h.157l-.249-1.102zm-.145.715.077-.4h.003l.077.4h-.157zM46.392 28.314h-.003l-.237-.664h-.151v1.102h.157v-.663h.003l.24.663h.148V27.65h-.157v.664zM47.352 27.65l-.126.438h-.003l-.126-.438h-.166l.216.636v.466h.157v-.466l.216-.636h-.166zM41.12 29.063h.076v.212h.051v-.212h.075v-.044h-.202v.044zM41.756 29.02l-.099.256h.055l.021-.058h.102l.022.058h.056l-.102-.256h-.055zm-.008.154.035-.095.035.095h-.07zM42.385 29.181h.059v.033a.103.103 0 0 1-.061.022c-.01 0-.021-.001-.03-.006s-.018-.011-.024-.019a.105.105 0 0 1-.019-.067c0-.057.025-.085.074-.085.013-.001.026.002.036.01s.018.019.021.031l.051-.01c-.011-.05-.047-.075-.108-.075a.126.126 0 0 0-.089.033c-.013.013-.023.028-.029.045s-.009.035-.008.053a.14.14 0 0 0 .033.096c.012.013.028.023.044.029s.035.009.053.008a.154.154 0 0 0 .108-.041v-.101h-.111v.043zM43.028 29.02h-.052v.256h.179v-.044h-.127v-.212zM43.571 29.02h-.052v.256h.052v-.256zM44.102 29.19l-.105-.171h-.05v.256h.048v-.167l.103.167h.051v-.256h-.047v.171zM44.582 29.163h.128v-.044h-.128v-.056h.137v-.044h-.189v.256h.194v-.044h-.142v-.069zM45.746 29.12h-.101v-.101h-.051v.256h.051v-.112h.101v.112h.052v-.256h-.052v.101zM46.229 29.163h.128v-.044h-.128v-.056h.138v-.044h-.189v.256h.194v-.044h-.143v-.069zM46.884 29.163c.045-.007.067-.031.067-.071a.062.062 0 0 0-.025-.057.139.139 0 0 0-.075-.015h-.108v.256h.052v-.107h.01a.06.06 0 0 1 .032.006.047.047 0 0 1 .018.019l.056.081h.061l-.031-.05a.167.167 0 0 0-.057-.061zm-.052-.036h-.038v-.064h.04a.151.151 0 0 1 .052.006c.004.003.007.007.009.012l.003.015a.033.033 0 0 1-.014.025.154.154 0 0 1-.052.006zM47.378 29.163h.127v-.044h-.127v-.056h.138v-.044h-.189v.256h.194v-.044h-.142v-.069zM72.45 28.356l.007.001c.002 0 .004.002.006.004l.035.033a.29.29 0 0 1-.099.063.39.39 0 0 1-.141.023.374.374 0 0 1-.133-.021c-.038-.013-.072-.034-.1-.06s-.05-.058-.064-.092a.302.302 0 0 1 .001-.237c.015-.034.039-.066.068-.092s.066-.046.106-.06a.449.449 0 0 1 .263-.002.352.352 0 0 1 .095.053l-.03.036c-.002.003-.005.005-.008.006l-.012.003a.033.033 0 0 1-.013-.004l-.016-.009-.022-.012-.03-.012a.288.288 0 0 0-.093-.013.292.292 0 0 0-.098.016.234.234 0 0 0-.077.044.214.214 0 0 0-.068.165.286.286 0 0 0 .018.095.207.207 0 0 0 .122.115c.028.01.06.015.091.015a.489.489 0 0 0 .054-.003.23.23 0 0 0 .117-.048.025.025 0 0 1 .017-.006zM73.47 28.189a.279.279 0 0 1-.091.208.325.325 0 0 1-.104.06.438.438 0 0 1-.268 0c-.039-.014-.075-.034-.104-.06s-.052-.058-.067-.092a.3.3 0 0 1 0-.235.272.272 0 0 1 .171-.15.424.424 0 0 1 .268 0c.039.014.075.034.104.06a.269.269 0 0 1 .091.209zm-.093 0a.234.234 0 0 0-.017-.094.19.19 0 0 0-.122-.116.31.31 0 0 0-.195 0c-.028.01-.054.025-.075.045s-.038.044-.048.071a.279.279 0 0 0 0 .189.194.194 0 0 0 .123.115c.063.02.132.02.195 0a.188.188 0 0 0 .122-.115.252.252 0 0 0 .017-.094zM74.166 28.288l.009.021.01-.021a.113.113 0 0 1 .012-.021l.226-.351c.004-.006.008-.01.013-.011.006-.002.012-.002.019-.002h.067v.57h-.079v-.457l-.227.355c-.003.005-.008.01-.013.013s-.012.005-.019.005h-.013c-.007 0-.014-.002-.02-.005s-.01-.008-.013-.013l-.234-.358V28.47h-.076v-.569h.067c.006 0 .012 0 .019.002s.01.006.012.011l.231.351.011.02zM75.015 28.26v.213h-.088v-.569h.197a.452.452 0 0 1 .11.012.23.23 0 0 1 .078.035c.02.016.035.035.044.056a.184.184 0 0 1-.001.146.163.163 0 0 1-.048.057.236.236 0 0 1-.078.038.376.376 0 0 1-.106.013l-.107-.001zm0-.062h.107a.26.26 0 0 0 .068-.009.16.16 0 0 0 .049-.024.093.093 0 0 0 .03-.038.116.116 0 0 0 .011-.048c.001-.016-.002-.032-.009-.046s-.017-.028-.031-.039a.195.195 0 0 0-.119-.031h-.107v.235zM76.202 28.474h-.07c-.007 0-.014-.002-.019-.005s-.009-.008-.012-.013l-.06-.138h-.302l-.062.138a.033.033 0 0 1-.031.019h-.07l.265-.57h.092l.268.57zm-.437-.212h.249l-.105-.232a.35.35 0 0 1-.02-.054l-.01.03-.01.024-.104.232zM76.584 27.906c.005.003.01.006.013.01l.387.43v-.443h.079v.57h-.044l-.018-.003a.03.03 0 0 1-.014-.011l-.386-.429V28.473h-.079v-.57h.047c.005 0 .011.001.016.003zM77.714 28.247v.226h-.088v-.226l-.244-.343h.079c.007 0 .014.001.019.005s.009.008.012.013l.153.222.016.026a.256.256 0 0 1 .011.024l.011-.024a.135.135 0 0 1 .015-.026l.151-.223.011-.012c.004-.004.012-.006.019-.006h.08l-.245.345zM74.122 26.947l.117.011c.596-.228 1.1-.6 1.449-1.072s.528-1.02.515-1.578l-.657-.561c.133.594.071 1.208-.18 1.773s-.682 1.059-1.244 1.427z" style="fill:var(--color3, #8e8f99)"/><path fill="#8e8f99" d="m73.888 26.921.018.003c.6-.367 1.057-.879 1.313-1.47s.298-1.234.121-1.846l-.935-.799c.378.657.531 1.392.439 2.12s-.423 1.419-.956 1.992zM77.06 24.967c-.159.613-.545 1.165-1.101 1.576-.162.12-.337.228-.523.321.452-.114.868-.315 1.216-.587s.617-.61.787-.986l-.379-.324z" style="fill:var(--color3, #8e8f99)"/><path fill="#8e8f99" d="m76.911 24.876-.54-.461c-.01.526-.185 1.04-.507 1.489s-.778.816-1.322 1.063h.003c.121 0 .242-.006.363-.018.508-.177.957-.459 1.307-.821s.589-.792.697-1.251zM73.966 22.471l-.644-.551c-.576.19-1.072.524-1.421.959s-.538.95-.54 1.477c.002.583.232 1.149.653 1.608s1.009.785 1.671.926c.591-.615.937-1.376.988-2.17s-.196-1.583-.706-2.249zM78.4 24.792c-.002-.692-.325-1.355-.897-1.844s-1.348-.765-2.158-.767c-.374 0-.745.059-1.094.174l3.945 3.371a2.26 2.26 0 0 0 .204-.934zM101.132 23.923c-.382 0-.691.279-.691.623s.309.623.691.623c.382 0 .691-.279.691-.623s-.309-.623-.691-.623zM106.234 23.724c-.001-.478-.212-.936-.587-1.274s-.883-.528-1.413-.529c-.53.001-1.039.191-1.414.529s-.586.796-.587 1.274v2.636s4.001-.402 4.001-2.635zM99.04 27.225c.001.333.148.651.409.887s.614.368.983.369c.369-.001.722-.133.983-.369s.408-.554.409-.886v-1.834s-2.784.28-2.784 1.834zm1.392.328c-.072 0-.143-.019-.203-.055s-.107-.087-.134-.148c-.028-.06-.035-.126-.021-.19s.049-.122.1-.168a.399.399 0 0 1 .398-.071c.067.025.124.067.164.121a.307.307 0 0 1-.045.416.374.374 0 0 1-.258.097v-.001zM102.977 26.962v.683h-.141v-.683h.141zm.272.292v.11h-.31v-.11h.31zm.033-.292v.11h-.343v-.11h.343zm.642.326v.032c0 .052-.007.099-.021.14s-.034.076-.06.106c-.026.029-.056.051-.092.066s-.075.023-.118.023-.082-.008-.118-.023-.066-.037-.092-.066c-.026-.029-.046-.064-.06-.106s-.021-.088-.021-.14v-.032c0-.052.007-.099.021-.14s.034-.076.06-.105a.266.266 0 0 1 .21-.09c.043 0 .082.008.118.023s.066.037.092.067c.026.029.046.064.06.105s.022.088.022.14zm-.142.032v-.033c0-.036-.003-.068-.01-.096s-.016-.051-.029-.069c-.013-.019-.028-.033-.047-.042a.146.146 0 0 0-.126 0 .123.123 0 0 0-.046.042c-.012.019-.022.042-.029.069s-.01.059-.01.096v.033c0 .036.003.068.01.096s.016.051.029.07a.128.128 0 0 0 .11.058.126.126 0 0 0 .109-.058c.012-.019.022-.042.029-.07s.01-.06.01-.096zm.599.146c0-.012-.002-.023-.006-.033s-.01-.019-.02-.027-.023-.017-.041-.025-.04-.016-.068-.025c-.031-.01-.06-.021-.088-.034s-.052-.027-.073-.044c-.021-.017-.038-.036-.05-.059s-.018-.048-.018-.077c0-.028.006-.054.019-.077s.03-.044.052-.06c.023-.017.049-.03.08-.039a.364.364 0 0 1 .234.013.2.2 0 0 1 .118.183h-.14c0-.02-.004-.037-.013-.052s-.021-.027-.037-.036c-.017-.009-.038-.013-.063-.013s-.045.004-.061.011a.077.077 0 0 0-.048.071c0 .012.003.022.008.031s.015.018.026.026c.012.008.026.016.043.023s.036.014.059.021c.037.011.07.024.098.038s.052.03.071.047c.019.017.033.037.043.06s.015.047.015.076c0 .03-.006.056-.017.08s-.028.043-.05.06c-.022.016-.048.028-.078.037s-.064.013-.102.013c-.034 0-.067-.004-.1-.013s-.063-.023-.089-.041a.197.197 0 0 1-.088-.169h.141c0 .021.003.039.01.054s.016.027.028.036c.012.009.027.016.043.02s.035.006.055.006c.024 0 .044-.003.06-.01s.028-.016.035-.029a.073.073 0 0 0 .012-.041zm.541-.504v.683h-.14v-.683h.14zm.21 0v.11h-.557v-.11h.557zm.538.573v.11h-.363v-.11h.363zm-.317-.573v.683h-.141v-.683h.141zm.27.278v.107h-.316v-.107h.316zm.047-.278v.11h-.363v-.11h.363zm.082 0h.254c.052 0 .097.008.135.023s.067.039.087.069.031.068.031.113c0 .037-.006.068-.019.094s-.029.048-.052.065a.263.263 0 0 1-.078.041l-.044.024h-.221l-.001-.11h.164c.025 0 .045-.004.061-.013s.028-.021.037-.037a.126.126 0 0 0 .001-.111.076.076 0 0 0-.037-.036.14.14 0 0 0-.062-.013h-.114v.572h-.141v-.683zm.382.683-.156-.304.148-.001.158.299v.007h-.151zm.738-.243h-.174v-.11h.174c.027 0 .049-.004.066-.013s.029-.022.037-.038c.008-.016.012-.034.012-.054s-.004-.039-.012-.057c-.008-.018-.02-.032-.037-.042s-.039-.016-.066-.016h-.125v.572h-.14v-.683h.266c.053 0 .099.01.137.029s.068.045.088.079.03.072.03.116c0 .044-.01.082-.03.114s-.05.057-.088.075a.335.335 0 0 1-.137.026zm.811.133v.11h-.363v-.11h.363zm-.317-.573v.683h-.141v-.683h.141zm.27.278v.107h-.316v-.107h.316zm.047-.278v.11h-.363v-.11h.363zm.397 0v.683h-.14v-.683h.14zm.21 0v.11h-.557v-.11h.557zm.538.573v.11h-.363v-.11h.363zm-.317-.573v.683h-.141v-.683h.141zm.269.278v.107h-.316v-.107h.316zm.047-.278v.11h-.363v-.11h.363zm.083 0h.255c.052 0 .097.008.135.023s.067.039.087.069.03.068.03.113c0 .037-.006.068-.019.094s-.03.048-.052.065a.263.263 0 0 1-.078.041l-.044.024h-.221l-.001-.11h.165c.025 0 .045-.004.061-.013s.028-.021.037-.037a.126.126 0 0 0 .001-.111.076.076 0 0 0-.037-.036.14.14 0 0 0-.062-.013h-.114v.572h-.141v-.683zm.382.683-.156-.304.149-.001.157.299v.007h-.15zm.588-.179c0-.012-.002-.023-.006-.033s-.01-.019-.02-.027-.023-.017-.041-.025-.04-.016-.068-.025c-.031-.01-.06-.021-.088-.034s-.052-.027-.073-.044c-.021-.017-.038-.036-.05-.059s-.018-.048-.018-.077c0-.028.006-.054.019-.077s.03-.044.052-.06c.023-.017.049-.03.08-.039a.364.364 0 0 1 .234.013.2.2 0 0 1 .118.183h-.14c0-.02-.004-.037-.013-.052s-.021-.027-.037-.036a.13.13 0 0 0-.063-.013c-.024 0-.045.004-.061.011a.077.077 0 0 0-.048.071c0 .012.003.022.008.031s.015.018.026.026c.012.008.026.016.043.023s.036.014.059.021c.037.011.07.024.098.038s.052.03.071.047a.17.17 0 0 1 .057.136c0 .03-.006.056-.017.08s-.028.043-.05.06c-.022.016-.048.028-.078.037s-.064.013-.102.013c-.034 0-.067-.004-.1-.013s-.063-.023-.089-.041a.197.197 0 0 1-.088-.169h.141c0 .021.003.039.01.054s.016.027.028.036c.012.009.027.016.043.02s.035.006.055.006c.024 0 .044-.003.06-.01s.028-.016.035-.029a.073.073 0 0 0 .012-.041zM132.287 27.58c.039.044.06.099.059.155.002.037-.005.073-.021.107s-.04.064-.071.088a.426.426 0 0 1-.266.071h-.468v-.981h.458a.43.43 0 0 1 .254.065c.03.022.053.051.068.082s.023.067.02.101a.212.212 0 0 1-.053.15.26.26 0 0 1-.139.077c.062.01.118.04.158.084zm-.549-.148h.196a.198.198 0 0 0 .124-.032c.015-.012.026-.027.033-.044s.01-.035.009-.052a.114.114 0 0 0-.042-.096.206.206 0 0 0-.128-.033h-.193v.257zm.339.376c.016-.012.028-.028.036-.045s.012-.036.01-.055a.115.115 0 0 0-.048-.1.219.219 0 0 0-.133-.036h-.206v.27h.208a.233.233 0 0 0 .132-.034zM133.224 28.001l-.255-.383h-.096v.383h-.219v-.981h.415a.438.438 0 0 1 .289.083.288.288 0 0 1 .031.406.348.348 0 0 1-.198.1l.272.392h-.238zm-.351-.517h.179c.125 0 .187-.05.187-.149.001-.02-.002-.04-.01-.059s-.02-.036-.036-.051a.211.211 0 0 0-.141-.04h-.182l.002.299zM134.423 27.804h-.437l-.077.197h-.23l.402-.97h.249l.4.97h-.23l-.076-.197zm-.059-.149-.16-.414-.16.414h.32zM135.924 28.001h-.218l-.488-.667v.667h-.217v-.981h.217l.488.671v-.671h.218v.981zM137.166 27.767a.456.456 0 0 1-.197.173.71.71 0 0 1-.306.062h-.388v-.981h.388a.71.71 0 0 1 .306.06.451.451 0 0 1 .197.171.523.523 0 0 1 0 .514zm-.249-.024c.062-.065.096-.148.096-.234s-.034-.169-.096-.234a.41.41 0 0 0-.273-.084h-.151v.635h.151c.1.006.197-.024.273-.083zM134.559 21.563s2.811.955 2.751 2.338v2.338s-2.809-.956-2.75-2.338l-.001-2.338zM139.814 25.691a4.124 4.124 0 0 1 1.786-.592v-.732a3.606 3.606 0 0 0-1.786 1.324z" style="fill:var(--color3, #8e8f99)"/><path fill="#8e8f99" d="M139.495 25.912c.434-.788 1.188-1.395 2.105-1.698v-2.109s-4.003 1.361-3.918 3.329v3.329s.178-.061.459-.175c0-.106 0-.214.013-.322.083-.914.565-1.761 1.342-2.354z" style="fill:var(--color3, #8e8f99)"/><path fill="#8e8f99" d="M139.115 27.148c.021-.231.068-.459.14-.682a3.06 3.06 0 0 0-.848 2.011c.227-.098.492-.221.77-.365a3.093 3.093 0 0 1-.062-.964zM139.274 27.16c-.027.292-.01.585.05.873 1.094-.589 2.322-1.499 2.275-2.599v-.096a3.778 3.778 0 0 0-2.081.875 3.022 3.022 0 0 0-.244.947zM167.285 24.871a.48.48 0 0 1-.098-.319v-.462c0-.142.032-.249.098-.323.064-.074.174-.11.331-.11.147 0 .251.031.312.094.067.08.101.178.093.276v.109h-.262v-.11a.654.654 0 0 0-.008-.108.108.108 0 0 0-.037-.064.16.16 0 0 0-.096-.025.166.166 0 0 0-.101.026.126.126 0 0 0-.043.071.489.489 0 0 0-.01.114v.561a.264.264 0 0 0 .034.157.11.11 0 0 0 .053.038.154.154 0 0 0 .067.009.148.148 0 0 0 .093-.025.114.114 0 0 0 .04-.068.703.703 0 0 0 .008-.112v-.114h.262v.104a.419.419 0 0 1-.091.291c-.059.069-.163.103-.314.103-.152 0-.267-.037-.331-.113zM168.381 24.876c-.067-.072-.101-.177-.101-.316v-.486c0-.137.034-.241.101-.312.066-.07.178-.106.333-.105s.266.035.331.105c.067.071.101.174.101.312v.486c0 .137-.034.243-.101.315-.069.072-.178.108-.331.108s-.266-.037-.333-.108zm.456-.117a.277.277 0 0 0 .03-.144v-.595a.26.26 0 0 0-.03-.141.128.128 0 0 0-.054-.039c-.021-.008-.045-.011-.069-.008a.145.145 0 0 0-.069.008.115.115 0 0 0-.054.039.26.26 0 0 0-.032.141v.598a.272.272 0 0 0 .032.144.17.17 0 0 0 .123.049.174.174 0 0 0 .123-.049v-.003zM169.462 23.671h.283l.213.897.218-.897h.275l.029 1.294h-.205l-.021-.9-.211.9h-.163l-.218-.903-.021.903h-.205l.026-1.294zM170.797 23.671h.442c.254 0 .381.123.381.368 0 .235-.133.352-.402.352h-.15v.575h-.272l.002-1.294zm.377.554c.027.003.054.001.08-.006s.05-.019.07-.035a.209.209 0 0 0 .038-.146.393.393 0 0 0-.013-.118.11.11 0 0 0-.055-.062.28.28 0 0 0-.122-.021h-.106v.387h.106zM172.013 23.671h.293l.299 1.294h-.253l-.059-.298h-.262l-.061.298h-.258l.301-1.294zm.249.846-.102-.543-.101.543h.203zM172.848 23.671h.19l.365.738v-.738h.226v1.294h-.181l-.366-.771v.771h-.235l.002-1.294zM174.158 24.472l-.302-.799h.254l.186.513.174-.513h.25l-.299.799v.493h-.262v-.493zM167.706 25.532v.068h-.222v.526h-.093V25.6h-.224v-.068h.539zM168.402 26.125h-.072a.033.033 0 0 1-.019-.006.03.03 0 0 1-.013-.014l-.064-.141h-.309l-.064.141a.04.04 0 0 1-.01.016.037.037 0 0 1-.021.006h-.072l.274-.594h.094l.275.591zm-.452-.22h.258l-.109-.242c-.008-.018-.014-.037-.021-.056l-.01.032-.01.025-.109.241zM168.872 26.067a.32.32 0 0 0 .094-.007c.013-.003.026-.006.038-.011l.037-.015v-.133h-.109l-.008-.001c-.002-.001-.005-.002-.006-.004l-.005-.005v-.052h.211v.228a.395.395 0 0 1-.184.06.69.69 0 0 1-.078.004.424.424 0 0 1-.138-.022c-.042-.014-.078-.035-.109-.062s-.054-.059-.07-.094c-.018-.039-.026-.081-.026-.123s.008-.084.024-.124a.289.289 0 0 1 .179-.156.464.464 0 0 1 .222-.017.416.416 0 0 1 .066.015.287.287 0 0 1 .1.055l-.026.037a.02.02 0 0 1-.01.008.023.023 0 0 1-.011.003.037.037 0 0 1-.018-.005c-.008-.004-.018-.008-.027-.014a.272.272 0 0 0-.086-.029.394.394 0 0 0-.175.011.202.202 0 0 0-.13.121.261.261 0 0 0 0 .198c.011.028.03.053.054.075.022.02.05.036.078.047.035.01.072.014.109.012zM169.739 26.058h.298v.068h-.387v-.594h.093l-.003.526zM170.347 26.125h-.094v-.594h.094v.594zM170.693 25.535a.031.031 0 0 1 .014.011l.398.448V25.531h.082v.596h-.048c-.006.001-.013-.001-.019-.003s-.011-.007-.014-.011l-.398-.447V26.127h-.078v-.594h.05c.005 0 .01.001.014.003zM171.872 25.532v.065h-.33v.196h.267v.063h-.267v.203h.33v.065h-.426v-.592h.426zM162.112 21.865l4.136 1.013v3.551l-4.136-1.013v-3.552zm-.266-.302v4.027l4.666 1.144v-4.027l-4.666-1.144z" style="fill:var(--color3, #8e8f99)"/><path fill="#8e8f99" d="m164.347 28.603-4.667-1.145v-4.027l4.667 1.144v4.027z" style="fill:var(--color3, #8e8f99)"/><path fill="#8e8f99" d="m161.923 21.82 4.083 1.001-1.738 1.499-4.082-1.001 1.736-1.498zm-.077-.257-2.166 1.869 4.667 1.144 2.165-1.869-4.666-1.144zM164.61 28.376l1.902-1.642-1.902-.467v2.109z" style="fill:var(--color3, #8e8f99)"/><path fill="#2e2f42" d="M78.471 3.762h.841c-.017.276-.093.52-.228.734-.133.214-.32.381-.56.501-.238.12-.525.18-.861.18-.262 0-.498-.045-.706-.135a1.499 1.499 0 0 1-.534-.394c-.146-.171-.258-.377-.335-.619s-.115-.513-.115-.813v-.284c0-.3.039-.571.118-.813.081-.244.195-.451.343-.622.15-.171.329-.302.537-.394s.441-.138.697-.138c.341 0 .629.062.864.186.236.124.419.294.548.512.131.218.21.465.236.743h-.844a1.082 1.082 0 0 0-.098-.419.565.565 0 0 0-.256-.262.959.959 0 0 0-.45-.09c-.14 0-.263.026-.368.079s-.193.132-.264.239a1.174 1.174 0 0 0-.16.405 2.783 2.783 0 0 0-.051.568v.29c0 .212.016.398.048.56.032.159.081.294.146.405a.68.68 0 0 0 .259.247.845.845 0 0 0 .385.082c.176 0 .322-.028.436-.084s.202-.14.262-.25a.986.986 0 0 0 .11-.413zm3.26.63V2.077h.81V5.12h-.762l-.048-.728zm.09-.625.239-.006c0 .203-.023.391-.07.565a1.346 1.346 0 0 1-.211.45.984.984 0 0 1-.354.295c-.143.069-.31.104-.504.104-.148 0-.285-.021-.411-.062a.835.835 0 0 1-.321-.2.959.959 0 0 1-.208-.352 1.626 1.626 0 0 1-.073-.52V2.075h.81v1.972c0 .09.01.166.031.228.022.062.053.112.093.152s.085.067.138.084a.598.598 0 0 0 .18.025.678.678 0 0 0 .394-.101.53.53 0 0 0 .205-.276c.041-.118.062-.249.062-.394zm3.099.512c0-.058-.017-.111-.051-.157s-.097-.09-.188-.129a1.808 1.808 0 0 0-.391-.112 3.014 3.014 0 0 1-.43-.127 1.51 1.51 0 0 1-.343-.188.725.725 0 0 1-.307-.605c0-.127.027-.248.082-.36a.929.929 0 0 1 .239-.298c.105-.088.232-.157.382-.205.152-.051.323-.076.512-.076.264 0 .491.042.681.127.191.084.337.201.439.349a.848.848 0 0 1 .155.501h-.81a.43.43 0 0 0-.051-.211.337.337 0 0 0-.152-.149.536.536 0 0 0-.264-.056.524.524 0 0 0-.233.048.355.355 0 0 0-.152.124.297.297 0 0 0-.051.169c0 .047.009.089.028.127.021.036.053.068.098.098s.103.058.174.084c.073.024.163.047.27.067.219.045.415.104.588.177.172.071.309.169.411.292a.73.73 0 0 1 .152.481c0 .135-.03.259-.09.371s-.146.211-.259.295a1.336 1.336 0 0 1-.405.194 1.896 1.896 0 0 1-.526.067c-.283 0-.523-.051-.72-.152a1.141 1.141 0 0 1-.444-.385.899.899 0 0 1-.149-.484h.768c.004.111.032.2.084.267a.464.464 0 0 0 .205.146c.084.03.175.045.273.045a.7.7 0 0 0 .261-.042.376.376 0 0 0 .158-.118.29.29 0 0 0 .056-.174zm2.92-2.202v.574h-1.772v-.574h1.772zm-1.334-.751h.81v2.877c0 .088.011.156.034.202.024.047.06.08.107.098a.527.527 0 0 0 .177.025c.051 0 .096-.002.135-.006.041-.006.076-.011.104-.017l.003.596a1.548 1.548 0 0 1-.492.073c-.178 0-.334-.029-.467-.087-.131-.06-.232-.156-.304-.287s-.107-.304-.107-.518V1.323zm1.707 2.303V3.57a1.9 1.9 0 0 1 .096-.616c.064-.189.156-.353.278-.492s.272-.247.45-.323c.178-.079.383-.118.613-.118s.436.039.616.118c.18.077.331.185.453.323.124.139.217.303.281.492a1.9 1.9 0 0 1 .096.616v.059c0 .221-.032.427-.096.616a1.424 1.424 0 0 1-.281.492c-.122.139-.272.247-.45.323s-.383.115-.613.115c-.231 0-.436-.038-.616-.115a1.289 1.289 0 0 1-.453-.323 1.452 1.452 0 0 1-.278-.492 1.912 1.912 0 0 1-.096-.616zm.81-.059v.059c0 .127.011.247.034.357s.058.208.107.293c.051.082.116.147.197.194s.179.07.295.07c.112 0 .209-.023.29-.07s.145-.112.194-.194a.971.971 0 0 0 .107-.292c.024-.111.036-.23.036-.357v-.059c0-.124-.012-.24-.036-.349a.914.914 0 0 0-.11-.292c-.049-.086-.113-.154-.194-.203s-.178-.073-.293-.073a.55.55 0 0 0-.292.073.574.574 0 0 0-.194.203.971.971 0 0 0-.107.292 1.758 1.758 0 0 0-.034.349zm3.496-.863V5.12h-.813V2.077h.762l.051.63zm-.112.785h-.225c0-.212.025-.407.076-.585.052-.18.128-.336.228-.467.101-.133.226-.236.374-.309s.32-.11.515-.11c.135 0 .259.021.371.062a.711.711 0 0 1 .29.188.833.833 0 0 1 .191.332c.045.135.068.297.068.487v2.031h-.81V3.18c0-.139-.019-.246-.056-.321s-.091-.127-.16-.158a.602.602 0 0 0-.245-.045.569.569 0 0 0-.276.065.539.539 0 0 0-.191.18c-.051.075-.088.163-.112.264s-.037.21-.037.326zm1.811-.093-.29.037a2 2 0 0 1 .073-.554c.051-.171.125-.321.222-.45.099-.129.222-.23.368-.301.146-.073.315-.11.506-.11.146 0 .279.022.399.065.12.041.222.108.307.2.086.09.152.208.197.354.047.146.07.325.07.537V5.12h-.813V3.177a.73.73 0 0 0-.056-.321.297.297 0 0 0-.157-.155.594.594 0 0 0-.242-.045.535.535 0 0 0-.439.217.733.733 0 0 0-.11.236 1.102 1.102 0 0 0-.036.29zm3.996 1.777c-.236 0-.448-.037-.636-.112a1.39 1.39 0 0 1-.478-.318 1.415 1.415 0 0 1-.298-.47 1.589 1.589 0 0 1-.104-.574V3.59c0-.231.033-.442.098-.633s.159-.357.281-.498c.124-.141.274-.248.45-.323.176-.077.375-.115.596-.115.216 0 .407.036.574.107s.307.172.419.304c.114.131.201.289.259.473.058.182.087.384.087.607v.337h-2.419v-.54h1.623v-.062a.692.692 0 0 0-.062-.301c-.039-.09-.099-.161-.18-.214s-.184-.079-.309-.079c-.107 0-.199.023-.276.07s-.14.112-.188.197a1.055 1.055 0 0 0-.107.298 1.852 1.852 0 0 0-.034.371v.112c0 .122.017.234.051.338a.825.825 0 0 0 .149.267.678.678 0 0 0 .236.174c.094.041.2.062.318.062a.993.993 0 0 0 .408-.084.872.872 0 0 0 .329-.262l.394.428c-.064.092-.151.18-.262.264-.109.084-.24.154-.394.208a1.611 1.611 0 0 1-.526.079zm2.636-2.435V5.12h-.81V2.077h.762l.048.664zm.917-.684-.014.751a1.854 1.854 0 0 0-.144-.014 1.345 1.345 0 0 0-.149-.008.89.89 0 0 0-.298.045.517.517 0 0 0-.332.332 1.028 1.028 0 0 0-.045.276l-.163-.051c0-.197.02-.378.059-.543.039-.167.096-.312.172-.436.077-.124.171-.219.281-.287s.237-.101.38-.101a.938.938 0 0 1 .253.036zm2.143 2.222c0-.058-.017-.111-.051-.157s-.096-.09-.188-.129a1.808 1.808 0 0 0-.391-.112 3.014 3.014 0 0 1-.43-.127 1.51 1.51 0 0 1-.343-.188.725.725 0 0 1-.307-.605c0-.127.027-.248.082-.36a.929.929 0 0 1 .239-.298c.105-.088.232-.157.383-.205.152-.051.322-.076.512-.076.264 0 .491.042.681.127.191.084.337.201.439.349a.848.848 0 0 1 .155.501h-.81a.43.43 0 0 0-.051-.211.337.337 0 0 0-.152-.149.539.539 0 0 0-.264-.056.524.524 0 0 0-.233.048.355.355 0 0 0-.152.124.297.297 0 0 0-.051.169c0 .047.009.089.028.127.02.036.053.068.098.098s.103.058.174.084c.073.024.163.047.27.067.219.045.415.104.588.177.172.071.309.169.411.292a.73.73 0 0 1 .152.481c0 .135-.03.259-.09.371s-.146.211-.259.295a1.325 1.325 0 0 1-.405.194 1.896 1.896 0 0 1-.526.067c-.283 0-.523-.051-.72-.152a1.141 1.141 0 0 1-.444-.385.899.899 0 0 1-.149-.484h.768c.004.111.032.2.084.267a.464.464 0 0 0 .205.146c.084.03.175.045.273.045a.708.708 0 0 0 .262-.042.366.366 0 0 0 .157-.118.283.283 0 0 0 .056-.174z" style="fill:var(--color4, #2e2f42)"/></symbol><symbol id="icon-instagram" viewBox="0 0 32 32"><path fill="#4d5ae5" d="M32 16c0 4.418-1.791 8.418-4.686 11.314S20.419 32 16 32c-4.418 0-8.418-1.791-11.314-4.686S0 20.419 0 16c0-4.418 1.791-8.418 4.686-11.314S11.581 0 16 0c4.418 0 8.418 1.791 11.314 4.686S32 11.581 32 16z" style="fill:var(--color1, #4d5ae5)"/><path fill="#f4f4fd" d="M22.387 13.363c-.03-.68-.14-1.148-.298-1.553a3.136 3.136 0 0 0-.74-1.135 3.153 3.153 0 0 0-1.133-.738c-.408-.158-.873-.268-1.553-.298-.685-.032-.903-.04-2.641-.04s-1.955.008-2.638.038c-.68.03-1.148.14-1.553.298-.43.162-.815.413-1.135.74-.325.32-.578.708-.738 1.133-.158.408-.268.873-.298 1.553-.032.685-.04.903-.04 2.641s.008 1.955.038 2.638c.03.68.14 1.148.298 1.553.162.43.415.815.74 1.135.32.325.708.578 1.133.738.408.158.873.268 1.553.298.683.03.9.038 2.638.038s1.955-.007 2.638-.038c.68-.03 1.148-.14 1.553-.298a3.278 3.278 0 0 0 1.873-1.873c.157-.408.268-.873.298-1.553.03-.683.038-.9.038-2.638s-.003-1.955-.033-2.638zm-1.152 5.226c-.028.625-.133.963-.22 1.188-.215.558-.658 1-1.215 1.215-.225.088-.565.193-1.188.22-.675.03-.878.037-2.585.037s-1.913-.007-2.586-.037c-.625-.027-.963-.132-1.188-.22a1.966 1.966 0 0 1-.735-.478 1.998 1.998 0 0 1-.478-.735c-.088-.225-.193-.565-.22-1.188-.03-.675-.038-.878-.038-2.586s.007-1.913.038-2.586c.027-.625.132-.963.22-1.188.103-.278.265-.53.48-.735a1.99 1.99 0 0 1 .735-.478c.225-.087.565-.192 1.188-.22.675-.03.878-.038 2.586-.038 1.71 0 1.913.008 2.586.038.625.028.963.133 1.188.22.277.102.53.265.735.478.212.208.375.458.478.735.088.225.192.565.22 1.188.03.675.038.878.038 2.586s-.008 1.908-.038 2.583z" style="fill:var(--color2, #f4f4fd)"/><path fill="#f4f4fd" d="M16.024 12.713a3.29 3.29 0 0 0 0 6.576 3.29 3.29 0 0 0 0-6.576zm0 5.421a2.133 2.133 0 1 1 0-4.266 2.133 2.133 0 0 1 0 4.266zM20.21 12.583a.768.768 0 1 1-1.536 0 .768.768 0 0 1 1.536 0z" style="fill:var(--color2, #f4f4fd)"/></symbol><symbol id="icon-Vector_1" viewBox="0 0 41 32"><path d="M2.047 31.732h32.751c1.13 0 2.047-.916 2.047-2.047v-2.729c0-1.13-.917-2.047-2.047-2.047h-.682V7.894l3.876-3.671a2.06 2.06 0 1 0-.955-.976l-2.92 2.768V4.441c0-1.13-.916-2.047-2.047-2.047H4.778c-1.13 0-2.047.917-2.047 2.047V24.91h-.682c-1.13 0-2.047.916-2.047 2.047v2.729c0 1.13.917 2.047 2.047 2.047zM38.892 1.711a.682.682 0 1 1 0 1.363.682.682 0 0 1 0-1.363zM4.094 4.44c0-.377.306-.682.682-.682h27.292c.377 0 .682.306.682.682v2.865l-1.365 1.297V5.804a.682.682 0 0 0-.682-.682H6.14a.682.682 0 0 0-.682.682v17.058c0 .377.306.682.682.682h24.563a.682.682 0 0 0 .682-.682V10.479l1.365-1.293v15.723H4.093V4.44zm6.141 8.87a2.045 2.045 0 0 0-1.051 3.807 2.047 2.047 0 0 0 2.468-.289l2.372 1.19c.276.138.61.073.815-.157l5.042-5.672 4.956 3.714a.683.683 0 0 0 .878-.05l4.307-4.08v10.408H6.823V6.488h23.199v3.405l-4.828 4.572-4.998-3.747a.682.682 0 0 0-.919.092l-5.111 5.751-1.911-.956c.014-.082.023-.165.026-.248 0-1.13-.917-2.047-2.047-2.047zm.682 2.047a.682.682 0 1 1-1.363 0 .682.682 0 0 1 1.363 0zm4.094 10.917h6.823v.682a.682.682 0 0 1-.682.682h-5.459a.682.682 0 0 1-.682-.682v-.682zm-13.646.682c0-.377.306-.682.682-.682h11.599v.682c0 1.13.916 2.047 2.047 2.047h5.459c1.13 0 2.047-.916 2.047-2.047v-.682h11.599c.377 0 .682.305.682.682v2.729a.682.682 0 0 1-.682.682H2.047a.682.682 0 0 1-.682-.682v-2.729z"/></symbol><symbol id="icon-Vector_2" viewBox="0 0 29 32"><path d="M27.75 13.653a1.99 1.99 0 0 0-1.334-.791 1.992 1.992 0 0 0-1.504.395l-1.406 1.078-2.131 1.591-1.525-.607c2.719-1.22 4.619-3.939 4.619-7.096 0-4.293-3.506-7.785-7.816-7.785S8.837 3.93 8.837 8.223c0 1.556.465 3.003 1.258 4.22l-3.103-.027h-.005c-.01 0-.017.005-.026.005a.556.556 0 0 0-.174.035c-.014.005-.029.008-.043.015l-.022.007-3.63 1.792-.001.001-2.126 1.022a.468.468 0 0 0-.071.04 2 2 0 0 0 .514 3.575 2.008 2.008 0 0 0 1.548-.144l1.558-.829 2.542-1.313 1.523-.009-6.11 6.081-.002.001-1.503 1.497c-.355.353-.55.822-.55 1.322s.195.97.55 1.323c.365.363.844.545 1.324.545s.959-.182 1.325-.545l1.476-1.47 1.955-1.459 1.011 1.007-1.978 1.97-.002.001-1.503 1.497c-.355.353-.55.822-.55 1.322s.195.97.55 1.323c.365.363.845.545 1.325.545s.96-.182 1.325-.545l3.909-3.892.001-.002 1.134-1.123-.004-.004c.007-.007.017-.01.025-.017l5.8-6.353 3.897.555a.588.588 0 0 0 .294-.037c.02-.007.037-.017.056-.026.022-.011.044-.017.065-.03l3.608-2.395c.013-.009.02-.023.033-.033.014-.011.032-.016.045-.029l1.428-1.337a1.998 1.998 0 0 0 .238-2.652zM2.392 17.707a.802.802 0 0 1-.627.058.802.802 0 0 1-.238-1.415l1.475-.71.504 1.474-1.114.592zm3.927-2.052-1.738.898-.493-1.441 2.276-1.123-.044 1.666zm16.953-7.434a6.515 6.515 0 0 1-.672 2.874l-4.695-2.132a2.088 2.088 0 0 0-.885-1.558l1.644-5.457c2.67.849 4.609 3.34 4.609 6.274zm-13.236 0c0-3.632 2.969-6.587 6.618-6.587.284 0 .562.024.837.059l-1.608 5.338c-.021-.001-.042-.007-.064-.007-1.159 0-2.103.94-2.103 2.096s.943 2.096 2.103 2.096c.78 0 1.453-.431 1.817-1.061l4.337 1.97a6.616 6.616 0 0 1-5.318 2.683c-3.649 0-6.618-2.955-6.618-6.587zm6.687.899c0 .495-.406.898-.905.898s-.905-.403-.905-.898.406-.898.905-.898.905.403.905.898zM2.768 25.989a.683.683 0 0 1-.959.001.667.667 0 0 1 0-.948l1.08-1.076.956.952-1.077 1.072zm3.608 4.192a.683.683 0 0 1-.96.001.667.667 0 0 1 0-.948l1.081-1.077.956.952-1.077 1.072zm3.909-3.895-.002.001-1.982 1.976-.956-.952 1.98-1.971v-.001l.002-.001c.045-.045.073-.099.101-.152.008-.016.023-.029.029-.045.019-.046.022-.096.029-.144.004-.028.016-.053.016-.081 0-.04-.014-.079-.023-.119-.007-.036-.007-.073-.021-.107a.64.64 0 0 0-.102-.155c-.011-.013-.016-.03-.028-.043h-.001l-.001-.002-1.804-1.796c-.019-.019-.044-.027-.065-.043a.575.575 0 0 0-.098-.065.57.57 0 0 0-.105-.037.553.553 0 0 0-.116-.022.634.634 0 0 0-.107.005.59.59 0 0 0-.117.023c-.038.012-.071.031-.106.05-.022.013-.047.017-.068.032l-1.991 1.486-1.011-1.007 2.694-2.679 4.896 4.815-1.041 1.032zm7.657-7.879c-.017-.002-.034.004-.051.003a.617.617 0 0 0-.336.085.521.521 0 0 0-.093.069c-.014.013-.032.019-.045.033l-5.275 5.778-4.86-4.779 3.181-3.164a.6.6 0 0 0-.426-1.022v-.001l-2.491.015.031-1.805 3.485.03a7.8 7.8 0 0 0 5.593 2.359c.491 0 .97-.051 1.437-.138.045.036.089.073.146.095l2.706 1.078.171.852.2.994-3.371-.48zm4.537.201-.352-1.749 1.624-1.213 1.063 1.411-2.335 1.551zm4.215-3.179-.941.882-1.046-1.388.934-.716a.811.811 0 0 1 1.149.158.802.802 0 0 1-.096 1.064z"/></symbol><symbol id="icon-Vector_3" viewBox="0 0 28 32"><path d="M24.667 12c-.492 0-.954.134-1.35.368A2.67 2.67 0 0 0 20.667 10c-.651 0-1.249.236-1.714.628a2.667 2.667 0 0 0-3.619-.937V2.666c0-1.471-1.196-2.667-2.667-2.667S10 1.195 10 2.666v17.843c0 .336-.221.508-.316.567s-.351.179-.648.029l-4.281-2.141A2.827 2.827 0 0 0 .668 21.49v.509a.67.67 0 0 0 .212.488l7.695 7.182A8.64 8.64 0 0 0 14.488 32h4.18c4.779 0 8.667-3.888 8.667-8.667v-8.667a2.67 2.67 0 0 0-2.667-2.667zM26 23.333c0 4.044-3.29 7.333-7.333 7.333h-4.18c-1.863 0-3.641-.7-5.003-1.973l-7.483-6.984v-.219a1.493 1.493 0 0 1 2.158-1.333l4.281 2.141a1.988 1.988 0 0 0 1.946-.087 1.988 1.988 0 0 0 .949-1.702V2.666c0-.735.598-1.333 1.333-1.333s1.333.598 1.333 1.333v10a.667.667 0 1 0 1.334 0v-.667c0-.735.598-1.333 1.333-1.333s1.333.598 1.333 1.333v.672a.667.667 0 0 0 1.334-.005v-.01a1.336 1.336 0 0 1 1.333-1.323c.735 0 1.333.598 1.333 1.333v2a.667.667 0 1 0 1.334 0c0-.735.598-1.333 1.333-1.333s1.333.598 1.333 1.333v8.667z"/></symbol><symbol id="icon-people-office-1" viewBox="0 0 77 32"><path d="M0 0h76.8v32H0z"/></symbol><symbol id="icon-antenna_1" viewBox="0 0 32 32"><path fill="#2e2f42" d="m30.773 22.098-8.443-8.505.937-4.615c.242.094.499.144.758.146h.006a2.159 2.159 0 1 0-2.008-1.435l-4.96.605L8.972.161a.534.534 0 0 0-.377-.16.532.532 0 0 0-.373.155L6.709 1.66a.534.534 0 0 0 0 .754l.814.826a14.943 14.943 0 0 0 2.519 17.663.513.513 0 0 0 .146.098c-.034.18-.051.364-.052.547v6.187h-6.4a2.67 2.67 0 0 0-2.667 2.667v1.067c0 .295.239.533.533.533h24.533a.533.533 0 0 0 .533-.533v-1.067a2.67 2.67 0 0 0-2.667-2.667h-6.4v-2.742a15.09 15.09 0 0 0 3.049.32 14.854 14.854 0 0 0 7.04-1.783l.818.823a.534.534 0 0 0 .377.16.532.532 0 0 0 .373-.155l1.513-1.504a.534.534 0 0 0 0-.754zM23.28 6.233a1.067 1.067 0 1 1 .753 1.822h-.003a1.067 1.067 0 0 1-.747-1.823h-.002zm-1.256 3.505-.598 2.946-1.175-1.182 1.774-1.763zm-.605-.902-1.92 1.909-1.485-1.493 3.405-.415zM24.004 28.8a1.6 1.6 0 0 1 1.6 1.6v.533H2.137V30.4a1.6 1.6 0 0 1 1.6-1.6h20.267zm-7.467-2.133v1.067h-5.333v-1.067h5.333zM11.204 25.6v-4.053c0-1.294 1.196-2.347 2.667-2.347s2.667 1.053 2.667 2.347V25.6h-5.333zm6.4-1.696v-2.357c0-1.882-1.675-3.413-3.733-3.413a3.8 3.8 0 0 0-3.281 1.786A13.87 13.87 0 0 1 8.311 4.033l18.602 18.708a13.818 13.818 0 0 1-9.309 1.163zm11.289-.684L7.836 2.039l.755-.752 7.935 7.98c.004 0 .006.007.01.01l13.115 13.191-.757.752z" style="fill:var(--color4, #2e2f42)"/><path fill="#4d5ae5" d="M13.876 20.267h-.005a1.6 1.6 0 1 0-.004 3.2h.005a1.6 1.6 0 1 0 .004-3.2zm.373 1.978a.534.534 0 0 1-.752-.756.534.534 0 0 1 .373-.155.534.534 0 0 1 .374.911h.005z" style="fill:var(--color1, #4d5ae5)"/></symbol><symbol id="icon-Vector" viewBox="0 0 31 32"><path d="M30.797 15.301C30.795 6.849 23.942-.002 15.489 0S.186 6.855.188 15.308a15.304 15.304 0 0 0 10.649 14.576.662.662 0 0 0 .529-.065.637.637 0 0 0 .283-.356l3.865-12.25a1.912 1.912 0 1 0-.84-3.635L9.568 8.471a.637.637 0 0 0-.902.902l5.103 5.109a1.876 1.876 0 0 0 .536 2.309l-3.683 11.673C3.344 25.783-.382 17.71 2.299 10.432S13.053-.572 20.331 2.109c7.278 2.681 11.004 10.754 8.323 18.032a14.042 14.042 0 0 1-7.462 7.973l-.398-1.874a.637.637 0 0 0-1.049-.344l-3.837 3.426a.637.637 0 0 0 .231 1.084l4.899 1.564a.638.638 0 0 0 .819-.74l-.391-1.839a15.255 15.255 0 0 0 9.329-14.089zm-15.305-.637a.638.638 0 1 1 0 1.277.638.638 0 0 1 0-1.277zm2.101 14.864 2.184-1.948.603 2.84-2.787-.892z"/></symbol><symbol id="icon-facebook" viewBox="0 0 32 32"><path fill="#4d5ae5" d="M32 16c0 4.418-1.791 8.418-4.686 11.314S20.419 32 16 32c-4.418 0-8.418-1.791-11.314-4.686S0 20.419 0 16c0-4.418 1.791-8.418 4.686-11.314S11.581 0 16 0c4.418 0 8.418 1.791 11.314 4.686S32 11.581 32 16z" style="fill:var(--color1, #4d5ae5)"/><path fill="#f4f4fd" d="M18.132 11.725h1.169V9.69a15.04 15.04 0 0 0-1.702-.09c-1.685 0-2.839 1.06-2.839 3.007V14.4h-1.859v2.275h1.859V22.4h2.279v-5.724h1.784l.283-2.275h-2.068v-1.567c0-.658.178-1.108 1.094-1.108z" style="fill:var(--color2, #f4f4fd)"/></symbol></defs></svg>